<?xml version="1.0" encoding="UTF-8"?>
<svg version="1.1" xmlns="http://www.w3.org/2000/svg" width="248" height="248">
<path d="M0 0 C2.64 0 5.28 0 8 0 C8 2.64 8 5.28 8 8 C13.28 8 18.56 8 24 8 C24 10.64 24 13.28 24 16 C29.28 16 34.56 16 40 16 C40 18.64 40 21.28 40 24 C42.64 24 45.28 24 48 24 C48 26.64 48 29.28 48 32 C55.92 32 63.84 32 72 32 C72 29.36 72 26.72 72 24 C90.48 24 108.96 24 128 24 C128 26.64 128 29.28 128 32 C135.92 32 143.84 32 152 32 C152 29.36 152 26.72 152 24 C154.64 24 157.28 24 160 24 C160 21.36 160 18.72 160 16 C165.28 16 170.56 16 176 16 C176 13.36 176 10.72 176 8 C181.28 8 186.56 8 192 8 C192 5.36 192 2.72 192 0 C194.64 0 197.28 0 200 0 C200 18.48 200 36.96 200 56 C202.64 56 205.28 56 208 56 C208 61.28 208 66.56 208 72 C210.64 72 213.28 72 216 72 C216 79.92 216 87.84 216 96 C218.64 96 221.28 96 224 96 C224 119.76 224 143.52 224 168 C221.36 168 218.72 168 216 168 C216 170.64 216 173.28 216 176 C213.36 176 210.72 176 208 176 C208 178.64 208 181.28 208 184 C205.36 184 202.72 184 200 184 C200 186.64 200 189.28 200 192 C197.36 192 194.72 192 192 192 C192 194.64 192 197.28 192 200 C186.72 200 181.44 200 176 200 C176 202.64 176 205.28 176 208 C165.44 208 154.88 208 144 208 C144 210.64 144 213.28 144 216 C114.96 216 85.92 216 56 216 C56 213.36 56 210.72 56 208 C45.44 208 34.88 208 24 208 C24 205.36 24 202.72 24 200 C18.72 200 13.44 200 8 200 C8 197.36 8 194.72 8 192 C5.36 192 2.72 192 0 192 C0 189.36 0 186.72 0 184 C-2.64 184 -5.28 184 -8 184 C-8 181.36 -8 178.72 -8 176 C-10.64 176 -13.28 176 -16 176 C-16 173.36 -16 170.72 -16 168 C-18.64 168 -21.28 168 -24 168 C-24 144.24 -24 120.48 -24 96 C-21.36 96 -18.72 96 -16 96 C-16 88.08 -16 80.16 -16 72 C-13.36 72 -10.72 72 -8 72 C-8 66.72 -8 61.44 -8 56 C-5.36 56 -2.72 56 0 56 C0 37.52 0 19.04 0 0 Z " fill="#6E6870" transform="translate(24,16)"/>
<path d="M0 0 C2.64 0 5.28 0 8 0 C8 5.28 8 10.56 8 16 C10.64 16 13.28 16 16 16 C16 26.56 16 37.12 16 48 C18.64 48 21.28 48 24 48 C24 55.92 24 63.84 24 72 C26.64 72 29.28 72 32 72 C32 77.28 32 82.56 32 88 C34.64 88 37.28 88 40 88 C40 90.64 40 93.28 40 96 C47.92 96 55.84 96 64 96 C64 98.64 64 101.28 64 104 C66.64 104 69.28 104 72 104 C72 101.36 72 98.72 72 96 C74.64 96 77.28 96 80 96 C80 98.64 80 101.28 80 104 C85.28 104 90.56 104 96 104 C96 109.28 96 114.56 96 120 C98.64 120 101.28 120 104 120 C104 125.28 104 130.56 104 136 C98.72 136 93.44 136 88 136 C88 138.64 88 141.28 88 144 C85.36 144 82.72 144 80 144 C80 151.92 80 159.84 80 168 C69.44 168 58.88 168 48 168 C48 170.64 48 173.28 48 176 C18.96 176 -10.08 176 -40 176 C-40 173.36 -40 170.72 -40 168 C-50.56 168 -61.12 168 -72 168 C-72 160.08 -72 152.16 -72 144 C-74.64 144 -77.28 144 -80 144 C-80 141.36 -80 138.72 -80 136 C-85.28 136 -90.56 136 -96 136 C-96 130.72 -96 125.44 -96 120 C-93.36 120 -90.72 120 -88 120 C-88 114.72 -88 109.44 -88 104 C-82.72 104 -77.44 104 -72 104 C-72 101.36 -72 98.72 -72 96 C-69.36 96 -66.72 96 -64 96 C-64 98.64 -64 101.28 -64 104 C-61.36 104 -58.72 104 -56 104 C-56 101.36 -56 98.72 -56 96 C-53.36 96 -50.72 96 -48 96 C-48 93.36 -48 90.72 -48 88 C-45.36 88 -42.72 88 -40 88 C-40 90.64 -40 93.28 -40 96 C-37.36 96 -34.72 96 -32 96 C-32 93.36 -32 90.72 -32 88 C-29.36 88 -26.72 88 -24 88 C-24 82.72 -24 77.44 -24 72 C-21.36 72 -18.72 72 -16 72 C-16 64.08 -16 56.16 -16 48 C-13.36 48 -10.72 48 -8 48 C-8 37.44 -8 26.88 -8 16 C-5.36 16 -2.72 16 0 16 C0 10.72 0 5.44 0 0 Z " fill="#FFFFFF" transform="translate(120,56)"/>
<path d="M0 0 C2.64 0 5.28 0 8 0 C8 2.64 8 5.28 8 8 C13.28 8 18.56 8 24 8 C24 15.92 24 23.84 24 32 C29.28 32 34.56 32 40 32 C40 34.64 40 37.28 40 40 C42.64 40 45.28 40 48 40 C48 50.56 48 61.12 48 72 C50.64 72 53.28 72 56 72 C56 69.36 56 66.72 56 64 C58.64 64 61.28 64 64 64 C64 58.72 64 53.44 64 48 C66.64 48 69.28 48 72 48 C72 45.36 72 42.72 72 40 C74.64 40 77.28 40 80 40 C80 45.28 80 50.56 80 56 C77.36 56 74.72 56 72 56 C72 66.56 72 77.12 72 88 C69.36 88 66.72 88 64 88 C64 90.64 64 93.28 64 96 C61.36 96 58.72 96 56 96 C56 93.36 56 90.72 56 88 C45.44 88 34.88 88 24 88 C24 90.64 24 93.28 24 96 C18.72 96 13.44 96 8 96 C8 106.56 8 117.12 8 128 C13.28 128 18.56 128 24 128 C24 133.28 24 138.56 24 144 C18.72 144 13.44 144 8 144 C8 149.28 8 154.56 8 160 C5.36 160 2.72 160 0 160 C0 165.28 0 170.56 0 176 C5.28 176 10.56 176 16 176 C16 178.64 16 181.28 16 184 C18.64 184 21.28 184 24 184 C24 189.28 24 194.56 24 200 C18.72 200 13.44 200 8 200 C8 197.36 8 194.72 8 192 C5.36 192 2.72 192 0 192 C0 189.36 0 186.72 0 184 C-2.64 184 -5.28 184 -8 184 C-8 181.36 -8 178.72 -8 176 C-10.64 176 -13.28 176 -16 176 C-16 173.36 -16 170.72 -16 168 C-18.64 168 -21.28 168 -24 168 C-24 144.24 -24 120.48 -24 96 C-21.36 96 -18.72 96 -16 96 C-16 88.08 -16 80.16 -16 72 C-13.36 72 -10.72 72 -8 72 C-8 66.72 -8 61.44 -8 56 C-5.36 56 -2.72 56 0 56 C0 37.52 0 19.04 0 0 Z " fill="#6E6870" transform="translate(24,16)"/>
<path d="M0 0 C5.28 0 10.56 0 16 0 C16 2.64 16 5.28 16 8 C18.64 8 21.28 8 24 8 C24 10.64 24 13.28 24 16 C31.92 16 39.84 16 48 16 C48 13.36 48 10.72 48 8 C66.48 8 84.96 8 104 8 C104 10.64 104 13.28 104 16 C111.92 16 119.84 16 128 16 C128 13.36 128 10.72 128 8 C130.64 8 133.28 8 136 8 C136 5.36 136 2.72 136 0 C141.28 0 146.56 0 152 0 C152 5.28 152 10.56 152 16 C146.72 16 141.44 16 136 16 C136 18.64 136 21.28 136 24 C133.36 24 130.72 24 128 24 C128 31.92 128 39.84 128 48 C130.64 48 133.28 48 136 48 C136 50.64 136 53.28 136 56 C130.72 56 125.44 56 120 56 C120 53.36 120 50.72 120 48 C117.36 48 114.72 48 112 48 C112 42.72 112 37.44 112 32 C109.36 32 106.72 32 104 32 C104 29.36 104 26.72 104 24 C101.36 24 98.72 24 96 24 C96 29.28 96 34.56 96 40 C98.64 40 101.28 40 104 40 C104 58.48 104 76.96 104 96 C101.36 96 98.72 96 96 96 C96 88.08 96 80.16 96 72 C93.36 72 90.72 72 88 72 C88 61.44 88 50.88 88 40 C85.36 40 82.72 40 80 40 C80 34.72 80 29.44 80 24 C77.36 24 74.72 24 72 24 C72 29.28 72 34.56 72 40 C69.36 40 66.72 40 64 40 C64 50.56 64 61.12 64 72 C61.36 72 58.72 72 56 72 C56 79.92 56 87.84 56 96 C53.36 96 50.72 96 48 96 C48 101.28 48 106.56 48 112 C45.36 112 42.72 112 40 112 C40 114.64 40 117.28 40 120 C37.36 120 34.72 120 32 120 C32 117.36 32 114.72 32 112 C29.36 112 26.72 112 24 112 C24 114.64 24 117.28 24 120 C21.36 120 18.72 120 16 120 C16 122.64 16 125.28 16 128 C13.36 128 10.72 128 8 128 C8 125.36 8 122.72 8 120 C5.36 120 2.72 120 0 120 C0 117.36 0 114.72 0 112 C-5.28 112 -10.56 112 -16 112 C-16 101.44 -16 90.88 -16 80 C-10.72 80 -5.44 80 0 80 C0 77.36 0 74.72 0 72 C10.56 72 21.12 72 32 72 C32 74.64 32 77.28 32 80 C34.64 80 37.28 80 40 80 C40 77.36 40 74.72 40 72 C42.64 72 45.28 72 48 72 C48 61.44 48 50.88 48 40 C50.64 40 53.28 40 56 40 C56 34.72 56 29.44 56 24 C53.36 24 50.72 24 48 24 C48 26.64 48 29.28 48 32 C45.36 32 42.72 32 40 32 C40 37.28 40 42.56 40 48 C37.36 48 34.72 48 32 48 C32 50.64 32 53.28 32 56 C29.36 56 26.72 56 24 56 C24 45.44 24 34.88 24 24 C21.36 24 18.72 24 16 24 C16 21.36 16 18.72 16 16 C10.72 16 5.44 16 0 16 C0 10.72 0 5.44 0 0 Z " fill="#464147" transform="translate(48,32)"/>
<path d="M0 0 C5.28 0 10.56 0 16 0 C16 15.84 16 31.68 16 48 C18.64 48 21.28 48 24 48 C24 69.12 24 90.24 24 112 C21.36 112 18.72 112 16 112 C16 101.44 16 90.88 16 80 C10.72 80 5.44 80 0 80 C0 77.36 0 74.72 0 72 C-10.56 72 -21.12 72 -32 72 C-32 74.64 -32 77.28 -32 80 C-34.64 80 -37.28 80 -40 80 C-40 90.56 -40 101.12 -40 112 C-42.64 112 -45.28 112 -48 112 C-48 88.24 -48 64.48 -48 40 C-50.64 40 -53.28 40 -56 40 C-56 34.72 -56 29.44 -56 24 C-53.36 24 -50.72 24 -48 24 C-48 26.64 -48 29.28 -48 32 C-45.36 32 -42.72 32 -40 32 C-40 37.28 -40 42.56 -40 48 C-37.36 48 -34.72 48 -32 48 C-32 50.64 -32 53.28 -32 56 C-26.72 56 -21.44 56 -16 56 C-16 53.36 -16 50.72 -16 48 C-18.64 48 -21.28 48 -24 48 C-24 40.08 -24 32.16 -24 24 C-21.36 24 -18.72 24 -16 24 C-16 21.36 -16 18.72 -16 16 C-10.72 16 -5.44 16 0 16 C0 10.72 0 5.44 0 0 Z " fill="#6E6870" transform="translate(200,32)"/>
<path d="M0 0 C2.64 0 5.28 0 8 0 C8 2.64 8 5.28 8 8 C13.28 8 18.56 8 24 8 C24 10.64 24 13.28 24 16 C18.72 16 13.44 16 8 16 C8 31.84 8 47.68 8 64 C5.36 64 2.72 64 0 64 C0 74.56 0 85.12 0 96 C-2.64 96 -5.28 96 -8 96 C-8 114.48 -8 132.96 -8 152 C-2.72 152 2.56 152 8 152 C8 154.64 8 157.28 8 160 C5.36 160 2.72 160 0 160 C0 165.28 0 170.56 0 176 C5.28 176 10.56 176 16 176 C16 178.64 16 181.28 16 184 C18.64 184 21.28 184 24 184 C24 189.28 24 194.56 24 200 C18.72 200 13.44 200 8 200 C8 197.36 8 194.72 8 192 C5.36 192 2.72 192 0 192 C0 189.36 0 186.72 0 184 C-2.64 184 -5.28 184 -8 184 C-8 181.36 -8 178.72 -8 176 C-10.64 176 -13.28 176 -16 176 C-16 173.36 -16 170.72 -16 168 C-18.64 168 -21.28 168 -24 168 C-24 144.24 -24 120.48 -24 96 C-21.36 96 -18.72 96 -16 96 C-16 88.08 -16 80.16 -16 72 C-13.36 72 -10.72 72 -8 72 C-8 66.72 -8 61.44 -8 56 C-5.36 56 -2.72 56 0 56 C0 37.52 0 19.04 0 0 Z " fill="#5A545C" transform="translate(24,16)"/>
<path d="M0 0 C5.28 0 10.56 0 16 0 C16 5.28 16 10.56 16 16 C10.72 16 5.44 16 0 16 C0 18.64 0 21.28 0 24 C-2.64 24 -5.28 24 -8 24 C-8 31.92 -8 39.84 -8 48 C-5.36 48 -2.72 48 0 48 C0 50.64 0 53.28 0 56 C-5.28 56 -10.56 56 -16 56 C-16 53.36 -16 50.72 -16 48 C-18.64 48 -21.28 48 -24 48 C-24 42.72 -24 37.44 -24 32 C-26.64 32 -29.28 32 -32 32 C-32 29.36 -32 26.72 -32 24 C-34.64 24 -37.28 24 -40 24 C-40 29.28 -40 34.56 -40 40 C-37.36 40 -34.72 40 -32 40 C-32 58.48 -32 76.96 -32 96 C-34.64 96 -37.28 96 -40 96 C-40 88.08 -40 80.16 -40 72 C-42.64 72 -45.28 72 -48 72 C-48 61.44 -48 50.88 -48 40 C-50.64 40 -53.28 40 -56 40 C-56 34.72 -56 29.44 -56 24 C-58.64 24 -61.28 24 -64 24 C-64 21.36 -64 18.72 -64 16 C-71.92 16 -79.84 16 -88 16 C-88 13.36 -88 10.72 -88 8 C-69.52 8 -51.04 8 -32 8 C-32 10.64 -32 13.28 -32 16 C-24.08 16 -16.16 16 -8 16 C-8 13.36 -8 10.72 -8 8 C-5.36 8 -2.72 8 0 8 C0 5.36 0 2.72 0 0 Z " fill="#5A545C" transform="translate(184,32)"/>
<path d="M0 0 C2.64 0 5.28 0 8 0 C8 7.92 8 15.84 8 24 C10.64 24 13.28 24 16 24 C16 47.76 16 71.52 16 96 C13.36 96 10.72 96 8 96 C8 98.64 8 101.28 8 104 C5.36 104 2.72 104 0 104 C0 106.64 0 109.28 0 112 C-2.64 112 -5.28 112 -8 112 C-8 114.64 -8 117.28 -8 120 C-10.64 120 -13.28 120 -16 120 C-16 122.64 -16 125.28 -16 128 C-21.28 128 -26.56 128 -32 128 C-32 122.72 -32 117.44 -32 112 C-29.36 112 -26.72 112 -24 112 C-24 109.36 -24 106.72 -24 104 C-18.72 104 -13.44 104 -8 104 C-8 98.72 -8 93.44 -8 88 C-10.64 88 -13.28 88 -16 88 C-16 85.36 -16 82.72 -16 80 C-10.72 80 -5.44 80 0 80 C0 53.6 0 27.2 0 0 Z " fill="#5A545C" transform="translate(232,88)"/>
<path d="M0 0 C50.16 0 100.32 0 152 0 C152 2.64 152 5.28 152 8 C141.44 8 130.88 8 120 8 C120 10.64 120 13.28 120 16 C90.96 16 61.92 16 32 16 C32 13.36 32 10.72 32 8 C21.44 8 10.88 8 0 8 C0 5.36 0 2.72 0 0 Z " fill="#C2C2C2" transform="translate(48,216)"/>
<path d="M0 0 C5.28 0 10.56 0 16 0 C16 7.92 16 15.84 16 24 C18.64 24 21.28 24 24 24 C24 18.72 24 13.44 24 8 C26.64 8 29.28 8 32 8 C32 10.64 32 13.28 32 16 C34.64 16 37.28 16 40 16 C40 13.36 40 10.72 40 8 C42.64 8 45.28 8 48 8 C48 15.92 48 23.84 48 32 C45.36 32 42.72 32 40 32 C40 34.64 40 37.28 40 40 C37.36 40 34.72 40 32 40 C32 42.64 32 45.28 32 48 C29.36 48 26.72 48 24 48 C24 45.36 24 42.72 24 40 C21.36 40 18.72 40 16 40 C16 37.36 16 34.72 16 32 C10.72 32 5.44 32 0 32 C0 21.44 0 10.88 0 0 Z " fill="#4B692F" transform="translate(32,112)"/>
<path d="M0 0 C10.56 0 21.12 0 32 0 C32 10.56 32 21.12 32 32 C29.36 32 26.72 32 24 32 C24 34.64 24 37.28 24 40 C16.08 40 8.16 40 0 40 C0 34.72 0 29.44 0 24 C-2.64 24 -5.28 24 -8 24 C-8 18.72 -8 13.44 -8 8 C-5.36 8 -2.72 8 0 8 C0 5.36 0 2.72 0 0 Z " fill="#4B692F" transform="translate(168,104)"/>
<path d="M0 0 C10.56 0 21.12 0 32 0 C32 2.64 32 5.28 32 8 C37.28 8 42.56 8 48 8 C48 18.56 48 29.12 48 40 C45.36 40 42.72 40 40 40 C40 42.64 40 45.28 40 48 C37.36 48 34.72 48 32 48 C32 37.44 32 26.88 32 16 C29.36 16 26.72 16 24 16 C24 18.64 24 21.28 24 24 C21.36 24 18.72 24 16 24 C16 21.36 16 18.72 16 16 C13.36 16 10.72 16 8 16 C8 21.28 8 26.56 8 32 C5.36 32 2.72 32 0 32 C0 21.44 0 10.88 0 0 Z " fill="#4B692F" transform="translate(48,104)"/>
<path d="M0 0 C5.28 0 10.56 0 16 0 C16 10.56 16 21.12 16 32 C10.72 32 5.44 32 0 32 C0 34.64 0 37.28 0 40 C-2.64 40 -5.28 40 -8 40 C-8 42.64 -8 45.28 -8 48 C-10.64 48 -13.28 48 -16 48 C-16 45.36 -16 42.72 -16 40 C-23.92 40 -31.84 40 -40 40 C-40 32.08 -40 24.16 -40 16 C-37.36 16 -34.72 16 -32 16 C-32 21.28 -32 26.56 -32 32 C-24.08 32 -16.16 32 -8 32 C-8 29.36 -8 26.72 -8 24 C-5.36 24 -2.72 24 0 24 C0 16.08 0 8.16 0 0 Z " fill="#4B692F" transform="translate(200,112)"/>
<path d="M0 0 C5.28 0 10.56 0 16 0 C16 2.64 16 5.28 16 8 C18.64 8 21.28 8 24 8 C24 10.64 24 13.28 24 16 C31.92 16 39.84 16 48 16 C48 21.28 48 26.56 48 32 C45.36 32 42.72 32 40 32 C40 37.28 40 42.56 40 48 C37.36 48 34.72 48 32 48 C32 50.64 32 53.28 32 56 C29.36 56 26.72 56 24 56 C24 45.44 24 34.88 24 24 C21.36 24 18.72 24 16 24 C16 21.36 16 18.72 16 16 C10.72 16 5.44 16 0 16 C0 10.72 0 5.44 0 0 Z " fill="#5A545C" transform="translate(48,32)"/>
<path d="M0 0 C2.64 0 5.28 0 8 0 C8 2.64 8 5.28 8 8 C10.64 8 13.28 8 16 8 C16 10.64 16 13.28 16 16 C10.72 16 5.44 16 0 16 C0 18.64 0 21.28 0 24 C-2.64 24 -5.28 24 -8 24 C-8 26.64 -8 29.28 -8 32 C-10.64 32 -13.28 32 -16 32 C-16 34.64 -16 37.28 -16 40 C-21.28 40 -26.56 40 -32 40 C-32 37.36 -32 34.72 -32 32 C-34.64 32 -37.28 32 -40 32 C-40 26.72 -40 21.44 -40 16 C-34.72 16 -29.44 16 -24 16 C-24 13.36 -24 10.72 -24 8 C-21.36 8 -18.72 8 -16 8 C-16 10.64 -16 13.28 -16 16 C-13.36 16 -10.72 16 -8 16 C-8 13.36 -8 10.72 -8 8 C-5.36 8 -2.72 8 0 8 C0 5.36 0 2.72 0 0 Z " fill="#EBB1D8" transform="translate(72,144)"/>
<path d="M0 0 C7.92 0 15.84 0 24 0 C24 2.64 24 5.28 24 8 C26.64 8 29.28 8 32 8 C32 5.36 32 2.72 32 0 C34.64 0 37.28 0 40 0 C40 2.64 40 5.28 40 8 C45.28 8 50.56 8 56 8 C56 13.28 56 18.56 56 24 C53.36 24 50.72 24 48 24 C48 26.64 48 29.28 48 32 C42.72 32 37.44 32 32 32 C32 29.36 32 26.72 32 24 C29.36 24 26.72 24 24 24 C24 21.36 24 18.72 24 16 C21.36 16 18.72 16 16 16 C16 13.36 16 10.72 16 8 C10.72 8 5.44 8 0 8 C0 5.36 0 2.72 0 0 Z " fill="#EBB1D8" transform="translate(160,152)"/>
<path d="M0 0 C2.64 0 5.28 0 8 0 C8 10.56 8 21.12 8 32 C15.92 32 23.84 32 32 32 C32 37.28 32 42.56 32 48 C26.72 48 21.44 48 16 48 C16 50.64 16 53.28 16 56 C10.72 56 5.44 56 0 56 C0 37.52 0 19.04 0 0 Z " fill="#6E6870" transform="translate(16,112)"/>
<path d="M0 0 C7.92 0 15.84 0 24 0 C24 2.64 24 5.28 24 8 C26.64 8 29.28 8 32 8 C32 10.64 32 13.28 32 16 C29.36 16 26.72 16 24 16 C24 18.64 24 21.28 24 24 C21.36 24 18.72 24 16 24 C16 26.64 16 29.28 16 32 C18.64 32 21.28 32 24 32 C24 34.64 24 37.28 24 40 C16.08 40 8.16 40 0 40 C0 37.36 0 34.72 0 32 C2.64 32 5.28 32 8 32 C8 29.36 8 26.72 8 24 C5.36 24 2.72 24 0 24 C0 21.36 0 18.72 0 16 C2.64 16 5.28 16 8 16 C8 13.36 8 10.72 8 8 C5.36 8 2.72 8 0 8 C0 5.36 0 2.72 0 0 Z " fill="#D77BBA" transform="translate(112,144)"/>
<path d="M0 0 C2.64 0 5.28 0 8 0 C8 18.48 8 36.96 8 56 C10.64 56 13.28 56 16 56 C16 61.28 16 66.56 16 72 C13.36 72 10.72 72 8 72 C8 69.36 8 66.72 8 64 C5.36 64 2.72 64 0 64 C0 48.16 0 32.32 0 16 C-5.28 16 -10.56 16 -16 16 C-16 13.36 -16 10.72 -16 8 C-10.72 8 -5.44 8 0 8 C0 5.36 0 2.72 0 0 Z " fill="#322E33" transform="translate(216,16)"/>
<path d="M0 0 C2.64 0 5.28 0 8 0 C8 2.64 8 5.28 8 8 C13.28 8 18.56 8 24 8 C24 10.64 24 13.28 24 16 C18.72 16 13.44 16 8 16 C8 31.84 8 47.68 8 64 C5.36 64 2.72 64 0 64 C0 66.64 0 69.28 0 72 C-2.64 72 -5.28 72 -8 72 C-8 66.72 -8 61.44 -8 56 C-5.36 56 -2.72 56 0 56 C0 37.52 0 19.04 0 0 Z " fill="#322E33" transform="translate(24,16)"/>
<path d="M0 0 C29.04 0 58.08 0 88 0 C88 2.64 88 5.28 88 8 C58.96 8 29.92 8 0 8 C0 5.36 0 2.72 0 0 Z " fill="#322E33" transform="translate(80,224)"/>
<path d="M0 0 C2.64 0 5.28 0 8 0 C8 2.64 8 5.28 8 8 C10.64 8 13.28 8 16 8 C16 10.64 16 13.28 16 16 C13.36 16 10.72 16 8 16 C8 18.64 8 21.28 8 24 C5.36 24 2.72 24 0 24 C0 26.64 0 29.28 0 32 C-2.64 32 -5.28 32 -8 32 C-8 34.64 -8 37.28 -8 40 C-13.28 40 -18.56 40 -24 40 C-24 34.72 -24 29.44 -24 24 C-21.36 24 -18.72 24 -16 24 C-16 21.36 -16 18.72 -16 16 C-10.72 16 -5.44 16 0 16 C0 10.72 0 5.44 0 0 Z " fill="#322E33" transform="translate(224,176)"/>
<path d="M0 0 C2.64 0 5.28 0 8 0 C8 5.28 8 10.56 8 16 C13.28 16 18.56 16 24 16 C24 18.64 24 21.28 24 24 C26.64 24 29.28 24 32 24 C32 29.28 32 34.56 32 40 C26.72 40 21.44 40 16 40 C16 37.36 16 34.72 16 32 C13.36 32 10.72 32 8 32 C8 29.36 8 26.72 8 24 C5.36 24 2.72 24 0 24 C0 21.36 0 18.72 0 16 C-2.64 16 -5.28 16 -8 16 C-8 13.36 -8 10.72 -8 8 C-5.36 8 -2.72 8 0 8 C0 5.36 0 2.72 0 0 Z " fill="#322E33" transform="translate(16,176)"/>
<path d="M0 0 C2.64 0 5.28 0 8 0 C8 23.76 8 47.52 8 72 C5.36 72 2.72 72 0 72 C0 48.24 0 24.48 0 0 Z " fill="#322E33" transform="translate(240,112)"/>
<path d="M0 0 C2.64 0 5.28 0 8 0 C8 23.76 8 47.52 8 72 C5.36 72 2.72 72 0 72 C0 48.24 0 24.48 0 0 Z " fill="#322E33" transform="translate(0,112)"/>
<path d="M0 0 C7.92 0 15.84 0 24 0 C24 7.92 24 15.84 24 24 C26.64 24 29.28 24 32 24 C32 26.64 32 29.28 32 32 C26.72 32 21.44 32 16 32 C16 29.36 16 26.72 16 24 C13.36 24 10.72 24 8 24 C8 18.72 8 13.44 8 8 C5.36 8 2.72 8 0 8 C0 5.36 0 2.72 0 0 Z " fill="#5A545C" transform="translate(152,56)"/>
<path d="M0 0 C5.28 0 10.56 0 16 0 C16 5.28 16 10.56 16 16 C10.72 16 5.44 16 0 16 C0 18.64 0 21.28 0 24 C-10.56 24 -21.12 24 -32 24 C-32 21.36 -32 18.72 -32 16 C-24.08 16 -16.16 16 -8 16 C-8 13.36 -8 10.72 -8 8 C-5.36 8 -2.72 8 0 8 C0 5.36 0 2.72 0 0 Z " fill="#5A545C" transform="translate(184,32)"/>
<path d="M0 0 C2.64 0 5.28 0 8 0 C8 2.64 8 5.28 8 8 C10.64 8 13.28 8 16 8 C16 5.36 16 2.72 16 0 C18.64 0 21.28 0 24 0 C24 7.92 24 15.84 24 24 C16.08 24 8.16 24 0 24 C0 16.08 0 8.16 0 0 Z " fill="#222034" transform="translate(168,120)"/>
<path d="M0 0 C2.64 0 5.28 0 8 0 C8 2.64 8 5.28 8 8 C10.64 8 13.28 8 16 8 C16 5.36 16 2.72 16 0 C18.64 0 21.28 0 24 0 C24 7.92 24 15.84 24 24 C16.08 24 8.16 24 0 24 C0 16.08 0 8.16 0 0 Z " fill="#222034" transform="translate(56,120)"/>
<path d="M0 0 C7.92 0 15.84 0 24 0 C24 2.64 24 5.28 24 8 C21.36 8 18.72 8 16 8 C16 13.28 16 18.56 16 24 C13.36 24 10.72 24 8 24 C8 26.64 8 29.28 8 32 C5.36 32 2.72 32 0 32 C0 21.44 0 10.88 0 0 Z " fill="#5A545C" transform="translate(72,56)"/>
<path d="M0 0 C18.48 0 36.96 0 56 0 C56 2.64 56 5.28 56 8 C48.08 8 40.16 8 32 8 C32 10.64 32 13.28 32 16 C29.36 16 26.72 16 24 16 C24 13.36 24 10.72 24 8 C16.08 8 8.16 8 0 8 C0 5.36 0 2.72 0 0 Z " fill="#322E33" transform="translate(96,40)"/>
<path d="M0 0 C5.28 0 10.56 0 16 0 C16 15.84 16 31.68 16 48 C13.36 48 10.72 48 8 48 C8 37.44 8 26.88 8 16 C5.36 16 2.72 16 0 16 C0 10.72 0 5.44 0 0 Z " fill="#5A545C" transform="translate(200,32)"/>
<path d="M0 0 C5.28 0 10.56 0 16 0 C16 5.28 16 10.56 16 16 C13.36 16 10.72 16 8 16 C8 26.56 8 37.12 8 48 C5.36 48 2.72 48 0 48 C0 32.16 0 16.32 0 0 Z " fill="#5A545C" transform="translate(32,32)"/>
<path d="M0 0 C7.92 0 15.84 0 24 0 C24 2.64 24 5.28 24 8 C21.36 8 18.72 8 16 8 C16 13.28 16 18.56 16 24 C10.72 24 5.44 24 0 24 C0 16.08 0 8.16 0 0 Z " fill="#5A545C" transform="translate(128,48)"/>
<path d="M0 0 C7.92 0 15.84 0 24 0 C24 7.92 24 15.84 24 24 C18.72 24 13.44 24 8 24 C8 18.72 8 13.44 8 8 C5.36 8 2.72 8 0 8 C0 5.36 0 2.72 0 0 Z " fill="#5A545C" transform="translate(96,48)"/>
<path d="M0 0 C7.92 0 15.84 0 24 0 C24 7.92 24 15.84 24 24 C21.36 24 18.72 24 16 24 C16 18.72 16 13.44 16 8 C13.36 8 10.72 8 8 8 C8 10.64 8 13.28 8 16 C5.36 16 2.72 16 0 16 C0 10.72 0 5.44 0 0 Z " fill="#323C39" transform="translate(176,112)"/>
<path d="M0 0 C7.92 0 15.84 0 24 0 C24 5.28 24 10.56 24 16 C21.36 16 18.72 16 16 16 C16 13.36 16 10.72 16 8 C13.36 8 10.72 8 8 8 C8 13.28 8 18.56 8 24 C5.36 24 2.72 24 0 24 C0 16.08 0 8.16 0 0 Z " fill="#323C39" transform="translate(48,112)"/>
<path d="M0 0 C2.64 0 5.28 0 8 0 C8 7.92 8 15.84 8 24 C0.08 24 -7.84 24 -16 24 C-16 21.36 -16 18.72 -16 16 C-13.36 16 -10.72 16 -8 16 C-8 13.36 -8 10.72 -8 8 C-5.36 8 -2.72 8 0 8 C0 5.36 0 2.72 0 0 Z " fill="#EBB1D8" transform="translate(200,48)"/>
<path d="M0 0 C2.64 0 5.28 0 8 0 C8 2.64 8 5.28 8 8 C10.64 8 13.28 8 16 8 C16 10.64 16 13.28 16 16 C18.64 16 21.28 16 24 16 C24 18.64 24 21.28 24 24 C16.08 24 8.16 24 0 24 C0 16.08 0 8.16 0 0 Z " fill="#EBB1D8" transform="translate(40,48)"/>
<path d="M0 0 C2.64 0 5.28 0 8 0 C8 7.92 8 15.84 8 24 C2.72 24 -2.56 24 -8 24 C-8 18.72 -8 13.44 -8 8 C-5.36 8 -2.72 8 0 8 C0 5.36 0 2.72 0 0 Z " fill="#C2C2C2" transform="translate(208,192)"/>
<path d="M0 0 C2.64 0 5.28 0 8 0 C8 2.64 8 5.28 8 8 C10.64 8 13.28 8 16 8 C16 13.28 16 18.56 16 24 C10.72 24 5.44 24 0 24 C0 16.08 0 8.16 0 0 Z " fill="#C2C2C2" transform="translate(32,192)"/>
<path d="M0 0 C2.64 0 5.28 0 8 0 C8 2.64 8 5.28 8 8 C10.64 8 13.28 8 16 8 C16 10.64 16 13.28 16 16 C10.72 16 5.44 16 0 16 C0 18.64 0 21.28 0 24 C-2.64 24 -5.28 24 -8 24 C-8 18.72 -8 13.44 -8 8 C-5.36 8 -2.72 8 0 8 C0 5.36 0 2.72 0 0 Z " fill="#C2C2C2" transform="translate(72,144)"/>
<path d="M0 0 C2.64 0 5.28 0 8 0 C8 5.28 8 10.56 8 16 C13.28 16 18.56 16 24 16 C24 18.64 24 21.28 24 24 C16.08 24 8.16 24 0 24 C0 16.08 0 8.16 0 0 Z " fill="#6ABE30" transform="translate(160,128)"/>
<path d="M0 0 C10.56 0 21.12 0 32 0 C32 2.64 32 5.28 32 8 C21.44 8 10.88 8 0 8 C0 5.36 0 2.72 0 0 Z " fill="#322E33" transform="translate(168,216)"/>
<path d="M0 0 C10.56 0 21.12 0 32 0 C32 2.64 32 5.28 32 8 C21.44 8 10.88 8 0 8 C0 5.36 0 2.72 0 0 Z " fill="#322E33" transform="translate(48,216)"/>
<path d="M0 0 C10.56 0 21.12 0 32 0 C32 2.64 32 5.28 32 8 C21.44 8 10.88 8 0 8 C0 5.36 0 2.72 0 0 Z " fill="#C2C2C2" transform="translate(168,208)"/>
<path d="M0 0 C10.56 0 21.12 0 32 0 C32 2.64 32 5.28 32 8 C21.44 8 10.88 8 0 8 C0 5.36 0 2.72 0 0 Z " fill="#C2C2C2" transform="translate(48,208)"/>
<path d="M0 0 C2.64 0 5.28 0 8 0 C8 5.28 8 10.56 8 16 C0.08 16 -7.84 16 -16 16 C-16 13.36 -16 10.72 -16 8 C-10.72 8 -5.44 8 0 8 C0 5.36 0 2.72 0 0 Z " fill="#E0E0E0" transform="translate(152,176)"/>
<path d="M0 0 C2.64 0 5.28 0 8 0 C8 2.64 8 5.28 8 8 C13.28 8 18.56 8 24 8 C24 10.64 24 13.28 24 16 C16.08 16 8.16 16 0 16 C0 10.72 0 5.44 0 0 Z " fill="#464147" transform="translate(88,176)"/>
<path d="M0 0 C2.64 0 5.28 0 8 0 C8 2.64 8 5.28 8 8 C10.64 8 13.28 8 16 8 C16 10.64 16 13.28 16 16 C8.08 16 0.16 16 -8 16 C-8 13.36 -8 10.72 -8 8 C-5.36 8 -2.72 8 0 8 C0 5.36 0 2.72 0 0 Z " fill="#464147" transform="translate(120,168)"/>
<path d="M0 0 C7.92 0 15.84 0 24 0 C24 5.28 24 10.56 24 16 C21.36 16 18.72 16 16 16 C16 13.36 16 10.72 16 8 C10.72 8 5.44 8 0 8 C0 5.36 0 2.72 0 0 Z " fill="#C2C2C2" transform="translate(160,152)"/>
<path d="M0 0 C2.64 0 5.28 0 8 0 C8 10.56 8 21.12 8 32 C5.36 32 2.72 32 0 32 C0 21.44 0 10.88 0 0 Z " fill="#A095A3" transform="translate(216,112)"/>
<path d="M0 0 C2.64 0 5.28 0 8 0 C8 10.56 8 21.12 8 32 C5.36 32 2.72 32 0 32 C0 21.44 0 10.88 0 0 Z " fill="#A095A3" transform="translate(24,112)"/>
<path d="M0 0 C10.56 0 21.12 0 32 0 C32 2.64 32 5.28 32 8 C21.44 8 10.88 8 0 8 C0 5.36 0 2.72 0 0 Z " fill="#A095A3" transform="translate(168,96)"/>
<path d="M0 0 C10.56 0 21.12 0 32 0 C32 2.64 32 5.28 32 8 C21.44 8 10.88 8 0 8 C0 5.36 0 2.72 0 0 Z " fill="#A095A3" transform="translate(48,96)"/>
<path d="M0 0 C2.64 0 5.28 0 8 0 C8 10.56 8 21.12 8 32 C5.36 32 2.72 32 0 32 C0 21.44 0 10.88 0 0 Z " fill="#464147" transform="translate(136,72)"/>
<path d="M0 0 C2.64 0 5.28 0 8 0 C8 10.56 8 21.12 8 32 C5.36 32 2.72 32 0 32 C0 21.44 0 10.88 0 0 Z " fill="#C2C2C2" transform="translate(128,72)"/>
<path d="M0 0 C2.64 0 5.28 0 8 0 C8 10.56 8 21.12 8 32 C5.36 32 2.72 32 0 32 C0 21.44 0 10.88 0 0 Z " fill="#C2C2C2" transform="translate(112,72)"/>
<path d="M0 0 C2.64 0 5.28 0 8 0 C8 10.56 8 21.12 8 32 C5.36 32 2.72 32 0 32 C0 21.44 0 10.88 0 0 Z " fill="#464147" transform="translate(104,72)"/>
<path d="M0 0 C2.64 0 5.28 0 8 0 C8 10.56 8 21.12 8 32 C5.36 32 2.72 32 0 32 C0 21.44 0 10.88 0 0 Z " fill="#5A545C" transform="translate(96,72)"/>
<path d="M0 0 C7.92 0 15.84 0 24 0 C24 2.64 24 5.28 24 8 C16.08 8 8.16 8 0 8 C0 5.36 0 2.72 0 0 Z " fill="#E0E0E0" transform="translate(112,184)"/>
<path d="M0 0 C7.92 0 15.84 0 24 0 C24 2.64 24 5.28 24 8 C16.08 8 8.16 8 0 8 C0 5.36 0 2.72 0 0 Z " fill="#EBB1D8" transform="translate(112,144)"/>
<path d="M0 0 C2.64 0 5.28 0 8 0 C8 7.92 8 15.84 8 24 C5.36 24 2.72 24 0 24 C0 16.08 0 8.16 0 0 Z " fill="#6ABE30" transform="translate(80,128)"/>
<path d="M0 0 C2.64 0 5.28 0 8 0 C8 7.92 8 15.84 8 24 C5.36 24 2.72 24 0 24 C0 16.08 0 8.16 0 0 Z " fill="#464147" transform="translate(144,104)"/>
<path d="M0 0 C2.64 0 5.28 0 8 0 C8 7.92 8 15.84 8 24 C5.36 24 2.72 24 0 24 C0 16.08 0 8.16 0 0 Z " fill="#C2C2C2" transform="translate(136,104)"/>
<path d="M0 0 C2.64 0 5.28 0 8 0 C8 7.92 8 15.84 8 24 C5.36 24 2.72 24 0 24 C0 16.08 0 8.16 0 0 Z " fill="#C2C2C2" transform="translate(104,104)"/>
<path d="M0 0 C2.64 0 5.28 0 8 0 C8 7.92 8 15.84 8 24 C5.36 24 2.72 24 0 24 C0 16.08 0 8.16 0 0 Z " fill="#322E33" transform="translate(232,88)"/>
<path d="M0 0 C2.64 0 5.28 0 8 0 C8 7.92 8 15.84 8 24 C5.36 24 2.72 24 0 24 C0 16.08 0 8.16 0 0 Z " fill="#5A545C" transform="translate(224,88)"/>
<path d="M0 0 C2.64 0 5.28 0 8 0 C8 7.92 8 15.84 8 24 C5.36 24 2.72 24 0 24 C0 16.08 0 8.16 0 0 Z " fill="#5A545C" transform="translate(16,88)"/>
<path d="M0 0 C2.64 0 5.28 0 8 0 C8 7.92 8 15.84 8 24 C5.36 24 2.72 24 0 24 C0 16.08 0 8.16 0 0 Z " fill="#322E33" transform="translate(8,88)"/>
<path d="M0 0 C7.92 0 15.84 0 24 0 C24 2.64 24 5.28 24 8 C16.08 8 8.16 8 0 8 C0 5.36 0 2.72 0 0 Z " fill="#322E33" transform="translate(152,48)"/>
<path d="M0 0 C7.92 0 15.84 0 24 0 C24 2.64 24 5.28 24 8 C16.08 8 8.16 8 0 8 C0 5.36 0 2.72 0 0 Z " fill="#322E33" transform="translate(72,48)"/>
<path d="M0 0 C5.28 0 10.56 0 16 0 C16 2.64 16 5.28 16 8 C10.72 8 5.44 8 0 8 C0 5.36 0 2.72 0 0 Z " fill="#322E33" transform="translate(200,208)"/>
<path d="M0 0 C5.28 0 10.56 0 16 0 C16 2.64 16 5.28 16 8 C10.72 8 5.44 8 0 8 C0 5.36 0 2.72 0 0 Z " fill="#322E33" transform="translate(32,208)"/>
<path d="M0 0 C5.28 0 10.56 0 16 0 C16 2.64 16 5.28 16 8 C10.72 8 5.44 8 0 8 C0 5.36 0 2.72 0 0 Z " fill="#E0E0E0" transform="translate(136,192)"/>
<path d="M0 0 C5.28 0 10.56 0 16 0 C16 2.64 16 5.28 16 8 C10.72 8 5.44 8 0 8 C0 5.36 0 2.72 0 0 Z " fill="#E0E0E0" transform="translate(96,192)"/>
<path d="M0 0 C5.28 0 10.56 0 16 0 C16 2.64 16 5.28 16 8 C10.72 8 5.44 8 0 8 C0 5.36 0 2.72 0 0 Z " fill="#464147" transform="translate(136,184)"/>
<path d="M0 0 C2.64 0 5.28 0 8 0 C8 5.28 8 10.56 8 16 C5.36 16 2.72 16 0 16 C0 10.72 0 5.44 0 0 Z " fill="#E0E0E0" transform="translate(88,176)"/>
<path d="M0 0 C2.64 0 5.28 0 8 0 C8 5.28 8 10.56 8 16 C5.36 16 2.72 16 0 16 C0 10.72 0 5.44 0 0 Z " fill="#C2C2C2" transform="translate(216,176)"/>
<path d="M0 0 C5.28 0 10.56 0 16 0 C16 2.64 16 5.28 16 8 C10.72 8 5.44 8 0 8 C0 5.36 0 2.72 0 0 Z " fill="#C2C2C2" transform="translate(192,176)"/>
<path d="M0 0 C5.28 0 10.56 0 16 0 C16 2.64 16 5.28 16 8 C10.72 8 5.44 8 0 8 C0 5.36 0 2.72 0 0 Z " fill="#C2C2C2" transform="translate(40,176)"/>
<path d="M0 0 C2.64 0 5.28 0 8 0 C8 5.28 8 10.56 8 16 C5.36 16 2.72 16 0 16 C0 10.72 0 5.44 0 0 Z " fill="#C2C2C2" transform="translate(24,176)"/>
<path d="M0 0 C5.28 0 10.56 0 16 0 C16 2.64 16 5.28 16 8 C10.72 8 5.44 8 0 8 C0 5.36 0 2.72 0 0 Z " fill="#5A545C" transform="translate(200,152)"/>
<path d="M0 0 C5.28 0 10.56 0 16 0 C16 2.64 16 5.28 16 8 C10.72 8 5.44 8 0 8 C0 5.36 0 2.72 0 0 Z " fill="#5A545C" transform="translate(32,152)"/>
<path d="M0 0 C5.28 0 10.56 0 16 0 C16 2.64 16 5.28 16 8 C10.72 8 5.44 8 0 8 C0 5.36 0 2.72 0 0 Z " fill="#A095A3" transform="translate(200,144)"/>
<path d="M0 0 C5.28 0 10.56 0 16 0 C16 2.64 16 5.28 16 8 C10.72 8 5.44 8 0 8 C0 5.36 0 2.72 0 0 Z " fill="#6ABE30" transform="translate(168,144)"/>
<path d="M0 0 C5.28 0 10.56 0 16 0 C16 2.64 16 5.28 16 8 C10.72 8 5.44 8 0 8 C0 5.36 0 2.72 0 0 Z " fill="#A095A3" transform="translate(32,144)"/>
<path d="M0 0 C2.64 0 5.28 0 8 0 C8 5.28 8 10.56 8 16 C5.36 16 2.72 16 0 16 C0 10.72 0 5.44 0 0 Z " fill="#6ABE30" transform="translate(208,120)"/>
<path d="M0 0 C2.64 0 5.28 0 8 0 C8 5.28 8 10.56 8 16 C5.36 16 2.72 16 0 16 C0 10.72 0 5.44 0 0 Z " fill="#464147" transform="translate(152,128)"/>
<path d="M0 0 C2.64 0 5.28 0 8 0 C8 5.28 8 10.56 8 16 C5.36 16 2.72 16 0 16 C0 10.72 0 5.44 0 0 Z " fill="#C2C2C2" transform="translate(144,128)"/>
<path d="M0 0 C2.64 0 5.28 0 8 0 C8 5.28 8 10.56 8 16 C5.36 16 2.72 16 0 16 C0 10.72 0 5.44 0 0 Z " fill="#C2C2C2" transform="translate(96,128)"/>
<path d="M0 0 C2.64 0 5.28 0 8 0 C8 5.28 8 10.56 8 16 C5.36 16 2.72 16 0 16 C0 10.72 0 5.44 0 0 Z " fill="#464147" transform="translate(88,128)"/>
<path d="M0 0 C2.64 0 5.28 0 8 0 C8 5.28 8 10.56 8 16 C5.36 16 2.72 16 0 16 C0 10.72 0 5.44 0 0 Z " fill="#6ABE30" transform="translate(32,120)"/>
<path d="M0 0 C2.64 0 5.28 0 8 0 C8 5.28 8 10.56 8 16 C5.36 16 2.72 16 0 16 C0 10.72 0 5.44 0 0 Z " fill="#A095A3" transform="translate(152,112)"/>
<path d="M0 0 C2.64 0 5.28 0 8 0 C8 5.28 8 10.56 8 16 C5.36 16 2.72 16 0 16 C0 10.72 0 5.44 0 0 Z " fill="#A095A3" transform="translate(88,112)"/>
<path d="M0 0 C5.28 0 10.56 0 16 0 C16 2.64 16 5.28 16 8 C10.72 8 5.44 8 0 8 C0 5.36 0 2.72 0 0 Z " fill="#A095A3" transform="translate(200,104)"/>
<path d="M0 0 C5.28 0 10.56 0 16 0 C16 2.64 16 5.28 16 8 C10.72 8 5.44 8 0 8 C0 5.36 0 2.72 0 0 Z " fill="#A095A3" transform="translate(32,104)"/>
<path d="M0 0 C2.64 0 5.28 0 8 0 C8 5.28 8 10.56 8 16 C5.36 16 2.72 16 0 16 C0 10.72 0 5.44 0 0 Z " fill="#322E33" transform="translate(160,64)"/>
<path d="M0 0 C2.64 0 5.28 0 8 0 C8 5.28 8 10.56 8 16 C5.36 16 2.72 16 0 16 C0 10.72 0 5.44 0 0 Z " fill="#322E33" transform="translate(80,64)"/>
<path d="M0 0 C2.64 0 5.28 0 8 0 C8 5.28 8 10.56 8 16 C5.36 16 2.72 16 0 16 C0 10.72 0 5.44 0 0 Z " fill="#464147" transform="translate(128,56)"/>
<path d="M0 0 C2.64 0 5.28 0 8 0 C8 5.28 8 10.56 8 16 C5.36 16 2.72 16 0 16 C0 10.72 0 5.44 0 0 Z " fill="#C2C2C2" transform="translate(120,56)"/>
<path d="M0 0 C2.64 0 5.28 0 8 0 C8 5.28 8 10.56 8 16 C5.36 16 2.72 16 0 16 C0 10.72 0 5.44 0 0 Z " fill="#464147" transform="translate(112,56)"/>
<path d="M0 0 C5.28 0 10.56 0 16 0 C16 2.64 16 5.28 16 8 C10.72 8 5.44 8 0 8 C0 5.36 0 2.72 0 0 Z " fill="#322E33" transform="translate(184,32)"/>
<path d="M0 0 C5.28 0 10.56 0 16 0 C16 2.64 16 5.28 16 8 C10.72 8 5.44 8 0 8 C0 5.36 0 2.72 0 0 Z " fill="#322E33" transform="translate(48,32)"/>
<path d="M0 0 C2.64 0 5.28 0 8 0 C8 2.64 8 5.28 8 8 C5.36 8 2.72 8 0 8 C0 5.36 0 2.72 0 0 Z " fill="#464147" transform="translate(152,176)"/>
<path d="M0 0 C2.64 0 5.28 0 8 0 C8 2.64 8 5.28 8 8 C5.36 8 2.72 8 0 8 C0 5.36 0 2.72 0 0 Z " fill="#464147" transform="translate(88,176)"/>
<path d="M0 0 C2.64 0 5.28 0 8 0 C8 2.64 8 5.28 8 8 C5.36 8 2.72 8 0 8 C0 5.36 0 2.72 0 0 Z " fill="#3B3D3D" transform="translate(216,168)"/>
<path d="M0 0 C2.64 0 5.28 0 8 0 C8 2.64 8 5.28 8 8 C5.36 8 2.72 8 0 8 C0 5.36 0 2.72 0 0 Z " fill="#C2C2C2" transform="translate(208,168)"/>
<path d="M0 0 C2.64 0 5.28 0 8 0 C8 2.64 8 5.28 8 8 C5.36 8 2.72 8 0 8 C0 5.36 0 2.72 0 0 Z " fill="#C2C2C2" transform="translate(184,168)"/>
<path d="M0 0 C2.64 0 5.28 0 8 0 C8 2.64 8 5.28 8 8 C5.36 8 2.72 8 0 8 C0 5.36 0 2.72 0 0 Z " fill="#C2C2C2" transform="translate(56,168)"/>
<path d="M0 0 C2.64 0 5.28 0 8 0 C8 2.64 8 5.28 8 8 C5.36 8 2.72 8 0 8 C0 5.36 0 2.72 0 0 Z " fill="#C2C2C2" transform="translate(32,168)"/>
<path d="M0 0 C2.64 0 5.28 0 8 0 C8 2.64 8 5.28 8 8 C5.36 8 2.72 8 0 8 C0 5.36 0 2.72 0 0 Z " fill="#322E33" transform="translate(24,168)"/>
<path d="M0 0 C2.64 0 5.28 0 8 0 C8 2.64 8 5.28 8 8 C5.36 8 2.72 8 0 8 C0 5.36 0 2.72 0 0 Z " fill="#5A545C" transform="translate(216,160)"/>
<path d="M0 0 C2.64 0 5.28 0 8 0 C8 2.64 8 5.28 8 8 C5.36 8 2.72 8 0 8 C0 5.36 0 2.72 0 0 Z " fill="#5A545C" transform="translate(24,160)"/>
<path d="M0 0 C2.64 0 5.28 0 8 0 C8 2.64 8 5.28 8 8 C5.36 8 2.72 8 0 8 C0 5.36 0 2.72 0 0 Z " fill="#A095A3" transform="translate(192,152)"/>
<path d="M0 0 C2.64 0 5.28 0 8 0 C8 2.64 8 5.28 8 8 C5.36 8 2.72 8 0 8 C0 5.36 0 2.72 0 0 Z " fill="#5A545C" transform="translate(184,152)"/>
<path d="M0 0 C2.64 0 5.28 0 8 0 C8 2.64 8 5.28 8 8 C5.36 8 2.72 8 0 8 C0 5.36 0 2.72 0 0 Z " fill="#D77BBA" transform="translate(104,152)"/>
<path d="M0 0 C2.64 0 5.28 0 8 0 C8 2.64 8 5.28 8 8 C5.36 8 2.72 8 0 8 C0 5.36 0 2.72 0 0 Z " fill="#5A545C" transform="translate(56,152)"/>
<path d="M0 0 C2.64 0 5.28 0 8 0 C8 2.64 8 5.28 8 8 C5.36 8 2.72 8 0 8 C0 5.36 0 2.72 0 0 Z " fill="#A095A3" transform="translate(48,152)"/>
<path d="M0 0 C2.64 0 5.28 0 8 0 C8 2.64 8 5.28 8 8 C5.36 8 2.72 8 0 8 C0 5.36 0 2.72 0 0 Z " fill="#99E550" transform="translate(168,144)"/>
<path d="M0 0 C2.64 0 5.28 0 8 0 C8 2.64 8 5.28 8 8 C5.36 8 2.72 8 0 8 C0 5.36 0 2.72 0 0 Z " fill="#464147" transform="translate(160,144)"/>
<path d="M0 0 C2.64 0 5.28 0 8 0 C8 2.64 8 5.28 8 8 C5.36 8 2.72 8 0 8 C0 5.36 0 2.72 0 0 Z " fill="#C2C2C2" transform="translate(152,144)"/>
<path d="M0 0 C2.64 0 5.28 0 8 0 C8 2.64 8 5.28 8 8 C5.36 8 2.72 8 0 8 C0 5.36 0 2.72 0 0 Z " fill="#C2C2C2" transform="translate(88,144)"/>
<path d="M0 0 C2.64 0 5.28 0 8 0 C8 2.64 8 5.28 8 8 C5.36 8 2.72 8 0 8 C0 5.36 0 2.72 0 0 Z " fill="#464147" transform="translate(80,144)"/>
<path d="M0 0 C2.64 0 5.28 0 8 0 C8 2.64 8 5.28 8 8 C5.36 8 2.72 8 0 8 C0 5.36 0 2.72 0 0 Z " fill="#99E550" transform="translate(72,144)"/>
<path d="M0 0 C2.64 0 5.28 0 8 0 C8 2.64 8 5.28 8 8 C5.36 8 2.72 8 0 8 C0 5.36 0 2.72 0 0 Z " fill="#6ABE30" transform="translate(64,144)"/>
<path d="M0 0 C2.64 0 5.28 0 8 0 C8 2.64 8 5.28 8 8 C5.36 8 2.72 8 0 8 C0 5.36 0 2.72 0 0 Z " fill="#000000" transform="translate(176,128)"/>
<path d="M0 0 C2.64 0 5.28 0 8 0 C8 2.64 8 5.28 8 8 C5.36 8 2.72 8 0 8 C0 5.36 0 2.72 0 0 Z " fill="#99E550" transform="translate(160,128)"/>
<path d="M0 0 C2.64 0 5.28 0 8 0 C8 2.64 8 5.28 8 8 C5.36 8 2.72 8 0 8 C0 5.36 0 2.72 0 0 Z " fill="#99E550" transform="translate(80,128)"/>
<path d="M0 0 C2.64 0 5.28 0 8 0 C8 2.64 8 5.28 8 8 C5.36 8 2.72 8 0 8 C0 5.36 0 2.72 0 0 Z " fill="#000000" transform="translate(64,128)"/>
<path d="M0 0 C2.64 0 5.28 0 8 0 C8 2.64 8 5.28 8 8 C5.36 8 2.72 8 0 8 C0 5.36 0 2.72 0 0 Z " fill="#99E550" transform="translate(208,120)"/>
<path d="M0 0 C2.64 0 5.28 0 8 0 C8 2.64 8 5.28 8 8 C5.36 8 2.72 8 0 8 C0 5.36 0 2.72 0 0 Z " fill="#FFFFFF" transform="translate(176,120)"/>
<path d="M0 0 C2.64 0 5.28 0 8 0 C8 2.64 8 5.28 8 8 C5.36 8 2.72 8 0 8 C0 5.36 0 2.72 0 0 Z " fill="#FFFFFF" transform="translate(64,120)"/>
<path d="M0 0 C2.64 0 5.28 0 8 0 C8 2.64 8 5.28 8 8 C5.36 8 2.72 8 0 8 C0 5.36 0 2.72 0 0 Z " fill="#99E550" transform="translate(32,120)"/>
<path d="M0 0 C2.64 0 5.28 0 8 0 C8 2.64 8 5.28 8 8 C5.36 8 2.72 8 0 8 C0 5.36 0 2.72 0 0 Z " fill="#6ABE30" transform="translate(208,112)"/>
<path d="M0 0 C2.64 0 5.28 0 8 0 C8 2.64 8 5.28 8 8 C5.36 8 2.72 8 0 8 C0 5.36 0 2.72 0 0 Z " fill="#6ABE30" transform="translate(32,112)"/>
<path d="M0 0 C2.64 0 5.28 0 8 0 C8 2.64 8 5.28 8 8 C5.36 8 2.72 8 0 8 C0 5.36 0 2.72 0 0 Z " fill="#A095A3" transform="translate(160,104)"/>
<path d="M0 0 C2.64 0 5.28 0 8 0 C8 2.64 8 5.28 8 8 C5.36 8 2.72 8 0 8 C0 5.36 0 2.72 0 0 Z " fill="#5A545C" transform="translate(152,104)"/>
<path d="M0 0 C2.64 0 5.28 0 8 0 C8 2.64 8 5.28 8 8 C5.36 8 2.72 8 0 8 C0 5.36 0 2.72 0 0 Z " fill="#5A545C" transform="translate(88,104)"/>
<path d="M0 0 C2.64 0 5.28 0 8 0 C8 2.64 8 5.28 8 8 C5.36 8 2.72 8 0 8 C0 5.36 0 2.72 0 0 Z " fill="#A095A3" transform="translate(80,104)"/>
<path d="M0 0 C2.64 0 5.28 0 8 0 C8 2.64 8 5.28 8 8 C5.36 8 2.72 8 0 8 C0 5.36 0 2.72 0 0 Z " fill="#5A545C" transform="translate(216,80)"/>
<path d="M0 0 C2.64 0 5.28 0 8 0 C8 2.64 8 5.28 8 8 C5.36 8 2.72 8 0 8 C0 5.36 0 2.72 0 0 Z " fill="#5A545C" transform="translate(176,80)"/>
<path d="M0 0 C2.64 0 5.28 0 8 0 C8 2.64 8 5.28 8 8 C5.36 8 2.72 8 0 8 C0 5.36 0 2.72 0 0 Z " fill="#322E33" transform="translate(168,80)"/>
<path d="M0 0 C2.64 0 5.28 0 8 0 C8 2.64 8 5.28 8 8 C5.36 8 2.72 8 0 8 C0 5.36 0 2.72 0 0 Z " fill="#322E33" transform="translate(72,80)"/>
<path d="M0 0 C2.64 0 5.28 0 8 0 C8 2.64 8 5.28 8 8 C5.36 8 2.72 8 0 8 C0 5.36 0 2.72 0 0 Z " fill="#5A545C" transform="translate(64,80)"/>
<path d="M0 0 C2.64 0 5.28 0 8 0 C8 2.64 8 5.28 8 8 C5.36 8 2.72 8 0 8 C0 5.36 0 2.72 0 0 Z " fill="#5A545C" transform="translate(24,80)"/>
<path d="M0 0 C2.64 0 5.28 0 8 0 C8 2.64 8 5.28 8 8 C5.36 8 2.72 8 0 8 C0 5.36 0 2.72 0 0 Z " fill="#FFFFFF" transform="translate(200,48)"/>
<path d="M0 0 C2.64 0 5.28 0 8 0 C8 2.64 8 5.28 8 8 C5.36 8 2.72 8 0 8 C0 5.36 0 2.72 0 0 Z " fill="#A095A3" transform="translate(192,48)"/>
<path d="M0 0 C2.64 0 5.28 0 8 0 C8 2.64 8 5.28 8 8 C5.36 8 2.72 8 0 8 C0 5.36 0 2.72 0 0 Z " fill="#5A545C" transform="translate(176,48)"/>
<path d="M0 0 C2.64 0 5.28 0 8 0 C8 2.64 8 5.28 8 8 C5.36 8 2.72 8 0 8 C0 5.36 0 2.72 0 0 Z " fill="#464147" transform="translate(120,48)"/>
<path d="M0 0 C2.64 0 5.28 0 8 0 C8 2.64 8 5.28 8 8 C5.36 8 2.72 8 0 8 C0 5.36 0 2.72 0 0 Z " fill="#5A545C" transform="translate(64,48)"/>
<path d="M0 0 C2.64 0 5.28 0 8 0 C8 2.64 8 5.28 8 8 C5.36 8 2.72 8 0 8 C0 5.36 0 2.72 0 0 Z " fill="#A095A3" transform="translate(48,48)"/>
<path d="M0 0 C2.64 0 5.28 0 8 0 C8 2.64 8 5.28 8 8 C5.36 8 2.72 8 0 8 C0 5.36 0 2.72 0 0 Z " fill="#FFFFFF" transform="translate(40,48)"/>
<path d="M0 0 C2.64 0 5.28 0 8 0 C8 2.64 8 5.28 8 8 C5.36 8 2.72 8 0 8 C0 5.36 0 2.72 0 0 Z " fill="#A095A3" transform="translate(200,40)"/>
<path d="M0 0 C2.64 0 5.28 0 8 0 C8 2.64 8 5.28 8 8 C5.36 8 2.72 8 0 8 C0 5.36 0 2.72 0 0 Z " fill="#322E33" transform="translate(176,40)"/>
<path d="M0 0 C2.64 0 5.28 0 8 0 C8 2.64 8 5.28 8 8 C5.36 8 2.72 8 0 8 C0 5.36 0 2.72 0 0 Z " fill="#322E33" transform="translate(64,40)"/>
<path d="M0 0 C2.64 0 5.28 0 8 0 C8 2.64 8 5.28 8 8 C5.36 8 2.72 8 0 8 C0 5.36 0 2.72 0 0 Z " fill="#A095A3" transform="translate(40,40)"/>
</svg>
