<?xml version="1.0" encoding="UTF-8"?>
<svg version="1.1" xmlns="http://www.w3.org/2000/svg" width="248" height="224">
<path d="M0 0 C23.76 0 47.52 0 72 0 C72 2.64 72 5.28 72 8 C74.64 8 77.28 8 80 8 C80 15.92 80 23.84 80 32 C93.2 32 106.4 32 120 32 C120 34.64 120 37.28 120 40 C122.64 40 125.28 40 128 40 C128 42.64 128 45.28 128 48 C130.64 48 133.28 48 136 48 C136 50.64 136 53.28 136 56 C138.64 56 141.28 56 144 56 C144 58.64 144 61.28 144 64 C146.64 64 149.28 64 152 64 C152 66.64 152 69.28 152 72 C154.64 72 157.28 72 160 72 C160 106.32 160 140.64 160 176 C157.36 176 154.72 176 152 176 C152 178.64 152 181.28 152 184 C149.36 184 146.72 184 144 184 C144 186.64 144 189.28 144 192 C141.36 192 138.72 192 136 192 C136 194.64 136 197.28 136 200 C138.64 200 141.28 200 144 200 C144 202.64 144 205.28 144 208 C141.36 208 138.72 208 136 208 C136 210.64 136 213.28 136 216 C122.8 216 109.6 216 96 216 C96 218.64 96 221.28 96 224 C56.4 224 16.8 224 -24 224 C-24 221.36 -24 218.72 -24 216 C-37.2 216 -50.4 216 -64 216 C-64 213.36 -64 210.72 -64 208 C-66.64 208 -69.28 208 -72 208 C-72 205.36 -72 202.72 -72 200 C-69.36 200 -66.72 200 -64 200 C-64 197.36 -64 194.72 -64 192 C-66.64 192 -69.28 192 -72 192 C-72 189.36 -72 186.72 -72 184 C-74.64 184 -77.28 184 -80 184 C-80 181.36 -80 178.72 -80 176 C-82.64 176 -85.28 176 -88 176 C-88 141.68 -88 107.36 -88 72 C-85.36 72 -82.72 72 -80 72 C-80 69.36 -80 66.72 -80 64 C-77.36 64 -74.72 64 -72 64 C-72 61.36 -72 58.72 -72 56 C-69.36 56 -66.72 56 -64 56 C-64 53.36 -64 50.72 -64 48 C-61.36 48 -58.72 48 -56 48 C-56 45.36 -56 42.72 -56 40 C-53.36 40 -50.72 40 -48 40 C-48 37.36 -48 34.72 -48 32 C-34.8 32 -21.6 32 -8 32 C-8 24.08 -8 16.16 -8 8 C-5.36 8 -2.72 8 0 8 C0 5.36 0 2.72 0 0 Z " fill="#492B70" transform="translate(88,0)"/>
<path d="M0 0 C23.76 0 47.52 0 72 0 C72 2.64 72 5.28 72 8 C74.64 8 77.28 8 80 8 C80 15.92 80 23.84 80 32 C93.2 32 106.4 32 120 32 C120 34.64 120 37.28 120 40 C122.64 40 125.28 40 128 40 C128 42.64 128 45.28 128 48 C130.64 48 133.28 48 136 48 C136 50.64 136 53.28 136 56 C138.64 56 141.28 56 144 56 C144 58.64 144 61.28 144 64 C146.64 64 149.28 64 152 64 C152 66.64 152 69.28 152 72 C154.64 72 157.28 72 160 72 C160 106.32 160 140.64 160 176 C154.72 176 149.44 176 144 176 C144 173.36 144 170.72 144 168 C141.36 168 138.72 168 136 168 C136 170.64 136 173.28 136 176 C133.36 176 130.72 176 128 176 C128 173.36 128 170.72 128 168 C125.36 168 122.72 168 120 168 C120 165.36 120 162.72 120 160 C122.64 160 125.28 160 128 160 C128 157.36 128 154.72 128 152 C125.36 152 122.72 152 120 152 C120 144.08 120 136.16 120 128 C122.64 128 125.28 128 128 128 C128 130.64 128 133.28 128 136 C130.64 136 133.28 136 136 136 C136 130.72 136 125.44 136 120 C138.64 120 141.28 120 144 120 C144 112.08 144 104.16 144 96 C72.72 96 1.44 96 -72 96 C-72 114.48 -72 132.96 -72 152 C-69.36 152 -66.72 152 -64 152 C-64 154.64 -64 157.28 -64 160 C-66.64 160 -69.28 160 -72 160 C-72 162.64 -72 165.28 -72 168 C-69.36 168 -66.72 168 -64 168 C-64 170.64 -64 173.28 -64 176 C-61.36 176 -58.72 176 -56 176 C-56 173.36 -56 170.72 -56 168 C-53.36 168 -50.72 168 -48 168 C-48 165.36 -48 162.72 -48 160 C-50.64 160 -53.28 160 -56 160 C-56 157.36 -56 154.72 -56 152 C-53.36 152 -50.72 152 -48 152 C-48 138.8 -48 125.6 -48 112 C-45.36 112 -42.72 112 -40 112 C-40 138.4 -40 164.8 -40 192 C-37.36 192 -34.72 192 -32 192 C-32 194.64 -32 197.28 -32 200 C-39.92 200 -47.84 200 -56 200 C-56 202.64 -56 205.28 -56 208 C-45.44 208 -34.88 208 -24 208 C-24 210.64 -24 213.28 -24 216 C-37.2 216 -50.4 216 -64 216 C-64 213.36 -64 210.72 -64 208 C-66.64 208 -69.28 208 -72 208 C-72 205.36 -72 202.72 -72 200 C-69.36 200 -66.72 200 -64 200 C-64 197.36 -64 194.72 -64 192 C-66.64 192 -69.28 192 -72 192 C-72 189.36 -72 186.72 -72 184 C-74.64 184 -77.28 184 -80 184 C-80 181.36 -80 178.72 -80 176 C-82.64 176 -85.28 176 -88 176 C-88 141.68 -88 107.36 -88 72 C-85.36 72 -82.72 72 -80 72 C-80 69.36 -80 66.72 -80 64 C-77.36 64 -74.72 64 -72 64 C-72 61.36 -72 58.72 -72 56 C-69.36 56 -66.72 56 -64 56 C-64 53.36 -64 50.72 -64 48 C-61.36 48 -58.72 48 -56 48 C-56 45.36 -56 42.72 -56 40 C-53.36 40 -50.72 40 -48 40 C-48 37.36 -48 34.72 -48 32 C-34.8 32 -21.6 32 -8 32 C-8 24.08 -8 16.16 -8 8 C-5.36 8 -2.72 8 0 8 C0 5.36 0 2.72 0 0 Z " fill="#492B70" transform="translate(88,0)"/>
<path d="M0 0 C2.64 0 5.28 0 8 0 C8 2.64 8 5.28 8 8 C84.56 8 161.12 8 240 8 C240 5.36 240 2.72 240 0 C242.64 0 245.28 0 248 0 C248 34.32 248 68.64 248 104 C242.72 104 237.44 104 232 104 C232 101.36 232 98.72 232 96 C229.36 96 226.72 96 224 96 C224 98.64 224 101.28 224 104 C221.36 104 218.72 104 216 104 C216 101.36 216 98.72 216 96 C213.36 96 210.72 96 208 96 C208 93.36 208 90.72 208 88 C210.64 88 213.28 88 216 88 C216 85.36 216 82.72 216 80 C213.36 80 210.72 80 208 80 C208 72.08 208 64.16 208 56 C210.64 56 213.28 56 216 56 C216 58.64 216 61.28 216 64 C218.64 64 221.28 64 224 64 C224 58.72 224 53.44 224 48 C226.64 48 229.28 48 232 48 C232 40.08 232 32.16 232 24 C160.72 24 89.44 24 16 24 C16 42.48 16 60.96 16 80 C18.64 80 21.28 80 24 80 C24 82.64 24 85.28 24 88 C21.36 88 18.72 88 16 88 C16 90.64 16 93.28 16 96 C18.64 96 21.28 96 24 96 C24 98.64 24 101.28 24 104 C26.64 104 29.28 104 32 104 C32 101.36 32 98.72 32 96 C34.64 96 37.28 96 40 96 C40 93.36 40 90.72 40 88 C37.36 88 34.72 88 32 88 C32 85.36 32 82.72 32 80 C34.64 80 37.28 80 40 80 C40 66.8 40 53.6 40 40 C42.64 40 45.28 40 48 40 C48 66.4 48 92.8 48 120 C50.64 120 53.28 120 56 120 C56 122.64 56 125.28 56 128 C48.08 128 40.16 128 32 128 C32 130.64 32 133.28 32 136 C42.56 136 53.12 136 64 136 C64 138.64 64 141.28 64 144 C50.8 144 37.6 144 24 144 C24 141.36 24 138.72 24 136 C21.36 136 18.72 136 16 136 C16 133.36 16 130.72 16 128 C18.64 128 21.28 128 24 128 C24 125.36 24 122.72 24 120 C21.36 120 18.72 120 16 120 C16 117.36 16 114.72 16 112 C13.36 112 10.72 112 8 112 C8 109.36 8 106.72 8 104 C5.36 104 2.72 104 0 104 C0 69.68 0 35.36 0 0 Z " fill="#664099" transform="translate(0,72)"/>
<path d="M0 0 C7.92 0 15.84 0 24 0 C24 2.64 24 5.28 24 8 C26.64 8 29.28 8 32 8 C32 5.36 32 2.72 32 0 C55.76 0 79.52 0 104 0 C104 2.64 104 5.28 104 8 C106.64 8 109.28 8 112 8 C112 13.28 112 18.56 112 24 C114.64 24 117.28 24 120 24 C120 29.28 120 34.56 120 40 C122.64 40 125.28 40 128 40 C128 45.28 128 50.56 128 56 C88.4 56 48.8 56 8 56 C8 50.72 8 45.44 8 40 C-2.56 40 -13.12 40 -24 40 C-24 37.36 -24 34.72 -24 32 C-16.08 32 -8.16 32 0 32 C0 29.36 0 26.72 0 24 C-2.64 24 -5.28 24 -8 24 C-8 18.72 -8 13.44 -8 8 C-5.36 8 -2.72 8 0 8 C0 5.36 0 2.72 0 0 Z " fill="#FFFFFF" transform="translate(56,168)"/>
<path d="M0 0 C7.92 0 15.84 0 24 0 C24 2.64 24 5.28 24 8 C21.36 8 18.72 8 16 8 C16 10.64 16 13.28 16 16 C13.36 16 10.72 16 8 16 C8 18.64 8 21.28 8 24 C13.28 24 18.56 24 24 24 C24 26.64 24 29.28 24 32 C58.32 32 92.64 32 128 32 C128 29.36 128 26.72 128 24 C133.28 24 138.56 24 144 24 C144 21.36 144 18.72 144 16 C141.36 16 138.72 16 136 16 C136 13.36 136 10.72 136 8 C133.36 8 130.72 8 128 8 C128 5.36 128 2.72 128 0 C141.2 0 154.4 0 168 0 C168 2.64 168 5.28 168 8 C170.64 8 173.28 8 176 8 C176 10.64 176 13.28 176 16 C178.64 16 181.28 16 184 16 C184 18.64 184 21.28 184 24 C186.64 24 189.28 24 192 24 C192 29.28 192 34.56 192 40 C115.44 40 38.88 40 -40 40 C-40 34.72 -40 29.44 -40 24 C-32.08 24 -24.16 24 -16 24 C-16 21.36 -16 18.72 -16 16 C-13.36 16 -10.72 16 -8 16 C-8 13.36 -8 10.72 -8 8 C-5.36 8 -2.72 8 0 8 C0 5.36 0 2.72 0 0 Z " fill="#664099" transform="translate(48,40)"/>
<path d="M0 0 C23.76 0 47.52 0 72 0 C72 18.48 72 36.96 72 56 C48.24 56 24.48 56 0 56 C0 37.52 0 19.04 0 0 Z " fill="#CCCCCC" transform="translate(88,0)"/>
<path d="M0 0 C71.28 0 142.56 0 216 0 C216 7.92 216 15.84 216 24 C213.36 24 210.72 24 208 24 C208 21.36 208 18.72 208 16 C205.36 16 202.72 16 200 16 C200 18.64 200 21.28 200 24 C197.36 24 194.72 24 192 24 C192 21.36 192 18.72 192 16 C189.36 16 186.72 16 184 16 C184 13.36 184 10.72 184 8 C133.84 8 83.68 8 32 8 C32 10.64 32 13.28 32 16 C29.36 16 26.72 16 24 16 C24 29.2 24 42.4 24 56 C21.36 56 18.72 56 16 56 C16 58.64 16 61.28 16 64 C18.64 64 21.28 64 24 64 C24 66.64 24 69.28 24 72 C21.36 72 18.72 72 16 72 C16 74.64 16 77.28 16 80 C13.36 80 10.72 80 8 80 C8 77.36 8 74.72 8 72 C5.36 72 2.72 72 0 72 C0 69.36 0 66.72 0 64 C2.64 64 5.28 64 8 64 C8 61.36 8 58.72 8 56 C5.36 56 2.72 56 0 56 C0 37.52 0 19.04 0 0 Z " fill="#8B6AB8" transform="translate(16,96)"/>
<path d="M0 0 C44.88 0 89.76 0 136 0 C136 13.2 136 26.4 136 40 C133.36 40 130.72 40 128 40 C128 34.72 128 29.44 128 24 C88.4 24 48.8 24 8 24 C8 29.28 8 34.56 8 40 C5.36 40 2.72 40 0 40 C0 26.8 0 13.6 0 0 Z " fill="#CCCCCC" transform="translate(56,120)"/>
<path d="M0 0 C2.64 0 5.28 0 8 0 C8 2.64 8 5.28 8 8 C84.56 8 161.12 8 240 8 C240 5.36 240 2.72 240 0 C242.64 0 245.28 0 248 0 C248 34.32 248 68.64 248 104 C245.36 104 242.72 104 240 104 C240 74.96 240 45.92 240 16 C163.44 16 86.88 16 8 16 C8 45.04 8 74.08 8 104 C5.36 104 2.72 104 0 104 C0 69.68 0 35.36 0 0 Z " fill="#492B70" transform="translate(0,72)"/>
<path d="M0 0 C5.28 0 10.56 0 16 0 C16 2.64 16 5.28 16 8 C18.64 8 21.28 8 24 8 C24 10.64 24 13.28 24 16 C34.56 16 45.12 16 56 16 C56 18.64 56 21.28 56 24 C53.36 24 50.72 24 48 24 C48 26.64 48 29.28 48 32 C50.64 32 53.28 32 56 32 C56 34.64 56 37.28 56 40 C53.36 40 50.72 40 48 40 C48 42.64 48 45.28 48 48 C34.8 48 21.6 48 8 48 C8 45.36 8 42.72 8 40 C5.36 40 2.72 40 0 40 C0 26.8 0 13.6 0 0 Z " fill="#5A328F" transform="translate(176,168)"/>
<path d="M0 0 C21.12 0 42.24 0 64 0 C64 13.2 64 26.4 64 40 C53.44 40 42.88 40 32 40 C32 37.36 32 34.72 32 32 C34.64 32 37.28 32 40 32 C40 29.36 40 26.72 40 24 C42.64 24 45.28 24 48 24 C48 18.72 48 13.44 48 8 C42.72 8 37.44 8 32 8 C32 10.64 32 13.28 32 16 C29.36 16 26.72 16 24 16 C24 13.36 24 10.72 24 8 C18.72 8 13.44 8 8 8 C8 13.28 8 18.56 8 24 C10.64 24 13.28 24 16 24 C16 26.64 16 29.28 16 32 C18.64 32 21.28 32 24 32 C24 34.64 24 37.28 24 40 C16.08 40 8.16 40 0 40 C0 26.8 0 13.6 0 0 Z " fill="#FFFFFF" transform="translate(96,8)"/>
<path d="M0 0 C13.2 0 26.4 0 40 0 C40 2.64 40 5.28 40 8 C42.64 8 45.28 8 48 8 C48 10.64 48 13.28 48 16 C50.64 16 53.28 16 56 16 C56 21.28 56 26.56 56 32 C40.16 32 24.32 32 8 32 C8 29.36 8 26.72 8 24 C10.64 24 13.28 24 16 24 C16 21.36 16 18.72 16 16 C13.36 16 10.72 16 8 16 C8 13.36 8 10.72 8 8 C5.36 8 2.72 8 0 8 C0 5.36 0 2.72 0 0 Z " fill="#DCAAFF" transform="translate(176,40)"/>
<path d="M0 0 C7.92 0 15.84 0 24 0 C24 13.2 24 26.4 24 40 C8.16 40 -7.68 40 -24 40 C-24 37.36 -24 34.72 -24 32 C-16.08 32 -8.16 32 0 32 C0 29.36 0 26.72 0 24 C-2.64 24 -5.28 24 -8 24 C-8 18.72 -8 13.44 -8 8 C-5.36 8 -2.72 8 0 8 C0 5.36 0 2.72 0 0 Z " fill="#664099" transform="translate(56,168)"/>
<path d="M0 0 C42.24 0 84.48 0 128 0 C128 13.2 128 26.4 128 40 C125.36 40 122.72 40 120 40 C120 29.44 120 18.88 120 8 C80.4 8 40.8 8 0 8 C0 5.36 0 2.72 0 0 Z " fill="#FFFFFF" transform="translate(64,120)"/>
<path d="M0 0 C2.64 0 5.28 0 8 0 C8 2.64 8 5.28 8 8 C10.64 8 13.28 8 16 8 C16 5.36 16 2.72 16 0 C18.64 0 21.28 0 24 0 C24 7.92 24 15.84 24 24 C21.36 24 18.72 24 16 24 C16 21.36 16 18.72 16 16 C13.36 16 10.72 16 8 16 C8 23.92 8 31.84 8 40 C10.64 40 13.28 40 16 40 C16 42.64 16 45.28 16 48 C13.36 48 10.72 48 8 48 C8 50.64 8 53.28 8 56 C10.64 56 13.28 56 16 56 C16 58.64 16 61.28 16 64 C18.64 64 21.28 64 24 64 C24 61.36 24 58.72 24 56 C26.64 56 29.28 56 32 56 C32 58.64 32 61.28 32 64 C34.64 64 37.28 64 40 64 C40 66.64 40 69.28 40 72 C26.8 72 13.6 72 0 72 C0 48.24 0 24.48 0 0 Z " fill="#5A328F" transform="translate(200,112)"/>
<path d="M0 0 C50.16 0 100.32 0 152 0 C152 2.64 152 5.28 152 8 C101.84 8 51.68 8 0 8 C0 5.36 0 2.72 0 0 Z " fill="#5A328F" transform="translate(48,104)"/>
<path d="M0 0 C39.6 0 79.2 0 120 0 C120 2.64 120 5.28 120 8 C80.4 8 40.8 8 0 8 C0 5.36 0 2.72 0 0 Z " fill="#492B70" transform="translate(64,216)"/>
<path d="M0 0 C39.6 0 79.2 0 120 0 C120 2.64 120 5.28 120 8 C80.4 8 40.8 8 0 8 C0 5.36 0 2.72 0 0 Z " fill="#FFFFFF" transform="translate(64,208)"/>
<path d="M0 0 C39.6 0 79.2 0 120 0 C120 2.64 120 5.28 120 8 C80.4 8 40.8 8 0 8 C0 5.36 0 2.72 0 0 Z " fill="#DDDDDD" transform="translate(64,128)"/>
<path d="M0 0 C7.92 0 15.84 0 24 0 C24 2.64 24 5.28 24 8 C21.36 8 18.72 8 16 8 C16 10.64 16 13.28 16 16 C13.36 16 10.72 16 8 16 C8 18.64 8 21.28 8 24 C10.64 24 13.28 24 16 24 C16 26.64 16 29.28 16 32 C2.8 32 -10.4 32 -24 32 C-24 29.36 -24 26.72 -24 24 C-21.36 24 -18.72 24 -16 24 C-16 21.36 -16 18.72 -16 16 C-13.36 16 -10.72 16 -8 16 C-8 13.36 -8 10.72 -8 8 C-5.36 8 -2.72 8 0 8 C0 5.36 0 2.72 0 0 Z " fill="#DCAAFF" transform="translate(48,40)"/>
<path d="M0 0 C34.32 0 68.64 0 104 0 C104 2.64 104 5.28 104 8 C69.68 8 35.36 8 0 8 C0 5.36 0 2.72 0 0 Z " fill="#664099" transform="translate(72,152)"/>
<path d="M0 0 C2.64 0 5.28 0 8 0 C8 2.64 8 5.28 8 8 C10.64 8 13.28 8 16 8 C16 5.36 16 2.72 16 0 C18.64 0 21.28 0 24 0 C24 7.92 24 15.84 24 24 C21.36 24 18.72 24 16 24 C16 26.64 16 29.28 16 32 C18.64 32 21.28 32 24 32 C24 34.64 24 37.28 24 40 C21.36 40 18.72 40 16 40 C16 42.64 16 45.28 16 48 C13.36 48 10.72 48 8 48 C8 45.36 8 42.72 8 40 C5.36 40 2.72 40 0 40 C0 37.36 0 34.72 0 32 C2.64 32 5.28 32 8 32 C8 29.36 8 26.72 8 24 C5.36 24 2.72 24 0 24 C0 16.08 0 8.16 0 0 Z " fill="#8B6AB8" transform="translate(208,128)"/>
<path d="M0 0 C5.28 0 10.56 0 16 0 C16 2.64 16 5.28 16 8 C18.64 8 21.28 8 24 8 C24 5.36 24 2.72 24 0 C29.28 0 34.56 0 40 0 C40 5.28 40 10.56 40 16 C37.36 16 34.72 16 32 16 C32 18.64 32 21.28 32 24 C29.36 24 26.72 24 24 24 C24 26.64 24 29.28 24 32 C21.36 32 18.72 32 16 32 C16 29.36 16 26.72 16 24 C13.36 24 10.72 24 8 24 C8 21.36 8 18.72 8 16 C5.36 16 2.72 16 0 16 C0 10.72 0 5.44 0 0 Z " fill="#DF6D9B" transform="translate(104,16)"/>
<path d="M0 0 C31.68 0 63.36 0 96 0 C96 2.64 96 5.28 96 8 C64.32 8 32.64 8 0 8 C0 5.36 0 2.72 0 0 Z " fill="#B2DCEF" transform="translate(80,200)"/>
<path d="M0 0 C31.68 0 63.36 0 96 0 C96 2.64 96 5.28 96 8 C64.32 8 32.64 8 0 8 C0 5.36 0 2.72 0 0 Z " fill="#FFFFFF" transform="translate(80,192)"/>
<path d="M0 0 C2.64 0 5.28 0 8 0 C8 2.64 8 5.28 8 8 C34.4 8 60.8 8 88 8 C88 10.64 88 13.28 88 16 C58.96 16 29.92 16 0 16 C0 10.72 0 5.44 0 0 Z " fill="#B2DCEF" transform="translate(80,176)"/>
<path d="M0 0 C7.92 0 15.84 0 24 0 C24 2.64 24 5.28 24 8 C21.36 8 18.72 8 16 8 C16 13.28 16 18.56 16 24 C26.56 24 37.12 24 48 24 C48 26.64 48 29.28 48 32 C34.8 32 21.6 32 8 32 C8 29.36 8 26.72 8 24 C5.36 24 2.72 24 0 24 C0 21.36 0 18.72 0 16 C2.64 16 5.28 16 8 16 C8 13.36 8 10.72 8 8 C5.36 8 2.72 8 0 8 C0 5.36 0 2.72 0 0 Z " fill="#492B70" transform="translate(16,184)"/>
<path d="M0 0 C5.28 0 10.56 0 16 0 C16 2.64 16 5.28 16 8 C18.64 8 21.28 8 24 8 C24 10.64 24 13.28 24 16 C26.64 16 29.28 16 32 16 C32 18.64 32 21.28 32 24 C21.44 24 10.88 24 0 24 C0 16.08 0 8.16 0 0 Z " fill="#5A328F" transform="translate(176,168)"/>
<path d="M0 0 C23.76 0 47.52 0 72 0 C72 2.64 72 5.28 72 8 C48.24 8 24.48 8 0 8 C0 5.36 0 2.72 0 0 Z " fill="#D7D7D7" transform="translate(88,168)"/>
<path d="M0 0 C23.76 0 47.52 0 72 0 C72 2.64 72 5.28 72 8 C48.24 8 24.48 8 0 8 C0 5.36 0 2.72 0 0 Z " fill="#492B70" transform="translate(88,0)"/>
<path d="M0 0 C7.92 0 15.84 0 24 0 C24 2.64 24 5.28 24 8 C21.36 8 18.72 8 16 8 C16 13.28 16 18.56 16 24 C5.44 24 -5.12 24 -16 24 C-16 21.36 -16 18.72 -16 16 C-8.08 16 -0.16 16 8 16 C8 13.36 8 10.72 8 8 C5.36 8 2.72 8 0 8 C0 5.36 0 2.72 0 0 Z " fill="#DCAAFF" transform="translate(48,184)"/>
<path d="M0 0 C13.2 0 26.4 0 40 0 C40 2.64 40 5.28 40 8 C42.64 8 45.28 8 48 8 C48 10.64 48 13.28 48 16 C42.72 16 37.44 16 32 16 C32 13.36 32 10.72 32 8 C21.44 8 10.88 8 0 8 C0 5.36 0 2.72 0 0 Z " fill="#FFFFFF" transform="translate(176,40)"/>
<path d="M0 0 C5.28 0 10.56 0 16 0 C16 2.64 16 5.28 16 8 C13.36 8 10.72 8 8 8 C8 10.64 8 13.28 8 16 C5.36 16 2.72 16 0 16 C0 18.64 0 21.28 0 24 C-5.28 24 -10.56 24 -16 24 C-16 21.36 -16 18.72 -16 16 C-13.36 16 -10.72 16 -8 16 C-8 13.36 -8 10.72 -8 8 C-5.36 8 -2.72 8 0 8 C0 5.36 0 2.72 0 0 Z " fill="#664099" transform="translate(32,40)"/>
<path d="M0 0 C13.2 0 26.4 0 40 0 C40 2.64 40 5.28 40 8 C26.8 8 13.6 8 0 8 C0 5.36 0 2.72 0 0 Z " fill="#492B70" transform="translate(184,208)"/>
<path d="M0 0 C13.2 0 26.4 0 40 0 C40 2.64 40 5.28 40 8 C26.8 8 13.6 8 0 8 C0 5.36 0 2.72 0 0 Z " fill="#DCAAFF" transform="translate(192,200)"/>
<path d="M0 0 C5.28 0 10.56 0 16 0 C16 5.28 16 10.56 16 16 C10.72 16 5.44 16 0 16 C0 10.72 0 5.44 0 0 Z " fill="#D7D7D7" transform="translate(64,192)"/>
<path d="M0 0 C7.92 0 15.84 0 24 0 C24 2.64 24 5.28 24 8 C21.36 8 18.72 8 16 8 C16 10.64 16 13.28 16 16 C13.36 16 10.72 16 8 16 C8 13.36 8 10.72 8 8 C5.36 8 2.72 8 0 8 C0 5.36 0 2.72 0 0 Z " fill="#492B70" transform="translate(208,184)"/>
<path d="M0 0 C7.92 0 15.84 0 24 0 C24 2.64 24 5.28 24 8 C21.36 8 18.72 8 16 8 C16 10.64 16 13.28 16 16 C13.36 16 10.72 16 8 16 C8 13.36 8 10.72 8 8 C5.36 8 2.72 8 0 8 C0 5.36 0 2.72 0 0 Z " fill="#5A328F" transform="translate(208,160)"/>
<path d="M0 0 C7.92 0 15.84 0 24 0 C24 2.64 24 5.28 24 8 C21.36 8 18.72 8 16 8 C16 10.64 16 13.28 16 16 C13.36 16 10.72 16 8 16 C8 13.36 8 10.72 8 8 C5.36 8 2.72 8 0 8 C0 5.36 0 2.72 0 0 Z " fill="#664099" transform="translate(16,160)"/>
<path d="M0 0 C7.92 0 15.84 0 24 0 C24 2.64 24 5.28 24 8 C16.08 8 8.16 8 0 8 C0 5.36 0 2.72 0 0 Z " fill="#DCAAFF" transform="translate(32,200)"/>
<path d="M0 0 C7.92 0 15.84 0 24 0 C24 2.64 24 5.28 24 8 C16.08 8 8.16 8 0 8 C0 5.36 0 2.72 0 0 Z " fill="#DCAAFF" transform="translate(184,184)"/>
<path d="M0 0 C2.64 0 5.28 0 8 0 C8 7.92 8 15.84 8 24 C5.36 24 2.72 24 0 24 C0 16.08 0 8.16 0 0 Z " fill="#20B562" transform="translate(216,112)"/>
<path d="M0 0 C7.92 0 15.84 0 24 0 C24 2.64 24 5.28 24 8 C16.08 8 8.16 8 0 8 C0 5.36 0 2.72 0 0 Z " fill="#FFFFFF" transform="translate(48,40)"/>
<path d="M0 0 C5.28 0 10.56 0 16 0 C16 2.64 16 5.28 16 8 C10.72 8 5.44 8 0 8 C0 5.36 0 2.72 0 0 Z " fill="#664099" transform="translate(16,200)"/>
<path d="M0 0 C2.64 0 5.28 0 8 0 C8 5.28 8 10.56 8 16 C5.36 16 2.72 16 0 16 C0 10.72 0 5.44 0 0 Z " fill="#492B70" transform="translate(176,192)"/>
<path d="M0 0 C2.64 0 5.28 0 8 0 C8 5.28 8 10.56 8 16 C5.36 16 2.72 16 0 16 C0 10.72 0 5.44 0 0 Z " fill="#492B70" transform="translate(64,192)"/>
<path d="M0 0 C2.64 0 5.28 0 8 0 C8 5.28 8 10.56 8 16 C5.36 16 2.72 16 0 16 C0 10.72 0 5.44 0 0 Z " fill="#D7D7D7" transform="translate(80,176)"/>
<path d="M0 0 C2.64 0 5.28 0 8 0 C8 5.28 8 10.56 8 16 C5.36 16 2.72 16 0 16 C0 10.72 0 5.44 0 0 Z " fill="#492B70" transform="translate(72,176)"/>
<path d="M0 0 C5.28 0 10.56 0 16 0 C16 2.64 16 5.28 16 8 C10.72 8 5.44 8 0 8 C0 5.36 0 2.72 0 0 Z " fill="#FFFFFF" transform="translate(176,168)"/>
<path d="M0 0 C5.28 0 10.56 0 16 0 C16 2.64 16 5.28 16 8 C10.72 8 5.44 8 0 8 C0 5.36 0 2.72 0 0 Z " fill="#FFFFFF" transform="translate(64,168)"/>
<path d="M0 0 C5.28 0 10.56 0 16 0 C16 2.64 16 5.28 16 8 C10.72 8 5.44 8 0 8 C0 5.36 0 2.72 0 0 Z " fill="#572D8F" transform="translate(72,152)"/>
<path d="M0 0 C2.64 0 5.28 0 8 0 C8 2.64 8 5.28 8 8 C5.36 8 2.72 8 0 8 C0 5.36 0 2.72 0 0 Z " fill="#D7D7D7" transform="translate(64,208)"/>
<path d="M0 0 C2.64 0 5.28 0 8 0 C8 2.64 8 5.28 8 8 C5.36 8 2.72 8 0 8 C0 5.36 0 2.72 0 0 Z " fill="#492B70" transform="translate(224,200)"/>
<path d="M0 0 C2.64 0 5.28 0 8 0 C8 2.64 8 5.28 8 8 C5.36 8 2.72 8 0 8 C0 5.36 0 2.72 0 0 Z " fill="#FFFFFF" transform="translate(216,200)"/>
<path d="M0 0 C2.64 0 5.28 0 8 0 C8 2.64 8 5.28 8 8 C5.36 8 2.72 8 0 8 C0 5.36 0 2.72 0 0 Z " fill="#FFFFFF" transform="translate(56,200)"/>
<path d="M0 0 C2.64 0 5.28 0 8 0 C8 2.64 8 5.28 8 8 C5.36 8 2.72 8 0 8 C0 5.36 0 2.72 0 0 Z " fill="#492B70" transform="translate(16,200)"/>
<path d="M0 0 C2.64 0 5.28 0 8 0 C8 2.64 8 5.28 8 8 C5.36 8 2.72 8 0 8 C0 5.36 0 2.72 0 0 Z " fill="#FFFFFF" transform="translate(200,184)"/>
<path d="M0 0 C2.64 0 5.28 0 8 0 C8 2.64 8 5.28 8 8 C5.36 8 2.72 8 0 8 C0 5.36 0 2.72 0 0 Z " fill="#FFFFFF" transform="translate(64,184)"/>
<path d="M0 0 C2.64 0 5.28 0 8 0 C8 2.64 8 5.28 8 8 C5.36 8 2.72 8 0 8 C0 5.36 0 2.72 0 0 Z " fill="#492B70" transform="translate(232,176)"/>
<path d="M0 0 C2.64 0 5.28 0 8 0 C8 2.64 8 5.28 8 8 C5.36 8 2.72 8 0 8 C0 5.36 0 2.72 0 0 Z " fill="#492B70" transform="translate(200,176)"/>
<path d="M0 0 C2.64 0 5.28 0 8 0 C8 2.64 8 5.28 8 8 C5.36 8 2.72 8 0 8 C0 5.36 0 2.72 0 0 Z " fill="#492B70" transform="translate(40,176)"/>
<path d="M0 0 C2.64 0 5.28 0 8 0 C8 2.64 8 5.28 8 8 C5.36 8 2.72 8 0 8 C0 5.36 0 2.72 0 0 Z " fill="#492B70" transform="translate(8,176)"/>
<path d="M0 0 C2.64 0 5.28 0 8 0 C8 2.64 8 5.28 8 8 C5.36 8 2.72 8 0 8 C0 5.36 0 2.72 0 0 Z " fill="#8B6AB8" transform="translate(216,168)"/>
<path d="M0 0 C2.64 0 5.28 0 8 0 C8 2.64 8 5.28 8 8 C5.36 8 2.72 8 0 8 C0 5.36 0 2.72 0 0 Z " fill="#DCAAFF" transform="translate(176,168)"/>
<path d="M0 0 C2.64 0 5.28 0 8 0 C8 2.64 8 5.28 8 8 C5.36 8 2.72 8 0 8 C0 5.36 0 2.72 0 0 Z " fill="#5A328F" transform="translate(168,168)"/>
<path d="M0 0 C2.64 0 5.28 0 8 0 C8 2.64 8 5.28 8 8 C5.36 8 2.72 8 0 8 C0 5.36 0 2.72 0 0 Z " fill="#DCAAFF" transform="translate(64,168)"/>
<path d="M0 0 C2.64 0 5.28 0 8 0 C8 2.64 8 5.28 8 8 C5.36 8 2.72 8 0 8 C0 5.36 0 2.72 0 0 Z " fill="#8B6AB8" transform="translate(24,168)"/>
<path d="M0 0 C2.64 0 5.28 0 8 0 C8 2.64 8 5.28 8 8 C5.36 8 2.72 8 0 8 C0 5.36 0 2.72 0 0 Z " fill="#8B6AB8" transform="translate(224,160)"/>
<path d="M0 0 C2.64 0 5.28 0 8 0 C8 2.64 8 5.28 8 8 C5.36 8 2.72 8 0 8 C0 5.36 0 2.72 0 0 Z " fill="#8B6AB8" transform="translate(208,160)"/>
<path d="M0 0 C2.64 0 5.28 0 8 0 C8 2.64 8 5.28 8 8 C5.36 8 2.72 8 0 8 C0 5.36 0 2.72 0 0 Z " fill="#8B6AB8" transform="translate(32,160)"/>
<path d="M0 0 C2.64 0 5.28 0 8 0 C8 2.64 8 5.28 8 8 C5.36 8 2.72 8 0 8 C0 5.36 0 2.72 0 0 Z " fill="#8B6AB8" transform="translate(16,160)"/>
<path d="M0 0 C2.64 0 5.28 0 8 0 C8 2.64 8 5.28 8 8 C5.36 8 2.72 8 0 8 C0 5.36 0 2.72 0 0 Z " fill="#5A328F" transform="translate(224,152)"/>
<path d="M0 0 C2.64 0 5.28 0 8 0 C8 2.64 8 5.28 8 8 C5.36 8 2.72 8 0 8 C0 5.36 0 2.72 0 0 Z " fill="#8B6AB8" transform="translate(216,152)"/>
<path d="M0 0 C2.64 0 5.28 0 8 0 C8 2.64 8 5.28 8 8 C5.36 8 2.72 8 0 8 C0 5.36 0 2.72 0 0 Z " fill="#5A328F" transform="translate(216,144)"/>
<path d="M0 0 C2.64 0 5.28 0 8 0 C8 2.64 8 5.28 8 8 C5.36 8 2.72 8 0 8 C0 5.36 0 2.72 0 0 Z " fill="#664099" transform="translate(24,144)"/>
<path d="M0 0 C2.64 0 5.28 0 8 0 C8 2.64 8 5.28 8 8 C5.36 8 2.72 8 0 8 C0 5.36 0 2.72 0 0 Z " fill="#492B70" transform="translate(216,128)"/>
<path d="M0 0 C2.64 0 5.28 0 8 0 C8 2.64 8 5.28 8 8 C5.36 8 2.72 8 0 8 C0 5.36 0 2.72 0 0 Z " fill="#492B70" transform="translate(224,120)"/>
<path d="M0 0 C2.64 0 5.28 0 8 0 C8 2.64 8 5.28 8 8 C5.36 8 2.72 8 0 8 C0 5.36 0 2.72 0 0 Z " fill="#492B70" transform="translate(208,120)"/>
<path d="M0 0 C2.64 0 5.28 0 8 0 C8 2.64 8 5.28 8 8 C5.36 8 2.72 8 0 8 C0 5.36 0 2.72 0 0 Z " fill="#492B70" transform="translate(216,112)"/>
<path d="M0 0 C2.64 0 5.28 0 8 0 C8 2.64 8 5.28 8 8 C5.36 8 2.72 8 0 8 C0 5.36 0 2.72 0 0 Z " fill="#492B70" transform="translate(232,64)"/>
<path d="M0 0 C2.64 0 5.28 0 8 0 C8 2.64 8 5.28 8 8 C5.36 8 2.72 8 0 8 C0 5.36 0 2.72 0 0 Z " fill="#FFFFFF" transform="translate(224,64)"/>
<path d="M0 0 C2.64 0 5.28 0 8 0 C8 2.64 8 5.28 8 8 C5.36 8 2.72 8 0 8 C0 5.36 0 2.72 0 0 Z " fill="#492B70" transform="translate(8,64)"/>
<path d="M0 0 C2.64 0 5.28 0 8 0 C8 2.64 8 5.28 8 8 C5.36 8 2.72 8 0 8 C0 5.36 0 2.72 0 0 Z " fill="#492B70" transform="translate(224,56)"/>
<path d="M0 0 C2.64 0 5.28 0 8 0 C8 2.64 8 5.28 8 8 C5.36 8 2.72 8 0 8 C0 5.36 0 2.72 0 0 Z " fill="#FFFFFF" transform="translate(216,56)"/>
<path d="M0 0 C2.64 0 5.28 0 8 0 C8 2.64 8 5.28 8 8 C5.36 8 2.72 8 0 8 C0 5.36 0 2.72 0 0 Z " fill="#664099" transform="translate(184,56)"/>
<path d="M0 0 C2.64 0 5.28 0 8 0 C8 2.64 8 5.28 8 8 C5.36 8 2.72 8 0 8 C0 5.36 0 2.72 0 0 Z " fill="#664099" transform="translate(56,56)"/>
<path d="M0 0 C2.64 0 5.28 0 8 0 C8 2.64 8 5.28 8 8 C5.36 8 2.72 8 0 8 C0 5.36 0 2.72 0 0 Z " fill="#492B70" transform="translate(16,56)"/>
<path d="M0 0 C2.64 0 5.28 0 8 0 C8 2.64 8 5.28 8 8 C5.36 8 2.72 8 0 8 C0 5.36 0 2.72 0 0 Z " fill="#492B70" transform="translate(216,48)"/>
<path d="M0 0 C2.64 0 5.28 0 8 0 C8 2.64 8 5.28 8 8 C5.36 8 2.72 8 0 8 C0 5.36 0 2.72 0 0 Z " fill="#FFFFFF" transform="translate(208,48)"/>
<path d="M0 0 C2.64 0 5.28 0 8 0 C8 2.64 8 5.28 8 8 C5.36 8 2.72 8 0 8 C0 5.36 0 2.72 0 0 Z " fill="#664099" transform="translate(176,48)"/>
<path d="M0 0 C2.64 0 5.28 0 8 0 C8 2.64 8 5.28 8 8 C5.36 8 2.72 8 0 8 C0 5.36 0 2.72 0 0 Z " fill="#664099" transform="translate(64,48)"/>
<path d="M0 0 C2.64 0 5.28 0 8 0 C8 2.64 8 5.28 8 8 C5.36 8 2.72 8 0 8 C0 5.36 0 2.72 0 0 Z " fill="#492B70" transform="translate(24,48)"/>
<path d="M0 0 C2.64 0 5.28 0 8 0 C8 2.64 8 5.28 8 8 C5.36 8 2.72 8 0 8 C0 5.36 0 2.72 0 0 Z " fill="#492B70" transform="translate(208,40)"/>
<path d="M0 0 C2.64 0 5.28 0 8 0 C8 2.64 8 5.28 8 8 C5.36 8 2.72 8 0 8 C0 5.36 0 2.72 0 0 Z " fill="#664099" transform="translate(168,40)"/>
<path d="M0 0 C2.64 0 5.28 0 8 0 C8 2.64 8 5.28 8 8 C5.36 8 2.72 8 0 8 C0 5.36 0 2.72 0 0 Z " fill="#664099" transform="translate(72,40)"/>
<path d="M0 0 C2.64 0 5.28 0 8 0 C8 2.64 8 5.28 8 8 C5.36 8 2.72 8 0 8 C0 5.36 0 2.72 0 0 Z " fill="#492B70" transform="translate(32,40)"/>
<path d="M0 0 C2.64 0 5.28 0 8 0 C8 2.64 8 5.28 8 8 C5.36 8 2.72 8 0 8 C0 5.36 0 2.72 0 0 Z " fill="#F3A3C0" transform="translate(104,16)"/>
</svg>
