<?xml version="1.0" encoding="UTF-8"?>
<svg version="1.1" xmlns="http://www.w3.org/2000/svg" width="248" height="216">
<path d="M0 0 C23.76 0 47.52 0 72 0 C72 2.64 72 5.28 72 8 C74.64 8 77.28 8 80 8 C80 15.92 80 23.84 80 32 C93.2 32 106.4 32 120 32 C120 34.64 120 37.28 120 40 C122.64 40 125.28 40 128 40 C128 42.64 128 45.28 128 48 C130.64 48 133.28 48 136 48 C136 50.64 136 53.28 136 56 C138.64 56 141.28 56 144 56 C144 58.64 144 61.28 144 64 C146.64 64 149.28 64 152 64 C152 66.64 152 69.28 152 72 C154.64 72 157.28 72 160 72 C160 103.68 160 135.36 160 168 C157.36 168 154.72 168 152 168 C152 170.64 152 173.28 152 176 C149.36 176 146.72 176 144 176 C144 178.64 144 181.28 144 184 C141.36 184 138.72 184 136 184 C136 186.64 136 189.28 136 192 C138.64 192 141.28 192 144 192 C144 194.64 144 197.28 144 200 C141.36 200 138.72 200 136 200 C136 202.64 136 205.28 136 208 C122.8 208 109.6 208 96 208 C96 210.64 96 213.28 96 216 C56.4 216 16.8 216 -24 216 C-24 213.36 -24 210.72 -24 208 C-37.2 208 -50.4 208 -64 208 C-64 205.36 -64 202.72 -64 200 C-66.64 200 -69.28 200 -72 200 C-72 197.36 -72 194.72 -72 192 C-69.36 192 -66.72 192 -64 192 C-64 189.36 -64 186.72 -64 184 C-66.64 184 -69.28 184 -72 184 C-72 181.36 -72 178.72 -72 176 C-74.64 176 -77.28 176 -80 176 C-80 173.36 -80 170.72 -80 168 C-82.64 168 -85.28 168 -88 168 C-88 136.32 -88 104.64 -88 72 C-85.36 72 -82.72 72 -80 72 C-80 69.36 -80 66.72 -80 64 C-77.36 64 -74.72 64 -72 64 C-72 61.36 -72 58.72 -72 56 C-69.36 56 -66.72 56 -64 56 C-64 53.36 -64 50.72 -64 48 C-61.36 48 -58.72 48 -56 48 C-56 45.36 -56 42.72 -56 40 C-53.36 40 -50.72 40 -48 40 C-48 37.36 -48 34.72 -48 32 C-34.8 32 -21.6 32 -8 32 C-8 24.08 -8 16.16 -8 8 C-5.36 8 -2.72 8 0 8 C0 5.36 0 2.72 0 0 Z " fill="#492B70" transform="translate(88,0)"/>
<path d="M0 0 C23.76 0 47.52 0 72 0 C72 2.64 72 5.28 72 8 C74.64 8 77.28 8 80 8 C80 15.92 80 23.84 80 32 C93.2 32 106.4 32 120 32 C120 34.64 120 37.28 120 40 C122.64 40 125.28 40 128 40 C128 42.64 128 45.28 128 48 C130.64 48 133.28 48 136 48 C136 50.64 136 53.28 136 56 C138.64 56 141.28 56 144 56 C144 58.64 144 61.28 144 64 C146.64 64 149.28 64 152 64 C152 69.28 152 74.56 152 80 C75.44 80 -1.12 80 -80 80 C-80 74.72 -80 69.44 -80 64 C-77.36 64 -74.72 64 -72 64 C-72 61.36 -72 58.72 -72 56 C-69.36 56 -66.72 56 -64 56 C-64 53.36 -64 50.72 -64 48 C-61.36 48 -58.72 48 -56 48 C-56 45.36 -56 42.72 -56 40 C-53.36 40 -50.72 40 -48 40 C-48 37.36 -48 34.72 -48 32 C-34.8 32 -21.6 32 -8 32 C-8 24.08 -8 16.16 -8 8 C-5.36 8 -2.72 8 0 8 C0 5.36 0 2.72 0 0 Z " fill="#492B70" transform="translate(88,0)"/>
<path d="M0 0 C76.56 0 153.12 0 232 0 C232 23.76 232 47.52 232 72 C226.72 72 221.44 72 216 72 C216 74.64 216 77.28 216 80 C213.36 80 210.72 80 208 80 C208 77.36 208 74.72 208 72 C205.36 72 202.72 72 200 72 C200 69.36 200 66.72 200 64 C202.64 64 205.28 64 208 64 C208 61.36 208 58.72 208 56 C205.36 56 202.72 56 200 56 C200 48.08 200 40.16 200 32 C202.64 32 205.28 32 208 32 C208 34.64 208 37.28 208 40 C210.64 40 213.28 40 216 40 C216 32.08 216 24.16 216 16 C213.36 16 210.72 16 208 16 C208 18.64 208 21.28 208 24 C205.36 24 202.72 24 200 24 C200 21.36 200 18.72 200 16 C147.2 16 94.4 16 40 16 C40 42.4 40 68.8 40 96 C42.64 96 45.28 96 48 96 C48 98.64 48 101.28 48 104 C40.08 104 32.16 104 24 104 C24 106.64 24 109.28 24 112 C34.56 112 45.12 112 56 112 C56 114.64 56 117.28 56 120 C42.8 120 29.6 120 16 120 C16 117.36 16 114.72 16 112 C13.36 112 10.72 112 8 112 C8 109.36 8 106.72 8 104 C10.64 104 13.28 104 16 104 C16 101.36 16 98.72 16 96 C13.36 96 10.72 96 8 96 C8 93.36 8 90.72 8 88 C5.36 88 2.72 88 0 88 C0 58.96 0 29.92 0 0 Z " fill="#664099" transform="translate(8,88)"/>
<path d="M0 0 C7.92 0 15.84 0 24 0 C24 2.64 24 5.28 24 8 C26.64 8 29.28 8 32 8 C32 5.36 32 2.72 32 0 C55.76 0 79.52 0 104 0 C104 2.64 104 5.28 104 8 C106.64 8 109.28 8 112 8 C112 13.28 112 18.56 112 24 C114.64 24 117.28 24 120 24 C120 29.28 120 34.56 120 40 C122.64 40 125.28 40 128 40 C128 45.28 128 50.56 128 56 C88.4 56 48.8 56 8 56 C8 50.72 8 45.44 8 40 C-2.56 40 -13.12 40 -24 40 C-24 37.36 -24 34.72 -24 32 C-16.08 32 -8.16 32 0 32 C0 29.36 0 26.72 0 24 C-2.64 24 -5.28 24 -8 24 C-8 18.72 -8 13.44 -8 8 C-5.36 8 -2.72 8 0 8 C0 5.36 0 2.72 0 0 Z " fill="#FFFFFF" transform="translate(56,160)"/>
<path d="M0 0 C7.92 0 15.84 0 24 0 C24 2.64 24 5.28 24 8 C21.36 8 18.72 8 16 8 C16 10.64 16 13.28 16 16 C13.36 16 10.72 16 8 16 C8 18.64 8 21.28 8 24 C13.28 24 18.56 24 24 24 C24 26.64 24 29.28 24 32 C58.32 32 92.64 32 128 32 C128 29.36 128 26.72 128 24 C133.28 24 138.56 24 144 24 C144 21.36 144 18.72 144 16 C141.36 16 138.72 16 136 16 C136 13.36 136 10.72 136 8 C133.36 8 130.72 8 128 8 C128 5.36 128 2.72 128 0 C141.2 0 154.4 0 168 0 C168 2.64 168 5.28 168 8 C170.64 8 173.28 8 176 8 C176 10.64 176 13.28 176 16 C178.64 16 181.28 16 184 16 C184 18.64 184 21.28 184 24 C186.64 24 189.28 24 192 24 C192 29.28 192 34.56 192 40 C115.44 40 38.88 40 -40 40 C-40 34.72 -40 29.44 -40 24 C-32.08 24 -24.16 24 -16 24 C-16 21.36 -16 18.72 -16 16 C-13.36 16 -10.72 16 -8 16 C-8 13.36 -8 10.72 -8 8 C-5.36 8 -2.72 8 0 8 C0 5.36 0 2.72 0 0 Z " fill="#664099" transform="translate(48,40)"/>
<path d="M0 0 C23.76 0 47.52 0 72 0 C72 18.48 72 36.96 72 56 C48.24 56 24.48 56 0 56 C0 37.52 0 19.04 0 0 Z " fill="#CCCCCC" transform="translate(88,0)"/>
<path d="M0 0 C44.88 0 89.76 0 136 0 C136 13.2 136 26.4 136 40 C133.36 40 130.72 40 128 40 C128 34.72 128 29.44 128 24 C88.4 24 48.8 24 8 24 C8 29.28 8 34.56 8 40 C5.36 40 2.72 40 0 40 C0 26.8 0 13.6 0 0 Z " fill="#CCCCCC" transform="translate(56,112)"/>
<path d="M0 0 C2.64 0 5.28 0 8 0 C8 2.64 8 5.28 8 8 C84.56 8 161.12 8 240 8 C240 5.36 240 2.72 240 0 C242.64 0 245.28 0 248 0 C248 31.68 248 63.36 248 96 C245.36 96 242.72 96 240 96 C240 69.6 240 43.2 240 16 C163.44 16 86.88 16 8 16 C8 42.4 8 68.8 8 96 C5.36 96 2.72 96 0 96 C0 64.32 0 32.64 0 0 Z " fill="#492B70" transform="translate(0,72)"/>
<path d="M0 0 C5.28 0 10.56 0 16 0 C16 2.64 16 5.28 16 8 C18.64 8 21.28 8 24 8 C24 10.64 24 13.28 24 16 C34.56 16 45.12 16 56 16 C56 18.64 56 21.28 56 24 C53.36 24 50.72 24 48 24 C48 26.64 48 29.28 48 32 C50.64 32 53.28 32 56 32 C56 34.64 56 37.28 56 40 C53.36 40 50.72 40 48 40 C48 42.64 48 45.28 48 48 C34.8 48 21.6 48 8 48 C8 45.36 8 42.72 8 40 C5.36 40 2.72 40 0 40 C0 26.8 0 13.6 0 0 Z " fill="#5A328F" transform="translate(176,160)"/>
<path d="M0 0 C21.12 0 42.24 0 64 0 C64 13.2 64 26.4 64 40 C53.44 40 42.88 40 32 40 C32 37.36 32 34.72 32 32 C34.64 32 37.28 32 40 32 C40 29.36 40 26.72 40 24 C42.64 24 45.28 24 48 24 C48 18.72 48 13.44 48 8 C42.72 8 37.44 8 32 8 C32 10.64 32 13.28 32 16 C29.36 16 26.72 16 24 16 C24 13.36 24 10.72 24 8 C18.72 8 13.44 8 8 8 C8 13.28 8 18.56 8 24 C10.64 24 13.28 24 16 24 C16 26.64 16 29.28 16 32 C18.64 32 21.28 32 24 32 C24 34.64 24 37.28 24 40 C16.08 40 8.16 40 0 40 C0 26.8 0 13.6 0 0 Z " fill="#FFFFFF" transform="translate(96,8)"/>
<path d="M0 0 C10.56 0 21.12 0 32 0 C32 2.64 32 5.28 32 8 C29.36 8 26.72 8 24 8 C24 21.2 24 34.4 24 48 C21.36 48 18.72 48 16 48 C16 50.64 16 53.28 16 56 C18.64 56 21.28 56 24 56 C24 58.64 24 61.28 24 64 C21.36 64 18.72 64 16 64 C16 66.64 16 69.28 16 72 C13.36 72 10.72 72 8 72 C8 69.36 8 66.72 8 64 C5.36 64 2.72 64 0 64 C0 61.36 0 58.72 0 56 C2.64 56 5.28 56 8 56 C8 53.36 8 50.72 8 48 C5.36 48 2.72 48 0 48 C0 32.16 0 16.32 0 0 Z " fill="#8B6AB8" transform="translate(16,96)"/>
<path d="M0 0 C2.64 0 5.28 0 8 0 C8 2.64 8 5.28 8 8 C10.64 8 13.28 8 16 8 C16 5.36 16 2.72 16 0 C18.64 0 21.28 0 24 0 C24 7.92 24 15.84 24 24 C21.36 24 18.72 24 16 24 C16 21.36 16 18.72 16 16 C13.36 16 10.72 16 8 16 C8 23.92 8 31.84 8 40 C10.64 40 13.28 40 16 40 C16 42.64 16 45.28 16 48 C13.36 48 10.72 48 8 48 C8 50.64 8 53.28 8 56 C10.64 56 13.28 56 16 56 C16 58.64 16 61.28 16 64 C18.64 64 21.28 64 24 64 C24 61.36 24 58.72 24 56 C29.28 56 34.56 56 40 56 C40 61.28 40 66.56 40 72 C26.8 72 13.6 72 0 72 C0 48.24 0 24.48 0 0 Z " fill="#5A328F" transform="translate(200,104)"/>
<path d="M0 0 C13.2 0 26.4 0 40 0 C40 2.64 40 5.28 40 8 C42.64 8 45.28 8 48 8 C48 10.64 48 13.28 48 16 C50.64 16 53.28 16 56 16 C56 21.28 56 26.56 56 32 C40.16 32 24.32 32 8 32 C8 29.36 8 26.72 8 24 C10.64 24 13.28 24 16 24 C16 21.36 16 18.72 16 16 C13.36 16 10.72 16 8 16 C8 13.36 8 10.72 8 8 C5.36 8 2.72 8 0 8 C0 5.36 0 2.72 0 0 Z " fill="#DCAAFF" transform="translate(176,40)"/>
<path d="M0 0 C7.92 0 15.84 0 24 0 C24 13.2 24 26.4 24 40 C8.16 40 -7.68 40 -24 40 C-24 37.36 -24 34.72 -24 32 C-16.08 32 -8.16 32 0 32 C0 29.36 0 26.72 0 24 C-2.64 24 -5.28 24 -8 24 C-8 18.72 -8 13.44 -8 8 C-5.36 8 -2.72 8 0 8 C0 5.36 0 2.72 0 0 Z " fill="#664099" transform="translate(56,160)"/>
<path d="M0 0 C42.24 0 84.48 0 128 0 C128 13.2 128 26.4 128 40 C125.36 40 122.72 40 120 40 C120 29.44 120 18.88 120 8 C80.4 8 40.8 8 0 8 C0 5.36 0 2.72 0 0 Z " fill="#FFFFFF" transform="translate(64,112)"/>
<path d="M0 0 C50.16 0 100.32 0 152 0 C152 2.64 152 5.28 152 8 C101.84 8 51.68 8 0 8 C0 5.36 0 2.72 0 0 Z " fill="#5A328F" transform="translate(48,96)"/>
<path d="M0 0 C39.6 0 79.2 0 120 0 C120 2.64 120 5.28 120 8 C80.4 8 40.8 8 0 8 C0 5.36 0 2.72 0 0 Z " fill="#492B70" transform="translate(64,208)"/>
<path d="M0 0 C39.6 0 79.2 0 120 0 C120 2.64 120 5.28 120 8 C80.4 8 40.8 8 0 8 C0 5.36 0 2.72 0 0 Z " fill="#FFFFFF" transform="translate(64,200)"/>
<path d="M0 0 C39.6 0 79.2 0 120 0 C120 2.64 120 5.28 120 8 C80.4 8 40.8 8 0 8 C0 5.36 0 2.72 0 0 Z " fill="#DDDDDD" transform="translate(64,120)"/>
<path d="M0 0 C7.92 0 15.84 0 24 0 C24 2.64 24 5.28 24 8 C21.36 8 18.72 8 16 8 C16 10.64 16 13.28 16 16 C13.36 16 10.72 16 8 16 C8 18.64 8 21.28 8 24 C10.64 24 13.28 24 16 24 C16 26.64 16 29.28 16 32 C2.8 32 -10.4 32 -24 32 C-24 29.36 -24 26.72 -24 24 C-21.36 24 -18.72 24 -16 24 C-16 21.36 -16 18.72 -16 16 C-13.36 16 -10.72 16 -8 16 C-8 13.36 -8 10.72 -8 8 C-5.36 8 -2.72 8 0 8 C0 5.36 0 2.72 0 0 Z " fill="#DCAAFF" transform="translate(48,40)"/>
<path d="M0 0 C34.32 0 68.64 0 104 0 C104 2.64 104 5.28 104 8 C69.68 8 35.36 8 0 8 C0 5.36 0 2.72 0 0 Z " fill="#664099" transform="translate(72,144)"/>
<path d="M0 0 C2.64 0 5.28 0 8 0 C8 2.64 8 5.28 8 8 C10.64 8 13.28 8 16 8 C16 5.36 16 2.72 16 0 C18.64 0 21.28 0 24 0 C24 7.92 24 15.84 24 24 C21.36 24 18.72 24 16 24 C16 26.64 16 29.28 16 32 C18.64 32 21.28 32 24 32 C24 34.64 24 37.28 24 40 C21.36 40 18.72 40 16 40 C16 42.64 16 45.28 16 48 C13.36 48 10.72 48 8 48 C8 45.36 8 42.72 8 40 C5.36 40 2.72 40 0 40 C0 37.36 0 34.72 0 32 C2.64 32 5.28 32 8 32 C8 29.36 8 26.72 8 24 C5.36 24 2.72 24 0 24 C0 16.08 0 8.16 0 0 Z " fill="#8B6AB8" transform="translate(208,120)"/>
<path d="M0 0 C5.28 0 10.56 0 16 0 C16 2.64 16 5.28 16 8 C18.64 8 21.28 8 24 8 C24 5.36 24 2.72 24 0 C29.28 0 34.56 0 40 0 C40 5.28 40 10.56 40 16 C37.36 16 34.72 16 32 16 C32 18.64 32 21.28 32 24 C29.36 24 26.72 24 24 24 C24 26.64 24 29.28 24 32 C21.36 32 18.72 32 16 32 C16 29.36 16 26.72 16 24 C13.36 24 10.72 24 8 24 C8 21.36 8 18.72 8 16 C5.36 16 2.72 16 0 16 C0 10.72 0 5.44 0 0 Z " fill="#DF6D9B" transform="translate(104,16)"/>
<path d="M0 0 C31.68 0 63.36 0 96 0 C96 2.64 96 5.28 96 8 C64.32 8 32.64 8 0 8 C0 5.36 0 2.72 0 0 Z " fill="#B2DCEF" transform="translate(80,192)"/>
<path d="M0 0 C31.68 0 63.36 0 96 0 C96 2.64 96 5.28 96 8 C64.32 8 32.64 8 0 8 C0 5.36 0 2.72 0 0 Z " fill="#FFFFFF" transform="translate(80,184)"/>
<path d="M0 0 C2.64 0 5.28 0 8 0 C8 2.64 8 5.28 8 8 C34.4 8 60.8 8 88 8 C88 10.64 88 13.28 88 16 C58.96 16 29.92 16 0 16 C0 10.72 0 5.44 0 0 Z " fill="#B2DCEF" transform="translate(80,168)"/>
<path d="M0 0 C7.92 0 15.84 0 24 0 C24 2.64 24 5.28 24 8 C21.36 8 18.72 8 16 8 C16 13.28 16 18.56 16 24 C26.56 24 37.12 24 48 24 C48 26.64 48 29.28 48 32 C34.8 32 21.6 32 8 32 C8 29.36 8 26.72 8 24 C5.36 24 2.72 24 0 24 C0 21.36 0 18.72 0 16 C2.64 16 5.28 16 8 16 C8 13.36 8 10.72 8 8 C5.36 8 2.72 8 0 8 C0 5.36 0 2.72 0 0 Z " fill="#492B70" transform="translate(16,176)"/>
<path d="M0 0 C5.28 0 10.56 0 16 0 C16 2.64 16 5.28 16 8 C18.64 8 21.28 8 24 8 C24 10.64 24 13.28 24 16 C26.64 16 29.28 16 32 16 C32 18.64 32 21.28 32 24 C21.44 24 10.88 24 0 24 C0 16.08 0 8.16 0 0 Z " fill="#5A328F" transform="translate(176,160)"/>
<path d="M0 0 C23.76 0 47.52 0 72 0 C72 2.64 72 5.28 72 8 C48.24 8 24.48 8 0 8 C0 5.36 0 2.72 0 0 Z " fill="#D7D7D7" transform="translate(88,160)"/>
<path d="M0 0 C23.76 0 47.52 0 72 0 C72 2.64 72 5.28 72 8 C48.24 8 24.48 8 0 8 C0 5.36 0 2.72 0 0 Z " fill="#492B70" transform="translate(88,0)"/>
<path d="M0 0 C7.92 0 15.84 0 24 0 C24 2.64 24 5.28 24 8 C21.36 8 18.72 8 16 8 C16 13.28 16 18.56 16 24 C5.44 24 -5.12 24 -16 24 C-16 21.36 -16 18.72 -16 16 C-8.08 16 -0.16 16 8 16 C8 13.36 8 10.72 8 8 C5.36 8 2.72 8 0 8 C0 5.36 0 2.72 0 0 Z " fill="#DCAAFF" transform="translate(48,176)"/>
<path d="M0 0 C13.2 0 26.4 0 40 0 C40 2.64 40 5.28 40 8 C42.64 8 45.28 8 48 8 C48 10.64 48 13.28 48 16 C42.72 16 37.44 16 32 16 C32 13.36 32 10.72 32 8 C21.44 8 10.88 8 0 8 C0 5.36 0 2.72 0 0 Z " fill="#FFFFFF" transform="translate(176,40)"/>
<path d="M0 0 C10.56 0 21.12 0 32 0 C32 5.28 32 10.56 32 16 C29.36 16 26.72 16 24 16 C24 13.36 24 10.72 24 8 C21.36 8 18.72 8 16 8 C16 10.64 16 13.28 16 16 C13.36 16 10.72 16 8 16 C8 13.36 8 10.72 8 8 C5.36 8 2.72 8 0 8 C0 5.36 0 2.72 0 0 Z " fill="#8B6AB8" transform="translate(200,96)"/>
<path d="M0 0 C5.28 0 10.56 0 16 0 C16 2.64 16 5.28 16 8 C13.36 8 10.72 8 8 8 C8 10.64 8 13.28 8 16 C5.36 16 2.72 16 0 16 C0 18.64 0 21.28 0 24 C-5.28 24 -10.56 24 -16 24 C-16 21.36 -16 18.72 -16 16 C-13.36 16 -10.72 16 -8 16 C-8 13.36 -8 10.72 -8 8 C-5.36 8 -2.72 8 0 8 C0 5.36 0 2.72 0 0 Z " fill="#664099" transform="translate(32,40)"/>
<path d="M0 0 C13.2 0 26.4 0 40 0 C40 2.64 40 5.28 40 8 C26.8 8 13.6 8 0 8 C0 5.36 0 2.72 0 0 Z " fill="#492B70" transform="translate(184,200)"/>
<path d="M0 0 C13.2 0 26.4 0 40 0 C40 2.64 40 5.28 40 8 C26.8 8 13.6 8 0 8 C0 5.36 0 2.72 0 0 Z " fill="#DCAAFF" transform="translate(192,192)"/>
<path d="M0 0 C5.28 0 10.56 0 16 0 C16 5.28 16 10.56 16 16 C10.72 16 5.44 16 0 16 C0 10.72 0 5.44 0 0 Z " fill="#D7D7D7" transform="translate(64,184)"/>
<path d="M0 0 C7.92 0 15.84 0 24 0 C24 2.64 24 5.28 24 8 C21.36 8 18.72 8 16 8 C16 10.64 16 13.28 16 16 C13.36 16 10.72 16 8 16 C8 13.36 8 10.72 8 8 C5.36 8 2.72 8 0 8 C0 5.36 0 2.72 0 0 Z " fill="#492B70" transform="translate(208,176)"/>
<path d="M0 0 C7.92 0 15.84 0 24 0 C24 2.64 24 5.28 24 8 C21.36 8 18.72 8 16 8 C16 10.64 16 13.28 16 16 C13.36 16 10.72 16 8 16 C8 13.36 8 10.72 8 8 C5.36 8 2.72 8 0 8 C0 5.36 0 2.72 0 0 Z " fill="#5A328F" transform="translate(208,152)"/>
<path d="M0 0 C7.92 0 15.84 0 24 0 C24 2.64 24 5.28 24 8 C21.36 8 18.72 8 16 8 C16 10.64 16 13.28 16 16 C13.36 16 10.72 16 8 16 C8 13.36 8 10.72 8 8 C5.36 8 2.72 8 0 8 C0 5.36 0 2.72 0 0 Z " fill="#664099" transform="translate(16,152)"/>
<path d="M0 0 C7.92 0 15.84 0 24 0 C24 2.64 24 5.28 24 8 C16.08 8 8.16 8 0 8 C0 5.36 0 2.72 0 0 Z " fill="#DCAAFF" transform="translate(32,192)"/>
<path d="M0 0 C7.92 0 15.84 0 24 0 C24 2.64 24 5.28 24 8 C16.08 8 8.16 8 0 8 C0 5.36 0 2.72 0 0 Z " fill="#DCAAFF" transform="translate(184,176)"/>
<path d="M0 0 C2.64 0 5.28 0 8 0 C8 7.92 8 15.84 8 24 C5.36 24 2.72 24 0 24 C0 16.08 0 8.16 0 0 Z " fill="#20B562" transform="translate(216,104)"/>
<path d="M0 0 C7.92 0 15.84 0 24 0 C24 2.64 24 5.28 24 8 C16.08 8 8.16 8 0 8 C0 5.36 0 2.72 0 0 Z " fill="#FFFFFF" transform="translate(48,40)"/>
<path d="M0 0 C5.28 0 10.56 0 16 0 C16 2.64 16 5.28 16 8 C10.72 8 5.44 8 0 8 C0 5.36 0 2.72 0 0 Z " fill="#664099" transform="translate(16,192)"/>
<path d="M0 0 C2.64 0 5.28 0 8 0 C8 5.28 8 10.56 8 16 C5.36 16 2.72 16 0 16 C0 10.72 0 5.44 0 0 Z " fill="#492B70" transform="translate(176,184)"/>
<path d="M0 0 C2.64 0 5.28 0 8 0 C8 5.28 8 10.56 8 16 C5.36 16 2.72 16 0 16 C0 10.72 0 5.44 0 0 Z " fill="#492B70" transform="translate(64,184)"/>
<path d="M0 0 C2.64 0 5.28 0 8 0 C8 5.28 8 10.56 8 16 C5.36 16 2.72 16 0 16 C0 10.72 0 5.44 0 0 Z " fill="#D7D7D7" transform="translate(80,168)"/>
<path d="M0 0 C2.64 0 5.28 0 8 0 C8 5.28 8 10.56 8 16 C5.36 16 2.72 16 0 16 C0 10.72 0 5.44 0 0 Z " fill="#492B70" transform="translate(72,168)"/>
<path d="M0 0 C5.28 0 10.56 0 16 0 C16 2.64 16 5.28 16 8 C10.72 8 5.44 8 0 8 C0 5.36 0 2.72 0 0 Z " fill="#FFFFFF" transform="translate(176,160)"/>
<path d="M0 0 C5.28 0 10.56 0 16 0 C16 2.64 16 5.28 16 8 C10.72 8 5.44 8 0 8 C0 5.36 0 2.72 0 0 Z " fill="#FFFFFF" transform="translate(64,160)"/>
<path d="M0 0 C5.28 0 10.56 0 16 0 C16 2.64 16 5.28 16 8 C10.72 8 5.44 8 0 8 C0 5.36 0 2.72 0 0 Z " fill="#572D8F" transform="translate(72,144)"/>
<path d="M0 0 C2.64 0 5.28 0 8 0 C8 2.64 8 5.28 8 8 C5.36 8 2.72 8 0 8 C0 5.36 0 2.72 0 0 Z " fill="#D7D7D7" transform="translate(64,200)"/>
<path d="M0 0 C2.64 0 5.28 0 8 0 C8 2.64 8 5.28 8 8 C5.36 8 2.72 8 0 8 C0 5.36 0 2.72 0 0 Z " fill="#492B70" transform="translate(224,192)"/>
<path d="M0 0 C2.64 0 5.28 0 8 0 C8 2.64 8 5.28 8 8 C5.36 8 2.72 8 0 8 C0 5.36 0 2.72 0 0 Z " fill="#FFFFFF" transform="translate(216,192)"/>
<path d="M0 0 C2.64 0 5.28 0 8 0 C8 2.64 8 5.28 8 8 C5.36 8 2.72 8 0 8 C0 5.36 0 2.72 0 0 Z " fill="#FFFFFF" transform="translate(56,192)"/>
<path d="M0 0 C2.64 0 5.28 0 8 0 C8 2.64 8 5.28 8 8 C5.36 8 2.72 8 0 8 C0 5.36 0 2.72 0 0 Z " fill="#492B70" transform="translate(16,192)"/>
<path d="M0 0 C2.64 0 5.28 0 8 0 C8 2.64 8 5.28 8 8 C5.36 8 2.72 8 0 8 C0 5.36 0 2.72 0 0 Z " fill="#FFFFFF" transform="translate(200,176)"/>
<path d="M0 0 C2.64 0 5.28 0 8 0 C8 2.64 8 5.28 8 8 C5.36 8 2.72 8 0 8 C0 5.36 0 2.72 0 0 Z " fill="#FFFFFF" transform="translate(64,176)"/>
<path d="M0 0 C2.64 0 5.28 0 8 0 C8 2.64 8 5.28 8 8 C5.36 8 2.72 8 0 8 C0 5.36 0 2.72 0 0 Z " fill="#492B70" transform="translate(232,168)"/>
<path d="M0 0 C2.64 0 5.28 0 8 0 C8 2.64 8 5.28 8 8 C5.36 8 2.72 8 0 8 C0 5.36 0 2.72 0 0 Z " fill="#492B70" transform="translate(200,168)"/>
<path d="M0 0 C2.64 0 5.28 0 8 0 C8 2.64 8 5.28 8 8 C5.36 8 2.72 8 0 8 C0 5.36 0 2.72 0 0 Z " fill="#492B70" transform="translate(40,168)"/>
<path d="M0 0 C2.64 0 5.28 0 8 0 C8 2.64 8 5.28 8 8 C5.36 8 2.72 8 0 8 C0 5.36 0 2.72 0 0 Z " fill="#492B70" transform="translate(8,168)"/>
<path d="M0 0 C2.64 0 5.28 0 8 0 C8 2.64 8 5.28 8 8 C5.36 8 2.72 8 0 8 C0 5.36 0 2.72 0 0 Z " fill="#8B6AB8" transform="translate(216,160)"/>
<path d="M0 0 C2.64 0 5.28 0 8 0 C8 2.64 8 5.28 8 8 C5.36 8 2.72 8 0 8 C0 5.36 0 2.72 0 0 Z " fill="#DCAAFF" transform="translate(176,160)"/>
<path d="M0 0 C2.64 0 5.28 0 8 0 C8 2.64 8 5.28 8 8 C5.36 8 2.72 8 0 8 C0 5.36 0 2.72 0 0 Z " fill="#5A328F" transform="translate(168,160)"/>
<path d="M0 0 C2.64 0 5.28 0 8 0 C8 2.64 8 5.28 8 8 C5.36 8 2.72 8 0 8 C0 5.36 0 2.72 0 0 Z " fill="#DCAAFF" transform="translate(64,160)"/>
<path d="M0 0 C2.64 0 5.28 0 8 0 C8 2.64 8 5.28 8 8 C5.36 8 2.72 8 0 8 C0 5.36 0 2.72 0 0 Z " fill="#8B6AB8" transform="translate(24,160)"/>
<path d="M0 0 C2.64 0 5.28 0 8 0 C8 2.64 8 5.28 8 8 C5.36 8 2.72 8 0 8 C0 5.36 0 2.72 0 0 Z " fill="#8B6AB8" transform="translate(224,152)"/>
<path d="M0 0 C2.64 0 5.28 0 8 0 C8 2.64 8 5.28 8 8 C5.36 8 2.72 8 0 8 C0 5.36 0 2.72 0 0 Z " fill="#8B6AB8" transform="translate(208,152)"/>
<path d="M0 0 C2.64 0 5.28 0 8 0 C8 2.64 8 5.28 8 8 C5.36 8 2.72 8 0 8 C0 5.36 0 2.72 0 0 Z " fill="#8B6AB8" transform="translate(32,152)"/>
<path d="M0 0 C2.64 0 5.28 0 8 0 C8 2.64 8 5.28 8 8 C5.36 8 2.72 8 0 8 C0 5.36 0 2.72 0 0 Z " fill="#8B6AB8" transform="translate(16,152)"/>
<path d="M0 0 C2.64 0 5.28 0 8 0 C8 2.64 8 5.28 8 8 C5.36 8 2.72 8 0 8 C0 5.36 0 2.72 0 0 Z " fill="#5A328F" transform="translate(224,144)"/>
<path d="M0 0 C2.64 0 5.28 0 8 0 C8 2.64 8 5.28 8 8 C5.36 8 2.72 8 0 8 C0 5.36 0 2.72 0 0 Z " fill="#8B6AB8" transform="translate(216,144)"/>
<path d="M0 0 C2.64 0 5.28 0 8 0 C8 2.64 8 5.28 8 8 C5.36 8 2.72 8 0 8 C0 5.36 0 2.72 0 0 Z " fill="#5A328F" transform="translate(216,136)"/>
<path d="M0 0 C2.64 0 5.28 0 8 0 C8 2.64 8 5.28 8 8 C5.36 8 2.72 8 0 8 C0 5.36 0 2.72 0 0 Z " fill="#664099" transform="translate(24,136)"/>
<path d="M0 0 C2.64 0 5.28 0 8 0 C8 2.64 8 5.28 8 8 C5.36 8 2.72 8 0 8 C0 5.36 0 2.72 0 0 Z " fill="#492B70" transform="translate(216,120)"/>
<path d="M0 0 C2.64 0 5.28 0 8 0 C8 2.64 8 5.28 8 8 C5.36 8 2.72 8 0 8 C0 5.36 0 2.72 0 0 Z " fill="#492B70" transform="translate(224,112)"/>
<path d="M0 0 C2.64 0 5.28 0 8 0 C8 2.64 8 5.28 8 8 C5.36 8 2.72 8 0 8 C0 5.36 0 2.72 0 0 Z " fill="#492B70" transform="translate(208,112)"/>
<path d="M0 0 C2.64 0 5.28 0 8 0 C8 2.64 8 5.28 8 8 C5.36 8 2.72 8 0 8 C0 5.36 0 2.72 0 0 Z " fill="#492B70" transform="translate(216,104)"/>
<path d="M0 0 C2.64 0 5.28 0 8 0 C8 2.64 8 5.28 8 8 C5.36 8 2.72 8 0 8 C0 5.36 0 2.72 0 0 Z " fill="#492B70" transform="translate(232,64)"/>
<path d="M0 0 C2.64 0 5.28 0 8 0 C8 2.64 8 5.28 8 8 C5.36 8 2.72 8 0 8 C0 5.36 0 2.72 0 0 Z " fill="#FFFFFF" transform="translate(224,64)"/>
<path d="M0 0 C2.64 0 5.28 0 8 0 C8 2.64 8 5.28 8 8 C5.36 8 2.72 8 0 8 C0 5.36 0 2.72 0 0 Z " fill="#492B70" transform="translate(8,64)"/>
<path d="M0 0 C2.64 0 5.28 0 8 0 C8 2.64 8 5.28 8 8 C5.36 8 2.72 8 0 8 C0 5.36 0 2.72 0 0 Z " fill="#492B70" transform="translate(224,56)"/>
<path d="M0 0 C2.64 0 5.28 0 8 0 C8 2.64 8 5.28 8 8 C5.36 8 2.72 8 0 8 C0 5.36 0 2.72 0 0 Z " fill="#FFFFFF" transform="translate(216,56)"/>
<path d="M0 0 C2.64 0 5.28 0 8 0 C8 2.64 8 5.28 8 8 C5.36 8 2.72 8 0 8 C0 5.36 0 2.72 0 0 Z " fill="#664099" transform="translate(184,56)"/>
<path d="M0 0 C2.64 0 5.28 0 8 0 C8 2.64 8 5.28 8 8 C5.36 8 2.72 8 0 8 C0 5.36 0 2.72 0 0 Z " fill="#664099" transform="translate(56,56)"/>
<path d="M0 0 C2.64 0 5.28 0 8 0 C8 2.64 8 5.28 8 8 C5.36 8 2.72 8 0 8 C0 5.36 0 2.72 0 0 Z " fill="#492B70" transform="translate(16,56)"/>
<path d="M0 0 C2.64 0 5.28 0 8 0 C8 2.64 8 5.28 8 8 C5.36 8 2.72 8 0 8 C0 5.36 0 2.72 0 0 Z " fill="#492B70" transform="translate(216,48)"/>
<path d="M0 0 C2.64 0 5.28 0 8 0 C8 2.64 8 5.28 8 8 C5.36 8 2.72 8 0 8 C0 5.36 0 2.72 0 0 Z " fill="#FFFFFF" transform="translate(208,48)"/>
<path d="M0 0 C2.64 0 5.28 0 8 0 C8 2.64 8 5.28 8 8 C5.36 8 2.72 8 0 8 C0 5.36 0 2.72 0 0 Z " fill="#664099" transform="translate(176,48)"/>
<path d="M0 0 C2.64 0 5.28 0 8 0 C8 2.64 8 5.28 8 8 C5.36 8 2.72 8 0 8 C0 5.36 0 2.72 0 0 Z " fill="#664099" transform="translate(64,48)"/>
<path d="M0 0 C2.64 0 5.28 0 8 0 C8 2.64 8 5.28 8 8 C5.36 8 2.72 8 0 8 C0 5.36 0 2.72 0 0 Z " fill="#492B70" transform="translate(24,48)"/>
<path d="M0 0 C2.64 0 5.28 0 8 0 C8 2.64 8 5.28 8 8 C5.36 8 2.72 8 0 8 C0 5.36 0 2.72 0 0 Z " fill="#492B70" transform="translate(208,40)"/>
<path d="M0 0 C2.64 0 5.28 0 8 0 C8 2.64 8 5.28 8 8 C5.36 8 2.72 8 0 8 C0 5.36 0 2.72 0 0 Z " fill="#664099" transform="translate(168,40)"/>
<path d="M0 0 C2.64 0 5.28 0 8 0 C8 2.64 8 5.28 8 8 C5.36 8 2.72 8 0 8 C0 5.36 0 2.72 0 0 Z " fill="#664099" transform="translate(72,40)"/>
<path d="M0 0 C2.64 0 5.28 0 8 0 C8 2.64 8 5.28 8 8 C5.36 8 2.72 8 0 8 C0 5.36 0 2.72 0 0 Z " fill="#492B70" transform="translate(32,40)"/>
<path d="M0 0 C2.64 0 5.28 0 8 0 C8 2.64 8 5.28 8 8 C5.36 8 2.72 8 0 8 C0 5.36 0 2.72 0 0 Z " fill="#F3A3C0" transform="translate(104,16)"/>
</svg>
