<?xml version="1.0" encoding="UTF-8"?>
<svg version="1.1" xmlns="http://www.w3.org/2000/svg" width="280" height="224">
<path d="M0 0 C15.84 0 31.68 0 48 0 C48 2.64 48 5.28 48 8 C50.64 8 53.28 8 56 8 C56 10.64 56 13.28 56 16 C74.48 16 92.96 16 112 16 C112 13.36 112 10.72 112 8 C114.64 8 117.28 8 120 8 C120 5.36 120 2.72 120 0 C135.84 0 151.68 0 168 0 C168 2.64 168 5.28 168 8 C170.64 8 173.28 8 176 8 C176 10.64 176 13.28 176 16 C178.64 16 181.28 16 184 16 C184 18.64 184 21.28 184 24 C186.64 24 189.28 24 192 24 C192 26.64 192 29.28 192 32 C194.64 32 197.28 32 200 32 C200 37.28 200 42.56 200 48 C202.64 48 205.28 48 208 48 C208 53.28 208 58.56 208 64 C210.64 64 213.28 64 216 64 C216 71.92 216 79.84 216 88 C218.64 88 221.28 88 224 88 C224 114.4 224 140.8 224 168 C221.36 168 218.72 168 216 168 C216 173.28 216 178.56 216 184 C213.36 184 210.72 184 208 184 C208 186.64 208 189.28 208 192 C194.8 192 181.6 192 168 192 C168 189.36 168 186.72 168 184 C165.36 184 162.72 184 160 184 C160 181.36 160 178.72 160 176 C157.36 176 154.72 176 152 176 C152 173.36 152 170.72 152 168 C149.36 168 146.72 168 144 168 C144 165.36 144 162.72 144 160 C141.36 160 138.72 160 136 160 C136 157.36 136 154.72 136 152 C133.36 152 130.72 152 128 152 C128 149.36 128 146.72 128 144 C98.96 144 69.92 144 40 144 C40 146.64 40 149.28 40 152 C37.36 152 34.72 152 32 152 C32 154.64 32 157.28 32 160 C29.36 160 26.72 160 24 160 C24 162.64 24 165.28 24 168 C21.36 168 18.72 168 16 168 C16 170.64 16 173.28 16 176 C13.36 176 10.72 176 8 176 C8 178.64 8 181.28 8 184 C5.36 184 2.72 184 0 184 C0 186.64 0 189.28 0 192 C-13.2 192 -26.4 192 -40 192 C-40 189.36 -40 186.72 -40 184 C-42.64 184 -45.28 184 -48 184 C-48 178.72 -48 173.44 -48 168 C-50.64 168 -53.28 168 -56 168 C-56 141.6 -56 115.2 -56 88 C-53.36 88 -50.72 88 -48 88 C-48 80.08 -48 72.16 -48 64 C-45.36 64 -42.72 64 -40 64 C-40 58.72 -40 53.44 -40 48 C-37.36 48 -34.72 48 -32 48 C-32 42.72 -32 37.44 -32 32 C-29.36 32 -26.72 32 -24 32 C-24 29.36 -24 26.72 -24 24 C-21.36 24 -18.72 24 -16 24 C-16 21.36 -16 18.72 -16 16 C-13.36 16 -10.72 16 -8 16 C-8 13.36 -8 10.72 -8 8 C-5.36 8 -2.72 8 0 8 C0 5.36 0 2.72 0 0 Z " fill="#FFDBF4" transform="translate(56,16)"/>
<path d="M0 0 C15.84 0 31.68 0 48 0 C48 2.64 48 5.28 48 8 C50.64 8 53.28 8 56 8 C56 10.64 56 13.28 56 16 C74.48 16 92.96 16 112 16 C112 13.36 112 10.72 112 8 C114.64 8 117.28 8 120 8 C120 5.36 120 2.72 120 0 C135.84 0 151.68 0 168 0 C168 2.64 168 5.28 168 8 C170.64 8 173.28 8 176 8 C176 10.64 176 13.28 176 16 C178.64 16 181.28 16 184 16 C184 18.64 184 21.28 184 24 C186.64 24 189.28 24 192 24 C192 26.64 192 29.28 192 32 C194.64 32 197.28 32 200 32 C200 37.28 200 42.56 200 48 C202.64 48 205.28 48 208 48 C208 53.28 208 58.56 208 64 C210.64 64 213.28 64 216 64 C216 71.92 216 79.84 216 88 C218.64 88 221.28 88 224 88 C224 114.4 224 140.8 224 168 C221.36 168 218.72 168 216 168 C216 173.28 216 178.56 216 184 C213.36 184 210.72 184 208 184 C208 186.64 208 189.28 208 192 C194.8 192 181.6 192 168 192 C168 189.36 168 186.72 168 184 C165.36 184 162.72 184 160 184 C160 181.36 160 178.72 160 176 C157.36 176 154.72 176 152 176 C152 173.36 152 170.72 152 168 C149.36 168 146.72 168 144 168 C144 165.36 144 162.72 144 160 C141.36 160 138.72 160 136 160 C136 157.36 136 154.72 136 152 C133.36 152 130.72 152 128 152 C128 149.36 128 146.72 128 144 C98.96 144 69.92 144 40 144 C40 146.64 40 149.28 40 152 C37.36 152 34.72 152 32 152 C32 154.64 32 157.28 32 160 C29.36 160 26.72 160 24 160 C24 162.64 24 165.28 24 168 C21.36 168 18.72 168 16 168 C16 170.64 16 173.28 16 176 C13.36 176 10.72 176 8 176 C8 178.64 8 181.28 8 184 C5.36 184 2.72 184 0 184 C0 186.64 0 189.28 0 192 C-13.2 192 -26.4 192 -40 192 C-40 189.36 -40 186.72 -40 184 C-42.64 184 -45.28 184 -48 184 C-48 178.72 -48 173.44 -48 168 C-50.64 168 -53.28 168 -56 168 C-56 141.6 -56 115.2 -56 88 C-53.36 88 -50.72 88 -48 88 C-48 80.08 -48 72.16 -48 64 C-45.36 64 -42.72 64 -40 64 C-40 58.72 -40 53.44 -40 48 C-37.36 48 -34.72 48 -32 48 C-32 42.72 -32 37.44 -32 32 C-29.36 32 -26.72 32 -24 32 C-24 29.36 -24 26.72 -24 24 C-21.36 24 -18.72 24 -16 24 C-16 21.36 -16 18.72 -16 16 C-13.36 16 -10.72 16 -8 16 C-8 13.36 -8 10.72 -8 8 C-5.36 8 -2.72 8 0 8 C0 5.36 0 2.72 0 0 Z M8 24 C8 26.64 8 29.28 8 32 C2.72 32 -2.56 32 -8 32 C-8 34.64 -8 37.28 -8 40 C-10.64 40 -13.28 40 -16 40 C-16 45.28 -16 50.56 -16 56 C-21.28 56 -26.56 56 -32 56 C-32 61.28 -32 66.56 -32 72 C-34.64 72 -37.28 72 -40 72 C-40 79.92 -40 87.84 -40 96 C-42.64 96 -45.28 96 -48 96 C-48 103.92 -48 111.84 -48 120 C-45.36 120 -42.72 120 -40 120 C-40 122.64 -40 125.28 -40 128 C-42.64 128 -45.28 128 -48 128 C-48 135.92 -48 143.84 -48 152 C-45.36 152 -42.72 152 -40 152 C-40 149.36 -40 146.72 -40 144 C-37.36 144 -34.72 144 -32 144 C-32 146.64 -32 149.28 -32 152 C-29.36 152 -26.72 152 -24 152 C-24 149.36 -24 146.72 -24 144 C-21.36 144 -18.72 144 -16 144 C-16 141.36 -16 138.72 -16 136 C-18.64 136 -21.28 136 -24 136 C-24 133.36 -24 130.72 -24 128 C-21.36 128 -18.72 128 -16 128 C-16 125.36 -16 122.72 -16 120 C-13.36 120 -10.72 120 -8 120 C-8 122.64 -8 125.28 -8 128 C-5.36 128 -2.72 128 0 128 C0 130.64 0 133.28 0 136 C2.64 136 5.28 136 8 136 C8 133.36 8 130.72 8 128 C15.92 128 23.84 128 32 128 C32 125.36 32 122.72 32 120 C39.92 120 47.84 120 56 120 C56 114.72 56 109.44 56 104 C58.64 104 61.28 104 64 104 C64 101.36 64 98.72 64 96 C69.28 96 74.56 96 80 96 C80 98.64 80 101.28 80 104 C82.64 104 85.28 104 88 104 C88 101.36 88 98.72 88 96 C93.28 96 98.56 96 104 96 C104 98.64 104 101.28 104 104 C106.64 104 109.28 104 112 104 C112 109.28 112 114.56 112 120 C119.92 120 127.84 120 136 120 C136 122.64 136 125.28 136 128 C149.2 128 162.4 128 176 128 C176 125.36 176 122.72 176 120 C178.64 120 181.28 120 184 120 C184 122.64 184 125.28 184 128 C186.64 128 189.28 128 192 128 C192 130.64 192 133.28 192 136 C194.64 136 197.28 136 200 136 C200 138.64 200 141.28 200 144 C202.64 144 205.28 144 208 144 C208 141.36 208 138.72 208 136 C210.64 136 213.28 136 216 136 C216 133.36 216 130.72 216 128 C213.36 128 210.72 128 208 128 C208 125.36 208 122.72 208 120 C210.64 120 213.28 120 216 120 C216 112.08 216 104.16 216 96 C213.36 96 210.72 96 208 96 C208 88.08 208 80.16 208 72 C205.36 72 202.72 72 200 72 C200 66.72 200 61.44 200 56 C197.36 56 194.72 56 192 56 C192 50.72 192 45.44 192 40 C189.36 40 186.72 40 184 40 C184 37.36 184 34.72 184 32 C176.08 32 168.16 32 160 32 C160 29.36 160 26.72 160 24 C109.84 24 59.68 24 8 24 Z " fill="#F5B4E0" transform="translate(56,16)"/>
<path d="M0 0 C15.84 0 31.68 0 48 0 C48 2.64 48 5.28 48 8 C50.64 8 53.28 8 56 8 C56 10.64 56 13.28 56 16 C74.48 16 92.96 16 112 16 C112 13.36 112 10.72 112 8 C114.64 8 117.28 8 120 8 C120 5.36 120 2.72 120 0 C135.84 0 151.68 0 168 0 C168 2.64 168 5.28 168 8 C170.64 8 173.28 8 176 8 C176 10.64 176 13.28 176 16 C178.64 16 181.28 16 184 16 C184 18.64 184 21.28 184 24 C186.64 24 189.28 24 192 24 C192 26.64 192 29.28 192 32 C194.64 32 197.28 32 200 32 C200 37.28 200 42.56 200 48 C202.64 48 205.28 48 208 48 C208 53.28 208 58.56 208 64 C210.64 64 213.28 64 216 64 C216 71.92 216 79.84 216 88 C218.64 88 221.28 88 224 88 C224 114.4 224 140.8 224 168 C221.36 168 218.72 168 216 168 C216 160.08 216 152.16 216 144 C213.36 144 210.72 144 208 144 C208 141.36 208 138.72 208 136 C210.64 136 213.28 136 216 136 C216 133.36 216 130.72 216 128 C213.36 128 210.72 128 208 128 C208 125.36 208 122.72 208 120 C210.64 120 213.28 120 216 120 C216 112.08 216 104.16 216 96 C213.36 96 210.72 96 208 96 C208 88.08 208 80.16 208 72 C205.36 72 202.72 72 200 72 C200 66.72 200 61.44 200 56 C197.36 56 194.72 56 192 56 C192 50.72 192 45.44 192 40 C189.36 40 186.72 40 184 40 C184 37.36 184 34.72 184 32 C176.08 32 168.16 32 160 32 C160 29.36 160 26.72 160 24 C109.84 24 59.68 24 8 24 C8 26.64 8 29.28 8 32 C2.72 32 -2.56 32 -8 32 C-8 34.64 -8 37.28 -8 40 C-10.64 40 -13.28 40 -16 40 C-16 45.28 -16 50.56 -16 56 C-21.28 56 -26.56 56 -32 56 C-32 61.28 -32 66.56 -32 72 C-34.64 72 -37.28 72 -40 72 C-40 79.92 -40 87.84 -40 96 C-42.64 96 -45.28 96 -48 96 C-48 103.92 -48 111.84 -48 120 C-45.36 120 -42.72 120 -40 120 C-40 122.64 -40 125.28 -40 128 C-42.64 128 -45.28 128 -48 128 C-48 141.2 -48 154.4 -48 168 C-50.64 168 -53.28 168 -56 168 C-56 141.6 -56 115.2 -56 88 C-53.36 88 -50.72 88 -48 88 C-48 80.08 -48 72.16 -48 64 C-45.36 64 -42.72 64 -40 64 C-40 58.72 -40 53.44 -40 48 C-37.36 48 -34.72 48 -32 48 C-32 42.72 -32 37.44 -32 32 C-29.36 32 -26.72 32 -24 32 C-24 29.36 -24 26.72 -24 24 C-21.36 24 -18.72 24 -16 24 C-16 21.36 -16 18.72 -16 16 C-13.36 16 -10.72 16 -8 16 C-8 13.36 -8 10.72 -8 8 C-5.36 8 -2.72 8 0 8 C0 5.36 0 2.72 0 0 Z " fill="#D6568A" transform="translate(56,16)"/>
<path d="M0 0 C34.32 0 68.64 0 104 0 C104 2.64 104 5.28 104 8 C106.64 8 109.28 8 112 8 C112 10.64 112 13.28 112 16 C114.64 16 117.28 16 120 16 C120 18.64 120 21.28 120 24 C122.64 24 125.28 24 128 24 C128 26.64 128 29.28 128 32 C130.64 32 133.28 32 136 32 C136 34.64 136 37.28 136 40 C138.64 40 141.28 40 144 40 C144 42.64 144 45.28 144 48 C151.92 48 159.84 48 168 48 C168 45.36 168 42.72 168 40 C170.64 40 173.28 40 176 40 C176 37.36 176 34.72 176 32 C178.64 32 181.28 32 184 32 C184 37.28 184 42.56 184 48 C181.36 48 178.72 48 176 48 C176 50.64 176 53.28 176 56 C162.8 56 149.6 56 136 56 C136 53.36 136 50.72 136 48 C133.36 48 130.72 48 128 48 C128 45.36 128 42.72 128 40 C125.36 40 122.72 40 120 40 C120 37.36 120 34.72 120 32 C117.36 32 114.72 32 112 32 C112 29.36 112 26.72 112 24 C109.36 24 106.72 24 104 24 C104 21.36 104 18.72 104 16 C101.36 16 98.72 16 96 16 C96 13.36 96 10.72 96 8 C66.96 8 37.92 8 8 8 C8 10.64 8 13.28 8 16 C5.36 16 2.72 16 0 16 C0 18.64 0 21.28 0 24 C-2.64 24 -5.28 24 -8 24 C-8 26.64 -8 29.28 -8 32 C-10.64 32 -13.28 32 -16 32 C-16 34.64 -16 37.28 -16 40 C-18.64 40 -21.28 40 -24 40 C-24 42.64 -24 45.28 -24 48 C-26.64 48 -29.28 48 -32 48 C-32 50.64 -32 53.28 -32 56 C-45.2 56 -58.4 56 -72 56 C-72 53.36 -72 50.72 -72 48 C-74.64 48 -77.28 48 -80 48 C-80 42.72 -80 37.44 -80 32 C-77.36 32 -74.72 32 -72 32 C-72 34.64 -72 37.28 -72 40 C-69.36 40 -66.72 40 -64 40 C-64 42.64 -64 45.28 -64 48 C-56.08 48 -48.16 48 -40 48 C-40 45.36 -40 42.72 -40 40 C-37.36 40 -34.72 40 -32 40 C-32 37.36 -32 34.72 -32 32 C-29.36 32 -26.72 32 -24 32 C-24 29.36 -24 26.72 -24 24 C-21.36 24 -18.72 24 -16 24 C-16 21.36 -16 18.72 -16 16 C-13.36 16 -10.72 16 -8 16 C-8 13.36 -8 10.72 -8 8 C-5.36 8 -2.72 8 0 8 C0 5.36 0 2.72 0 0 Z " fill="#A2324E" transform="translate(88,152)"/>
<path d="M0 0 C5.28 0 10.56 0 16 0 C16 5.28 16 10.56 16 16 C21.28 16 26.56 16 32 16 C32 23.92 32 31.84 32 40 C24.08 40 16.16 40 8 40 C8 50.56 8 61.12 8 72 C2.72 72 -2.56 72 -8 72 C-8 69.36 -8 66.72 -8 64 C-10.64 64 -13.28 64 -16 64 C-16 58.72 -16 53.44 -16 48 C-21.28 48 -26.56 48 -32 48 C-32 42.72 -32 37.44 -32 32 C-29.36 32 -26.72 32 -24 32 C-24 29.36 -24 26.72 -24 24 C-18.72 24 -13.44 24 -8 24 C-8 18.72 -8 13.44 -8 8 C-5.36 8 -2.72 8 0 8 C0 5.36 0 2.72 0 0 Z " fill="#F5B4E0" transform="translate(72,64)"/>
<path d="M0 0 C2.64 0 5.28 0 8 0 C8 2.64 8 5.28 8 8 C10.64 8 13.28 8 16 8 C16 10.64 16 13.28 16 16 C18.64 16 21.28 16 24 16 C24 18.64 24 21.28 24 24 C26.64 24 29.28 24 32 24 C32 29.28 32 34.56 32 40 C29.36 40 26.72 40 24 40 C24 42.64 24 45.28 24 48 C21.36 48 18.72 48 16 48 C16 50.64 16 53.28 16 56 C13.36 56 10.72 56 8 56 C8 58.64 8 61.28 8 64 C0.08 64 -7.84 64 -16 64 C-16 61.36 -16 58.72 -16 56 C-18.64 56 -21.28 56 -24 56 C-24 53.36 -24 50.72 -24 48 C-26.64 48 -29.28 48 -32 48 C-32 42.72 -32 37.44 -32 32 C-29.36 32 -26.72 32 -24 32 C-24 29.36 -24 26.72 -24 24 C-21.36 24 -18.72 24 -16 24 C-16 26.64 -16 29.28 -16 32 C-13.36 32 -10.72 32 -8 32 C-8 29.36 -8 26.72 -8 24 C-5.36 24 -2.72 24 0 24 C0 21.36 0 18.72 0 16 C-2.64 16 -5.28 16 -8 16 C-8 13.36 -8 10.72 -8 8 C-5.36 8 -2.72 8 0 8 C0 5.36 0 2.72 0 0 Z " fill="#D6568A" transform="translate(40,136)"/>
<path d="M0 0 C2.64 0 5.28 0 8 0 C8 2.64 8 5.28 8 8 C10.64 8 13.28 8 16 8 C16 5.36 16 2.72 16 0 C18.64 0 21.28 0 24 0 C24 2.64 24 5.28 24 8 C26.64 8 29.28 8 32 8 C32 10.64 32 13.28 32 16 C34.64 16 37.28 16 40 16 C40 13.36 40 10.72 40 8 C45.28 8 50.56 8 56 8 C56 15.92 56 23.84 56 32 C53.36 32 50.72 32 48 32 C48 34.64 48 37.28 48 40 C45.36 40 42.72 40 40 40 C40 42.64 40 45.28 40 48 C32.08 48 24.16 48 16 48 C16 45.36 16 42.72 16 40 C13.36 40 10.72 40 8 40 C8 37.36 8 34.72 8 32 C5.36 32 2.72 32 0 32 C0 29.36 0 26.72 0 24 C-2.64 24 -5.28 24 -8 24 C-8 18.72 -8 13.44 -8 8 C-5.36 8 -2.72 8 0 8 C0 5.36 0 2.72 0 0 Z " fill="#DB6393" transform="translate(216,152)"/>
<path d="M0 0 C5.28 0 10.56 0 16 0 C16 2.64 16 5.28 16 8 C18.64 8 21.28 8 24 8 C24 15.92 24 23.84 24 32 C26.64 32 29.28 32 32 32 C32 34.64 32 37.28 32 40 C34.64 40 37.28 40 40 40 C40 45.28 40 50.56 40 56 C32.08 56 24.16 56 16 56 C16 58.64 16 61.28 16 64 C13.36 64 10.72 64 8 64 C8 66.64 8 69.28 8 72 C2.72 72 -2.56 72 -8 72 C-8 66.72 -8 61.44 -8 56 C-13.28 56 -18.56 56 -24 56 C-24 53.36 -24 50.72 -24 48 C-21.36 48 -18.72 48 -16 48 C-16 45.36 -16 42.72 -16 40 C-18.64 40 -21.28 40 -24 40 C-24 37.36 -24 34.72 -24 32 C-16.08 32 -8.16 32 0 32 C0 37.28 0 42.56 0 48 C5.28 48 10.56 48 16 48 C16 40.08 16 32.16 16 24 C10.72 24 5.44 24 0 24 C0 16.08 0 8.16 0 0 Z " fill="#F5B4E0" transform="translate(200,56)"/>
<path d="M0 0 C2.64 0 5.28 0 8 0 C8 5.28 8 10.56 8 16 C5.36 16 2.72 16 0 16 C0 21.28 0 26.56 0 32 C-2.64 32 -5.28 32 -8 32 C-8 37.28 -8 42.56 -8 48 C-13.28 48 -18.56 48 -24 48 C-24 53.28 -24 58.56 -24 64 C-26.64 64 -29.28 64 -32 64 C-32 71.92 -32 79.84 -32 88 C-34.64 88 -37.28 88 -40 88 C-40 95.92 -40 103.84 -40 112 C-37.36 112 -34.72 112 -32 112 C-32 114.64 -32 117.28 -32 120 C-34.64 120 -37.28 120 -40 120 C-40 133.2 -40 146.4 -40 160 C-42.64 160 -45.28 160 -48 160 C-48 133.6 -48 107.2 -48 80 C-45.36 80 -42.72 80 -40 80 C-40 72.08 -40 64.16 -40 56 C-37.36 56 -34.72 56 -32 56 C-32 50.72 -32 45.44 -32 40 C-29.36 40 -26.72 40 -24 40 C-24 34.72 -24 29.44 -24 24 C-21.36 24 -18.72 24 -16 24 C-16 21.36 -16 18.72 -16 16 C-13.36 16 -10.72 16 -8 16 C-8 13.36 -8 10.72 -8 8 C-5.36 8 -2.72 8 0 8 C0 5.36 0 2.72 0 0 Z " fill="#A2324E" transform="translate(48,24)"/>
<path d="M0 0 C2.64 0 5.28 0 8 0 C8 2.64 8 5.28 8 8 C10.64 8 13.28 8 16 8 C16 10.64 16 13.28 16 16 C18.64 16 21.28 16 24 16 C24 18.64 24 21.28 24 24 C26.64 24 29.28 24 32 24 C32 29.28 32 34.56 32 40 C34.64 40 37.28 40 40 40 C40 45.28 40 50.56 40 56 C42.64 56 45.28 56 48 56 C48 63.92 48 71.84 48 80 C50.64 80 53.28 80 56 80 C56 106.4 56 132.8 56 160 C53.36 160 50.72 160 48 160 C48 152.08 48 144.16 48 136 C45.36 136 42.72 136 40 136 C40 133.36 40 130.72 40 128 C42.64 128 45.28 128 48 128 C48 125.36 48 122.72 48 120 C45.36 120 42.72 120 40 120 C40 117.36 40 114.72 40 112 C42.64 112 45.28 112 48 112 C48 104.08 48 96.16 48 88 C45.36 88 42.72 88 40 88 C40 80.08 40 72.16 40 64 C37.36 64 34.72 64 32 64 C32 58.72 32 53.44 32 48 C29.36 48 26.72 48 24 48 C24 42.72 24 37.44 24 32 C21.36 32 18.72 32 16 32 C16 29.36 16 26.72 16 24 C13.36 24 10.72 24 8 24 C8 21.36 8 18.72 8 16 C5.36 16 2.72 16 0 16 C0 10.72 0 5.44 0 0 Z " fill="#A2324E" transform="translate(224,24)"/>
<path d="M0 0 C50.16 0 100.32 0 152 0 C152 2.64 152 5.28 152 8 C133.52 8 115.04 8 96 8 C96 10.64 96 13.28 96 16 C82.8 16 69.6 16 56 16 C56 13.36 56 10.72 56 8 C37.52 8 19.04 8 0 8 C0 5.36 0 2.72 0 0 Z " fill="#F5B4E0" transform="translate(64,40)"/>
<path d="M0 0 C15.84 0 31.68 0 48 0 C48 7.92 48 15.84 48 24 C50.64 24 53.28 24 56 24 C56 26.64 56 29.28 56 32 C50.72 32 45.44 32 40 32 C40 29.36 40 26.72 40 24 C24.16 24 8.32 24 -8 24 C-8 18.72 -8 13.44 -8 8 C-5.36 8 -2.72 8 0 8 C0 5.36 0 2.72 0 0 Z " fill="#D6568A" transform="translate(176,16)"/>
<path d="M0 0 C5.28 0 10.56 0 16 0 C16 2.64 16 5.28 16 8 C18.64 8 21.28 8 24 8 C24 5.36 24 2.72 24 0 C29.28 0 34.56 0 40 0 C40 2.64 40 5.28 40 8 C42.64 8 45.28 8 48 8 C48 13.28 48 18.56 48 24 C40.08 24 32.16 24 24 24 C24 21.36 24 18.72 24 16 C21.36 16 18.72 16 16 16 C16 18.64 16 21.28 16 24 C8.08 24 0.16 24 -8 24 C-8 18.72 -8 13.44 -8 8 C-5.36 8 -2.72 8 0 8 C0 5.36 0 2.72 0 0 Z " fill="#5BA8FF" transform="translate(120,112)"/>
<path d="M0 0 C2.64 0 5.28 0 8 0 C8 2.64 8 5.28 8 8 C10.64 8 13.28 8 16 8 C16 10.64 16 13.28 16 16 C13.36 16 10.72 16 8 16 C8 18.64 8 21.28 8 24 C5.36 24 2.72 24 0 24 C0 26.64 0 29.28 0 32 C-2.64 32 -5.28 32 -8 32 C-8 34.64 -8 37.28 -8 40 C-13.28 40 -18.56 40 -24 40 C-24 37.36 -24 34.72 -24 32 C-26.64 32 -29.28 32 -32 32 C-32 26.72 -32 21.44 -32 16 C-29.36 16 -26.72 16 -24 16 C-24 13.36 -24 10.72 -24 8 C-21.36 8 -18.72 8 -16 8 C-16 10.64 -16 13.28 -16 16 C-13.36 16 -10.72 16 -8 16 C-8 13.36 -8 10.72 -8 8 C-5.36 8 -2.72 8 0 8 C0 5.36 0 2.72 0 0 Z " fill="#DF6D9B" transform="translate(40,152)"/>
<path d="M0 0 C7.92 0 15.84 0 24 0 C24 5.28 24 10.56 24 16 C29.28 16 34.56 16 40 16 C40 21.28 40 26.56 40 32 C37.36 32 34.72 32 32 32 C32 34.64 32 37.28 32 40 C26.72 40 21.44 40 16 40 C16 34.72 16 29.44 16 24 C10.72 24 5.44 24 0 24 C0 21.36 0 18.72 0 16 C2.64 16 5.28 16 8 16 C8 13.36 8 10.72 8 8 C5.36 8 2.72 8 0 8 C0 5.36 0 2.72 0 0 Z " fill="#F5B4E0" transform="translate(176,88)"/>
<path d="M0 0 C5.28 0 10.56 0 16 0 C16 5.28 16 10.56 16 16 C21.28 16 26.56 16 32 16 C32 23.92 32 31.84 32 40 C24.08 40 16.16 40 8 40 C8 37.36 8 34.72 8 32 C10.64 32 13.28 32 16 32 C16 29.36 16 26.72 16 24 C8.08 24 0.16 24 -8 24 C-8 18.72 -8 13.44 -8 8 C-5.36 8 -2.72 8 0 8 C0 5.36 0 2.72 0 0 Z " fill="#F5B4E0" transform="translate(72,64)"/>
<path d="M0 0 C2.64 0 5.28 0 8 0 C8 5.28 8 10.56 8 16 C13.28 16 18.56 16 24 16 C24 23.92 24 31.84 24 40 C18.72 40 13.44 40 8 40 C8 34.72 8 29.44 8 24 C0.08 24 -7.84 24 -16 24 C-16 21.36 -16 18.72 -16 16 C-10.72 16 -5.44 16 0 16 C0 10.72 0 5.44 0 0 Z " fill="#F5B4E0" transform="translate(192,64)"/>
<path d="M0 0 C2.64 0 5.28 0 8 0 C8 2.64 8 5.28 8 8 C10.64 8 13.28 8 16 8 C16 10.64 16 13.28 16 16 C18.64 16 21.28 16 24 16 C24 21.28 24 26.56 24 32 C21.36 32 18.72 32 16 32 C16 29.36 16 26.72 16 24 C13.36 24 10.72 24 8 24 C8 21.36 8 18.72 8 16 C5.36 16 2.72 16 0 16 C0 18.64 0 21.28 0 24 C-2.64 24 -5.28 24 -8 24 C-8 18.72 -8 13.44 -8 8 C-5.36 8 -2.72 8 0 8 C0 5.36 0 2.72 0 0 Z " fill="#F5B4E0" transform="translate(232,136)"/>
<path d="M0 0 C5.28 0 10.56 0 16 0 C16 2.64 16 5.28 16 8 C21.28 8 26.56 8 32 8 C32 10.64 32 13.28 32 16 C29.36 16 26.72 16 24 16 C24 18.64 24 21.28 24 24 C21.36 24 18.72 24 16 24 C16 21.36 16 18.72 16 16 C13.36 16 10.72 16 8 16 C8 18.64 8 21.28 8 24 C5.36 24 2.72 24 0 24 C0 16.08 0 8.16 0 0 Z " fill="#DF6D9B" transform="translate(8,144)"/>
<path d="M0 0 C5.28 0 10.56 0 16 0 C16 2.64 16 5.28 16 8 C18.64 8 21.28 8 24 8 C24 13.28 24 18.56 24 24 C16.08 24 8.16 24 0 24 C0 16.08 0 8.16 0 0 Z " fill="#F5B4E0" transform="translate(216,88)"/>
<path d="M0 0 C10.56 0 21.12 0 32 0 C32 5.28 32 10.56 32 16 C34.64 16 37.28 16 40 16 C40 18.64 40 21.28 40 24 C34.72 24 29.44 24 24 24 C24 21.36 24 18.72 24 16 C21.36 16 18.72 16 16 16 C16 13.36 16 10.72 16 8 C10.72 8 5.44 8 0 8 C0 5.36 0 2.72 0 0 Z " fill="#9964F9" transform="translate(192,24)"/>
<path d="M0 0 C10.56 0 21.12 0 32 0 C32 2.64 32 5.28 32 8 C26.72 8 21.44 8 16 8 C16 10.64 16 13.28 16 16 C13.36 16 10.72 16 8 16 C8 18.64 8 21.28 8 24 C2.72 24 -2.56 24 -8 24 C-8 21.36 -8 18.72 -8 16 C-5.36 16 -2.72 16 0 16 C0 10.72 0 5.44 0 0 Z " fill="#9964F9" transform="translate(56,24)"/>
<path d="M0 0 C5.28 0 10.56 0 16 0 C16 2.64 16 5.28 16 8 C13.36 8 10.72 8 8 8 C8 10.64 8 13.28 8 16 C10.64 16 13.28 16 16 16 C16 18.64 16 21.28 16 24 C8.08 24 0.16 24 -8 24 C-8 18.72 -8 13.44 -8 8 C-5.36 8 -2.72 8 0 8 C0 5.36 0 2.72 0 0 Z " fill="#4E98EB" transform="translate(120,112)"/>
<path d="M0 0 C18.48 0 36.96 0 56 0 C56 2.64 56 5.28 56 8 C37.52 8 19.04 8 0 8 C0 5.36 0 2.72 0 0 Z " fill="#A2324E" transform="translate(112,32)"/>
<path d="M0 0 C15.84 0 31.68 0 48 0 C48 2.64 48 5.28 48 8 C32.16 8 16.32 8 0 8 C0 5.36 0 2.72 0 0 Z " fill="#A2324E" transform="translate(176,16)"/>
<path d="M0 0 C15.84 0 31.68 0 48 0 C48 2.64 48 5.28 48 8 C32.16 8 16.32 8 0 8 C0 5.36 0 2.72 0 0 Z " fill="#A2324E" transform="translate(56,16)"/>
<path d="M0 0 C2.64 0 5.28 0 8 0 C8 2.64 8 5.28 8 8 C10.64 8 13.28 8 16 8 C16 13.28 16 18.56 16 24 C13.36 24 10.72 24 8 24 C8 21.36 8 18.72 8 16 C2.72 16 -2.56 16 -8 16 C-8 13.36 -8 10.72 -8 8 C-5.36 8 -2.72 8 0 8 C0 5.36 0 2.72 0 0 Z " fill="#F5B4E0" transform="translate(40,136)"/>
<path d="M0 0 C2.64 0 5.28 0 8 0 C8 5.28 8 10.56 8 16 C5.36 16 2.72 16 0 16 C0 18.64 0 21.28 0 24 C-5.28 24 -10.56 24 -16 24 C-16 21.36 -16 18.72 -16 16 C-13.36 16 -10.72 16 -8 16 C-8 13.36 -8 10.72 -8 8 C-5.36 8 -2.72 8 0 8 C0 5.36 0 2.72 0 0 Z " fill="#F5B4E0" transform="translate(216,112)"/>
<path d="M0 0 C7.92 0 15.84 0 24 0 C24 2.64 24 5.28 24 8 C18.72 8 13.44 8 8 8 C8 13.28 8 18.56 8 24 C5.36 24 2.72 24 0 24 C0 16.08 0 8.16 0 0 Z " fill="#F5B4E0" transform="translate(80,104)"/>
<path d="M0 0 C5.28 0 10.56 0 16 0 C16 7.92 16 15.84 16 24 C13.36 24 10.72 24 8 24 C8 21.36 8 18.72 8 16 C5.36 16 2.72 16 0 16 C0 10.72 0 5.44 0 0 Z " fill="#603C8F" transform="translate(64,104)"/>
<path d="M0 0 C5.28 0 10.56 0 16 0 C16 5.28 16 10.56 16 16 C8.08 16 0.16 16 -8 16 C-8 13.36 -8 10.72 -8 8 C-5.36 8 -2.72 8 0 8 C0 5.36 0 2.72 0 0 Z " fill="#9964F9" transform="translate(88,88)"/>
<path d="M0 0 C7.92 0 15.84 0 24 0 C24 2.64 24 5.28 24 8 C21.36 8 18.72 8 16 8 C16 10.64 16 13.28 16 16 C10.72 16 5.44 16 0 16 C0 10.72 0 5.44 0 0 Z " fill="#FFDBF4" transform="translate(64,88)"/>
<path d="M0 0 C5.28 0 10.56 0 16 0 C16 5.28 16 10.56 16 16 C8.08 16 0.16 16 -8 16 C-8 13.36 -8 10.72 -8 8 C-5.36 8 -2.72 8 0 8 C0 5.36 0 2.72 0 0 Z " fill="#9964F9" transform="translate(48,88)"/>
<path d="M0 0 C5.28 0 10.56 0 16 0 C16 2.64 16 5.28 16 8 C18.64 8 21.28 8 24 8 C24 13.28 24 18.56 24 24 C21.36 24 18.72 24 16 24 C16 21.36 16 18.72 16 16 C13.36 16 10.72 16 8 16 C8 13.36 8 10.72 8 8 C5.36 8 2.72 8 0 8 C0 5.36 0 2.72 0 0 Z " fill="#F5B4E0" transform="translate(224,80)"/>
<path d="M0 0 C2.64 0 5.28 0 8 0 C8 7.92 8 15.84 8 24 C2.72 24 -2.56 24 -8 24 C-8 18.72 -8 13.44 -8 8 C-5.36 8 -2.72 8 0 8 C0 5.36 0 2.72 0 0 Z " fill="#603C8F" transform="translate(72,64)"/>
<path d="M0 0 C2.64 0 5.28 0 8 0 C8 5.28 8 10.56 8 16 C0.08 16 -7.84 16 -16 16 C-16 13.36 -16 10.72 -16 8 C-10.72 8 -5.44 8 0 8 C0 5.36 0 2.72 0 0 Z " fill="#4E98EB" transform="translate(160,120)"/>
<path d="M0 0 C5.28 0 10.56 0 16 0 C16 5.28 16 10.56 16 16 C10.72 16 5.44 16 0 16 C0 10.72 0 5.44 0 0 Z " fill="#FFDBF4" transform="translate(200,88)"/>
<path d="M0 0 C5.28 0 10.56 0 16 0 C16 2.64 16 5.28 16 8 C13.36 8 10.72 8 8 8 C8 10.64 8 13.28 8 16 C5.36 16 2.72 16 0 16 C0 10.72 0 5.44 0 0 Z " fill="#2CC2A9" transform="translate(200,112)"/>
<path d="M0 0 C5.28 0 10.56 0 16 0 C16 2.64 16 5.28 16 8 C13.36 8 10.72 8 8 8 C8 10.64 8 13.28 8 16 C5.36 16 2.72 16 0 16 C0 10.72 0 5.44 0 0 Z " fill="#4E98EB" transform="translate(120,112)"/>
<path d="M0 0 C2.64 0 5.28 0 8 0 C8 7.92 8 15.84 8 24 C5.36 24 2.72 24 0 24 C0 16.08 0 8.16 0 0 Z " fill="#FFFFFF" transform="translate(256,88)"/>
<path d="M0 0 C2.64 0 5.28 0 8 0 C8 2.64 8 5.28 8 8 C10.64 8 13.28 8 16 8 C16 10.64 16 13.28 16 16 C10.72 16 5.44 16 0 16 C0 10.72 0 5.44 0 0 Z " fill="#C24B44" transform="translate(224,88)"/>
<path d="M0 0 C5.28 0 10.56 0 16 0 C16 5.28 16 10.56 16 16 C13.36 16 10.72 16 8 16 C8 13.36 8 10.72 8 8 C5.36 8 2.72 8 0 8 C0 5.36 0 2.72 0 0 Z " fill="#4B4DCC" transform="translate(176,88)"/>
<path d="M0 0 C2.64 0 5.28 0 8 0 C8 2.64 8 5.28 8 8 C10.64 8 13.28 8 16 8 C16 10.64 16 13.28 16 16 C10.72 16 5.44 16 0 16 C0 10.72 0 5.44 0 0 Z " fill="#F5B4E0" transform="translate(168,88)"/>
<path d="M0 0 C2.64 0 5.28 0 8 0 C8 7.92 8 15.84 8 24 C5.36 24 2.72 24 0 24 C0 16.08 0 8.16 0 0 Z " fill="#FFFFFF" transform="translate(16,88)"/>
<path d="M0 0 C2.64 0 5.28 0 8 0 C8 2.64 8 5.28 8 8 C10.64 8 13.28 8 16 8 C16 10.64 16 13.28 16 16 C10.72 16 5.44 16 0 16 C0 10.72 0 5.44 0 0 Z " fill="#D6CE26" transform="translate(200,64)"/>
<path d="M0 0 C7.92 0 15.84 0 24 0 C24 2.64 24 5.28 24 8 C16.08 8 8.16 8 0 8 C0 5.36 0 2.72 0 0 Z " fill="#603C8F" transform="translate(168,24)"/>
<path d="M0 0 C7.92 0 15.84 0 24 0 C24 2.64 24 5.28 24 8 C16.08 8 8.16 8 0 8 C0 5.36 0 2.72 0 0 Z " fill="#603C8F" transform="translate(88,24)"/>
<path d="M0 0 C5.28 0 10.56 0 16 0 C16 2.64 16 5.28 16 8 C10.72 8 5.44 8 0 8 C0 5.36 0 2.72 0 0 Z " fill="#F5B4E0" transform="translate(200,128)"/>
<path d="M0 0 C5.28 0 10.56 0 16 0 C16 2.64 16 5.28 16 8 C10.72 8 5.44 8 0 8 C0 5.36 0 2.72 0 0 Z " fill="#F5B4E0" transform="translate(64,128)"/>
<path d="M0 0 C5.28 0 10.56 0 16 0 C16 2.64 16 5.28 16 8 C10.72 8 5.44 8 0 8 C0 5.36 0 2.72 0 0 Z " fill="#4E98EB" transform="translate(144,112)"/>
<path d="M0 0 C5.28 0 10.56 0 16 0 C16 2.64 16 5.28 16 8 C10.72 8 5.44 8 0 8 C0 5.36 0 2.72 0 0 Z " fill="#F5B4E0" transform="translate(224,104)"/>
<path d="M0 0 C5.28 0 10.56 0 16 0 C16 2.64 16 5.28 16 8 C10.72 8 5.44 8 0 8 C0 5.36 0 2.72 0 0 Z " fill="#F5B4E0" transform="translate(176,104)"/>
<path d="M0 0 C2.64 0 5.28 0 8 0 C8 5.28 8 10.56 8 16 C5.36 16 2.72 16 0 16 C0 10.72 0 5.44 0 0 Z " fill="#9964F9" transform="translate(64,104)"/>
<path d="M0 0 C2.64 0 5.28 0 8 0 C8 5.28 8 10.56 8 16 C5.36 16 2.72 16 0 16 C0 10.72 0 5.44 0 0 Z " fill="#F5B4E0" transform="translate(240,88)"/>
<path d="M0 0 C2.64 0 5.28 0 8 0 C8 5.28 8 10.56 8 16 C5.36 16 2.72 16 0 16 C0 10.72 0 5.44 0 0 Z " fill="#F5B4E0" transform="translate(104,88)"/>
<path d="M0 0 C2.64 0 5.28 0 8 0 C8 5.28 8 10.56 8 16 C5.36 16 2.72 16 0 16 C0 10.72 0 5.44 0 0 Z " fill="#603C8F" transform="translate(96,88)"/>
<path d="M0 0 C2.64 0 5.28 0 8 0 C8 5.28 8 10.56 8 16 C5.36 16 2.72 16 0 16 C0 10.72 0 5.44 0 0 Z " fill="#603C8F" transform="translate(56,88)"/>
<path d="M0 0 C5.28 0 10.56 0 16 0 C16 2.64 16 5.28 16 8 C10.72 8 5.44 8 0 8 C0 5.36 0 2.72 0 0 Z " fill="#F5B4E0" transform="translate(176,80)"/>
<path d="M0 0 C2.64 0 5.28 0 8 0 C8 5.28 8 10.56 8 16 C5.36 16 2.72 16 0 16 C0 10.72 0 5.44 0 0 Z " fill="#FFFFFF" transform="translate(248,72)"/>
<path d="M0 0 C2.64 0 5.28 0 8 0 C8 5.28 8 10.56 8 16 C5.36 16 2.72 16 0 16 C0 10.72 0 5.44 0 0 Z " fill="#9964F9" transform="translate(64,72)"/>
<path d="M0 0 C2.64 0 5.28 0 8 0 C8 5.28 8 10.56 8 16 C5.36 16 2.72 16 0 16 C0 10.72 0 5.44 0 0 Z " fill="#FFFFFF" transform="translate(24,72)"/>
<path d="M0 0 C2.64 0 5.28 0 8 0 C8 5.28 8 10.56 8 16 C5.36 16 2.72 16 0 16 C0 10.72 0 5.44 0 0 Z " fill="#9964F9" transform="translate(240,56)"/>
<path d="M0 0 C2.64 0 5.28 0 8 0 C8 5.28 8 10.56 8 16 C5.36 16 2.72 16 0 16 C0 10.72 0 5.44 0 0 Z " fill="#9964F9" transform="translate(32,56)"/>
<path d="M0 0 C5.28 0 10.56 0 16 0 C16 2.64 16 5.28 16 8 C10.72 8 5.44 8 0 8 C0 5.36 0 2.72 0 0 Z " fill="#603C8F" transform="translate(192,32)"/>
<path d="M0 0 C5.28 0 10.56 0 16 0 C16 2.64 16 5.28 16 8 C10.72 8 5.44 8 0 8 C0 5.36 0 2.72 0 0 Z " fill="#603C8F" transform="translate(72,32)"/>
<path d="M0 0 C2.64 0 5.28 0 8 0 C8 2.64 8 5.28 8 8 C5.36 8 2.72 8 0 8 C0 5.36 0 2.72 0 0 Z " fill="#FFFFFF" transform="translate(224,184)"/>
<path d="M0 0 C2.64 0 5.28 0 8 0 C8 2.64 8 5.28 8 8 C5.36 8 2.72 8 0 8 C0 5.36 0 2.72 0 0 Z " fill="#FFFFFF" transform="translate(48,184)"/>
<path d="M0 0 C2.64 0 5.28 0 8 0 C8 2.64 8 5.28 8 8 C5.36 8 2.72 8 0 8 C0 5.36 0 2.72 0 0 Z " fill="#FFFFFF" transform="translate(216,176)"/>
<path d="M0 0 C2.64 0 5.28 0 8 0 C8 2.64 8 5.28 8 8 C5.36 8 2.72 8 0 8 C0 5.36 0 2.72 0 0 Z " fill="#FFFFFF" transform="translate(56,176)"/>
<path d="M0 0 C2.64 0 5.28 0 8 0 C8 2.64 8 5.28 8 8 C5.36 8 2.72 8 0 8 C0 5.36 0 2.72 0 0 Z " fill="#FFFFFF" transform="translate(208,168)"/>
<path d="M0 0 C2.64 0 5.28 0 8 0 C8 2.64 8 5.28 8 8 C5.36 8 2.72 8 0 8 C0 5.36 0 2.72 0 0 Z " fill="#FFFFFF" transform="translate(64,168)"/>
<path d="M0 0 C2.64 0 5.28 0 8 0 C8 2.64 8 5.28 8 8 C5.36 8 2.72 8 0 8 C0 5.36 0 2.72 0 0 Z " fill="#FFDBF4" transform="translate(264,160)"/>
<path d="M0 0 C2.64 0 5.28 0 8 0 C8 2.64 8 5.28 8 8 C5.36 8 2.72 8 0 8 C0 5.36 0 2.72 0 0 Z " fill="#FFDBF4" transform="translate(248,160)"/>
<path d="M0 0 C2.64 0 5.28 0 8 0 C8 2.64 8 5.28 8 8 C5.36 8 2.72 8 0 8 C0 5.36 0 2.72 0 0 Z " fill="#FFFFFF" transform="translate(200,160)"/>
<path d="M0 0 C2.64 0 5.28 0 8 0 C8 2.64 8 5.28 8 8 C5.36 8 2.72 8 0 8 C0 5.36 0 2.72 0 0 Z " fill="#FFFFFF" transform="translate(72,160)"/>
<path d="M0 0 C2.64 0 5.28 0 8 0 C8 2.64 8 5.28 8 8 C5.36 8 2.72 8 0 8 C0 5.36 0 2.72 0 0 Z " fill="#FFDBF4" transform="translate(24,160)"/>
<path d="M0 0 C2.64 0 5.28 0 8 0 C8 2.64 8 5.28 8 8 C5.36 8 2.72 8 0 8 C0 5.36 0 2.72 0 0 Z " fill="#FFDBF4" transform="translate(8,160)"/>
<path d="M0 0 C2.64 0 5.28 0 8 0 C8 2.64 8 5.28 8 8 C5.36 8 2.72 8 0 8 C0 5.36 0 2.72 0 0 Z " fill="#DF6D9B" transform="translate(264,152)"/>
<path d="M0 0 C2.64 0 5.28 0 8 0 C8 2.64 8 5.28 8 8 C5.36 8 2.72 8 0 8 C0 5.36 0 2.72 0 0 Z " fill="#DF6D9B" transform="translate(248,152)"/>
<path d="M0 0 C2.64 0 5.28 0 8 0 C8 2.64 8 5.28 8 8 C5.36 8 2.72 8 0 8 C0 5.36 0 2.72 0 0 Z " fill="#FFDBF4" transform="translate(240,152)"/>
<path d="M0 0 C2.64 0 5.28 0 8 0 C8 2.64 8 5.28 8 8 C5.36 8 2.72 8 0 8 C0 5.36 0 2.72 0 0 Z " fill="#F5B4E0" transform="translate(224,152)"/>
<path d="M0 0 C2.64 0 5.28 0 8 0 C8 2.64 8 5.28 8 8 C5.36 8 2.72 8 0 8 C0 5.36 0 2.72 0 0 Z " fill="#F5B4E0" transform="translate(208,152)"/>
<path d="M0 0 C2.64 0 5.28 0 8 0 C8 2.64 8 5.28 8 8 C5.36 8 2.72 8 0 8 C0 5.36 0 2.72 0 0 Z " fill="#D6568A" transform="translate(200,152)"/>
<path d="M0 0 C2.64 0 5.28 0 8 0 C8 2.64 8 5.28 8 8 C5.36 8 2.72 8 0 8 C0 5.36 0 2.72 0 0 Z " fill="#D6568A" transform="translate(72,152)"/>
<path d="M0 0 C2.64 0 5.28 0 8 0 C8 2.64 8 5.28 8 8 C5.36 8 2.72 8 0 8 C0 5.36 0 2.72 0 0 Z " fill="#F5B4E0" transform="translate(48,152)"/>
<path d="M0 0 C2.64 0 5.28 0 8 0 C8 2.64 8 5.28 8 8 C5.36 8 2.72 8 0 8 C0 5.36 0 2.72 0 0 Z " fill="#FFDBF4" transform="translate(32,152)"/>
<path d="M0 0 C2.64 0 5.28 0 8 0 C8 2.64 8 5.28 8 8 C5.36 8 2.72 8 0 8 C0 5.36 0 2.72 0 0 Z " fill="#DF6D9B" transform="translate(24,152)"/>
<path d="M0 0 C2.64 0 5.28 0 8 0 C8 2.64 8 5.28 8 8 C5.36 8 2.72 8 0 8 C0 5.36 0 2.72 0 0 Z " fill="#FFDBF4" transform="translate(16,152)"/>
<path d="M0 0 C2.64 0 5.28 0 8 0 C8 2.64 8 5.28 8 8 C5.36 8 2.72 8 0 8 C0 5.36 0 2.72 0 0 Z " fill="#DF6D9B" transform="translate(8,152)"/>
<path d="M0 0 C2.64 0 5.28 0 8 0 C8 2.64 8 5.28 8 8 C5.36 8 2.72 8 0 8 C0 5.36 0 2.72 0 0 Z " fill="#DF6D9B" transform="translate(256,144)"/>
<path d="M0 0 C2.64 0 5.28 0 8 0 C8 2.64 8 5.28 8 8 C5.36 8 2.72 8 0 8 C0 5.36 0 2.72 0 0 Z " fill="#DF6D9B" transform="translate(240,144)"/>
<path d="M0 0 C2.64 0 5.28 0 8 0 C8 2.64 8 5.28 8 8 C5.36 8 2.72 8 0 8 C0 5.36 0 2.72 0 0 Z " fill="#D6568A" transform="translate(224,144)"/>
<path d="M0 0 C2.64 0 5.28 0 8 0 C8 2.64 8 5.28 8 8 C5.36 8 2.72 8 0 8 C0 5.36 0 2.72 0 0 Z " fill="#D6568A" transform="translate(208,144)"/>
<path d="M0 0 C2.64 0 5.28 0 8 0 C8 2.64 8 5.28 8 8 C5.36 8 2.72 8 0 8 C0 5.36 0 2.72 0 0 Z " fill="#D6568A" transform="translate(64,144)"/>
<path d="M0 0 C2.64 0 5.28 0 8 0 C8 2.64 8 5.28 8 8 C5.36 8 2.72 8 0 8 C0 5.36 0 2.72 0 0 Z " fill="#F5B4E0" transform="translate(56,144)"/>
<path d="M0 0 C2.64 0 5.28 0 8 0 C8 2.64 8 5.28 8 8 C5.36 8 2.72 8 0 8 C0 5.36 0 2.72 0 0 Z " fill="#D6568A" transform="translate(48,144)"/>
<path d="M0 0 C2.64 0 5.28 0 8 0 C8 2.64 8 5.28 8 8 C5.36 8 2.72 8 0 8 C0 5.36 0 2.72 0 0 Z " fill="#DF6D9B" transform="translate(32,144)"/>
<path d="M0 0 C2.64 0 5.28 0 8 0 C8 2.64 8 5.28 8 8 C5.36 8 2.72 8 0 8 C0 5.36 0 2.72 0 0 Z " fill="#FFDBF4" transform="translate(8,144)"/>
<path d="M0 0 C2.64 0 5.28 0 8 0 C8 2.64 8 5.28 8 8 C5.36 8 2.72 8 0 8 C0 5.36 0 2.72 0 0 Z " fill="#DF6D9B" transform="translate(264,136)"/>
<path d="M0 0 C2.64 0 5.28 0 8 0 C8 2.64 8 5.28 8 8 C5.36 8 2.72 8 0 8 C0 5.36 0 2.72 0 0 Z " fill="#DF6D9B" transform="translate(248,136)"/>
<path d="M0 0 C2.64 0 5.28 0 8 0 C8 2.64 8 5.28 8 8 C5.36 8 2.72 8 0 8 C0 5.36 0 2.72 0 0 Z " fill="#DF6D9B" transform="translate(232,136)"/>
<path d="M0 0 C2.64 0 5.28 0 8 0 C8 2.64 8 5.28 8 8 C5.36 8 2.72 8 0 8 C0 5.36 0 2.72 0 0 Z " fill="#DF6D9B" transform="translate(40,136)"/>
<path d="M0 0 C2.64 0 5.28 0 8 0 C8 2.64 8 5.28 8 8 C5.36 8 2.72 8 0 8 C0 5.36 0 2.72 0 0 Z " fill="#DF6D9B" transform="translate(24,136)"/>
<path d="M0 0 C2.64 0 5.28 0 8 0 C8 2.64 8 5.28 8 8 C5.36 8 2.72 8 0 8 C0 5.36 0 2.72 0 0 Z " fill="#DF6D9B" transform="translate(8,136)"/>
<path d="M0 0 C2.64 0 5.28 0 8 0 C8 2.64 8 5.28 8 8 C5.36 8 2.72 8 0 8 C0 5.36 0 2.72 0 0 Z " fill="#DF6D9B" transform="translate(240,128)"/>
<path d="M0 0 C2.64 0 5.28 0 8 0 C8 2.64 8 5.28 8 8 C5.36 8 2.72 8 0 8 C0 5.36 0 2.72 0 0 Z " fill="#DF6D9B" transform="translate(32,128)"/>
<path d="M0 0 C2.64 0 5.28 0 8 0 C8 2.64 8 5.28 8 8 C5.36 8 2.72 8 0 8 C0 5.36 0 2.72 0 0 Z " fill="#FFFFFF" transform="translate(208,120)"/>
<path d="M0 0 C2.64 0 5.28 0 8 0 C8 2.64 8 5.28 8 8 C5.36 8 2.72 8 0 8 C0 5.36 0 2.72 0 0 Z " fill="#53D6C8" transform="translate(200,120)"/>
<path d="M0 0 C2.64 0 5.28 0 8 0 C8 2.64 8 5.28 8 8 C5.36 8 2.72 8 0 8 C0 5.36 0 2.72 0 0 Z " fill="#7BE2F9" transform="translate(152,120)"/>
<path d="M0 0 C2.64 0 5.28 0 8 0 C8 2.64 8 5.28 8 8 C5.36 8 2.72 8 0 8 C0 5.36 0 2.72 0 0 Z " fill="#FFFFFF" transform="translate(144,120)"/>
<path d="M0 0 C2.64 0 5.28 0 8 0 C8 2.64 8 5.28 8 8 C5.36 8 2.72 8 0 8 C0 5.36 0 2.72 0 0 Z " fill="#FFFFFF" transform="translate(128,120)"/>
<path d="M0 0 C2.64 0 5.28 0 8 0 C8 2.64 8 5.28 8 8 C5.36 8 2.72 8 0 8 C0 5.36 0 2.72 0 0 Z " fill="#7BE2F9" transform="translate(120,120)"/>
<path d="M0 0 C2.64 0 5.28 0 8 0 C8 2.64 8 5.28 8 8 C5.36 8 2.72 8 0 8 C0 5.36 0 2.72 0 0 Z " fill="#FFFFFF" transform="translate(64,120)"/>
<path d="M0 0 C2.64 0 5.28 0 8 0 C8 2.64 8 5.28 8 8 C5.36 8 2.72 8 0 8 C0 5.36 0 2.72 0 0 Z " fill="#FFFFFF" transform="translate(264,112)"/>
<path d="M0 0 C2.64 0 5.28 0 8 0 C8 2.64 8 5.28 8 8 C5.36 8 2.72 8 0 8 C0 5.36 0 2.72 0 0 Z " fill="#FFFFFF" transform="translate(8,112)"/>
<path d="M0 0 C2.64 0 5.28 0 8 0 C8 2.64 8 5.28 8 8 C5.36 8 2.72 8 0 8 C0 5.36 0 2.72 0 0 Z " fill="#FFDBF4" transform="translate(216,104)"/>
<path d="M0 0 C2.64 0 5.28 0 8 0 C8 2.64 8 5.28 8 8 C5.36 8 2.72 8 0 8 C0 5.36 0 2.72 0 0 Z " fill="#FFDBF4" transform="translate(192,104)"/>
<path d="M0 0 C2.64 0 5.28 0 8 0 C8 2.64 8 5.28 8 8 C5.36 8 2.72 8 0 8 C0 5.36 0 2.72 0 0 Z " fill="#DA655E" transform="translate(232,96)"/>
<path d="M0 0 C2.64 0 5.28 0 8 0 C8 2.64 8 5.28 8 8 C5.36 8 2.72 8 0 8 C0 5.36 0 2.72 0 0 Z " fill="#FFFFFF" transform="translate(176,96)"/>
<path d="M0 0 C2.64 0 5.28 0 8 0 C8 2.64 8 5.28 8 8 C5.36 8 2.72 8 0 8 C0 5.36 0 2.72 0 0 Z " fill="#FFFFFF" transform="translate(232,88)"/>
<path d="M0 0 C2.64 0 5.28 0 8 0 C8 2.64 8 5.28 8 8 C5.36 8 2.72 8 0 8 C0 5.36 0 2.72 0 0 Z " fill="#6264DC" transform="translate(176,88)"/>
<path d="M0 0 C2.64 0 5.28 0 8 0 C8 2.64 8 5.28 8 8 C5.36 8 2.72 8 0 8 C0 5.36 0 2.72 0 0 Z " fill="#FFFFFF" transform="translate(80,88)"/>
<path d="M0 0 C2.64 0 5.28 0 8 0 C8 2.64 8 5.28 8 8 C5.36 8 2.72 8 0 8 C0 5.36 0 2.72 0 0 Z " fill="#FFFFFF" transform="translate(40,88)"/>
<path d="M0 0 C2.64 0 5.28 0 8 0 C8 2.64 8 5.28 8 8 C5.36 8 2.72 8 0 8 C0 5.36 0 2.72 0 0 Z " fill="#FFDBF4" transform="translate(216,80)"/>
<path d="M0 0 C2.64 0 5.28 0 8 0 C8 2.64 8 5.28 8 8 C5.36 8 2.72 8 0 8 C0 5.36 0 2.72 0 0 Z " fill="#FFDBF4" transform="translate(192,80)"/>
<path d="M0 0 C2.64 0 5.28 0 8 0 C8 2.64 8 5.28 8 8 C5.36 8 2.72 8 0 8 C0 5.36 0 2.72 0 0 Z " fill="#FFFFFF" transform="translate(208,64)"/>
<path d="M0 0 C2.64 0 5.28 0 8 0 C8 2.64 8 5.28 8 8 C5.36 8 2.72 8 0 8 C0 5.36 0 2.72 0 0 Z " fill="#FBF236" transform="translate(200,64)"/>
<path d="M0 0 C2.64 0 5.28 0 8 0 C8 2.64 8 5.28 8 8 C5.36 8 2.72 8 0 8 C0 5.36 0 2.72 0 0 Z " fill="#FFFFFF" transform="translate(64,64)"/>
<path d="M0 0 C2.64 0 5.28 0 8 0 C8 2.64 8 5.28 8 8 C5.36 8 2.72 8 0 8 C0 5.36 0 2.72 0 0 Z " fill="#FFFFFF" transform="translate(232,56)"/>
<path d="M0 0 C2.64 0 5.28 0 8 0 C8 2.64 8 5.28 8 8 C5.36 8 2.72 8 0 8 C0 5.36 0 2.72 0 0 Z " fill="#FFFFFF" transform="translate(40,56)"/>
<path d="M0 0 C2.64 0 5.28 0 8 0 C8 2.64 8 5.28 8 8 C5.36 8 2.72 8 0 8 C0 5.36 0 2.72 0 0 Z " fill="#9964F9" transform="translate(232,48)"/>
<path d="M0 0 C2.64 0 5.28 0 8 0 C8 2.64 8 5.28 8 8 C5.36 8 2.72 8 0 8 C0 5.36 0 2.72 0 0 Z " fill="#FFFFFF" transform="translate(224,48)"/>
<path d="M0 0 C2.64 0 5.28 0 8 0 C8 2.64 8 5.28 8 8 C5.36 8 2.72 8 0 8 C0 5.36 0 2.72 0 0 Z " fill="#FFFFFF" transform="translate(48,48)"/>
<path d="M0 0 C2.64 0 5.28 0 8 0 C8 2.64 8 5.28 8 8 C5.36 8 2.72 8 0 8 C0 5.36 0 2.72 0 0 Z " fill="#9964F9" transform="translate(40,48)"/>
<path d="M0 0 C2.64 0 5.28 0 8 0 C8 2.64 8 5.28 8 8 C5.36 8 2.72 8 0 8 C0 5.36 0 2.72 0 0 Z " fill="#A2324E" transform="translate(168,24)"/>
<path d="M0 0 C2.64 0 5.28 0 8 0 C8 2.64 8 5.28 8 8 C5.36 8 2.72 8 0 8 C0 5.36 0 2.72 0 0 Z " fill="#A2324E" transform="translate(104,24)"/>
</svg>
