<?xml version="1.0" encoding="UTF-8"?>
<svg version="1.1" xmlns="http://www.w3.org/2000/svg" width="192" height="224">
<path d="M0 0 C7.92 0 15.84 0 24 0 C24 58.08 24 116.16 24 176 C26.64 176 29.28 176 32 176 C32 178.64 32 181.28 32 184 C34.64 184 37.28 184 40 184 C40 189.28 40 194.56 40 200 C34.72 200 29.44 200 24 200 C24 197.36 24 194.72 24 192 C18.72 192 13.44 192 8 192 C8 194.64 8 197.28 8 200 C5.36 200 2.72 200 0 200 C0 202.64 0 205.28 0 208 C-10.56 208 -21.12 208 -32 208 C-32 205.36 -32 202.72 -32 200 C-34.64 200 -37.28 200 -40 200 C-40 197.36 -40 194.72 -40 192 C-42.64 192 -45.28 192 -48 192 C-48 181.44 -48 170.88 -48 160 C-45.36 160 -42.72 160 -40 160 C-40 157.36 -40 154.72 -40 152 C-37.36 152 -34.72 152 -32 152 C-32 146.72 -32 141.44 -32 136 C-34.64 136 -37.28 136 -40 136 C-40 133.36 -40 130.72 -40 128 C-42.64 128 -45.28 128 -48 128 C-48 125.36 -48 122.72 -48 120 C-50.64 120 -53.28 120 -56 120 C-56 117.36 -56 114.72 -56 112 C-58.64 112 -61.28 112 -64 112 C-64 109.36 -64 106.72 -64 104 C-66.64 104 -69.28 104 -72 104 C-72 101.36 -72 98.72 -72 96 C-74.64 96 -77.28 96 -80 96 C-80 132.96 -80 169.92 -80 208 C-82.64 208 -85.28 208 -88 208 C-88 210.64 -88 213.28 -88 216 C-93.28 216 -98.56 216 -104 216 C-104 218.64 -104 221.28 -104 224 C-114.56 224 -125.12 224 -136 224 C-136 221.36 -136 218.72 -136 216 C-138.64 216 -141.28 216 -144 216 C-144 213.36 -144 210.72 -144 208 C-146.64 208 -149.28 208 -152 208 C-152 197.44 -152 186.88 -152 176 C-149.36 176 -146.72 176 -144 176 C-144 173.36 -144 170.72 -144 168 C-141.36 168 -138.72 168 -136 168 C-136 165.36 -136 162.72 -136 160 C-128.08 160 -120.16 160 -112 160 C-112 125.68 -112 91.36 -112 56 C-114.64 56 -117.28 56 -120 56 C-120 53.36 -120 50.72 -120 48 C-122.64 48 -125.28 48 -128 48 C-128 45.36 -128 42.72 -128 40 C-130.64 40 -133.28 40 -136 40 C-136 37.36 -136 34.72 -136 32 C-138.64 32 -141.28 32 -144 32 C-144 26.72 -144 21.44 -144 16 C-138.72 16 -133.44 16 -128 16 C-128 18.64 -128 21.28 -128 24 C-125.36 24 -122.72 24 -120 24 C-120 26.64 -120 29.28 -120 32 C-117.36 32 -114.72 32 -112 32 C-112 34.64 -112 37.28 -112 40 C-106.72 40 -101.44 40 -96 40 C-96 37.36 -96 34.72 -96 32 C-88.08 32 -80.16 32 -72 32 C-72 29.36 -72 26.72 -72 24 C-64.08 24 -56.16 24 -48 24 C-48 21.36 -48 18.72 -48 16 C-40.08 16 -32.16 16 -24 16 C-24 13.36 -24 10.72 -24 8 C-16.08 8 -8.16 8 0 8 C0 5.36 0 2.72 0 0 Z M-16 56 C-16 58.64 -16 61.28 -16 64 C-23.92 64 -31.84 64 -40 64 C-40 66.64 -40 69.28 -40 72 C-47.92 72 -55.84 72 -64 72 C-64 77.28 -64 82.56 -64 88 C-61.36 88 -58.72 88 -56 88 C-56 90.64 -56 93.28 -56 96 C-53.36 96 -50.72 96 -48 96 C-48 98.64 -48 101.28 -48 104 C-45.36 104 -42.72 104 -40 104 C-40 106.64 -40 109.28 -40 112 C-37.36 112 -34.72 112 -32 112 C-32 114.64 -32 117.28 -32 120 C-29.36 120 -26.72 120 -24 120 C-24 122.64 -24 125.28 -24 128 C-21.36 128 -18.72 128 -16 128 C-16 130.64 -16 133.28 -16 136 C-13.36 136 -10.72 136 -8 136 C-8 109.6 -8 83.2 -8 56 C-10.64 56 -13.28 56 -16 56 Z " fill="#8B6AB8" transform="translate(152,0)"/>
<path d="M0 0 C7.92 0 15.84 0 24 0 C24 55.44 24 110.88 24 168 C21.36 168 18.72 168 16 168 C16 149.52 16 131.04 16 112 C13.36 112 10.72 112 8 112 C8 114.64 8 117.28 8 120 C5.36 120 2.72 120 0 120 C0 127.92 0 135.84 0 144 C-2.64 144 -5.28 144 -8 144 C-8 114.96 -8 85.92 -8 56 C-10.64 56 -13.28 56 -16 56 C-16 58.64 -16 61.28 -16 64 C-23.92 64 -31.84 64 -40 64 C-40 66.64 -40 69.28 -40 72 C-47.92 72 -55.84 72 -64 72 C-64 74.64 -64 77.28 -64 80 C-66.64 80 -69.28 80 -72 80 C-72 77.36 -72 74.72 -72 72 C-74.64 72 -77.28 72 -80 72 C-80 69.36 -80 66.72 -80 64 C-82.64 64 -85.28 64 -88 64 C-88 61.36 -88 58.72 -88 56 C-90.64 56 -93.28 56 -96 56 C-96 53.36 -96 50.72 -96 48 C-88.08 48 -80.16 48 -72 48 C-72 45.36 -72 42.72 -72 40 C-64.08 40 -56.16 40 -48 40 C-48 37.36 -48 34.72 -48 32 C-40.08 32 -32.16 32 -24 32 C-24 29.36 -24 26.72 -24 24 C-16.08 24 -8.16 24 0 24 C0 21.36 0 18.72 0 16 C-7.92 16 -15.84 16 -24 16 C-24 13.36 -24 10.72 -24 8 C-16.08 8 -8.16 8 0 8 C0 5.36 0 2.72 0 0 Z " fill="#664099" transform="translate(152,0)"/>
<path d="M0 0 C2.64 0 5.28 0 8 0 C8 2.64 8 5.28 8 8 C10.64 8 13.28 8 16 8 C16 10.64 16 13.28 16 16 C18.64 16 21.28 16 24 16 C24 18.64 24 21.28 24 24 C26.64 24 29.28 24 32 24 C32 63.6 32 103.2 32 144 C29.36 144 26.72 144 24 144 C24 146.64 24 149.28 24 152 C18.72 152 13.44 152 8 152 C8 154.64 8 157.28 8 160 C-2.56 160 -13.12 160 -24 160 C-24 157.36 -24 154.72 -24 152 C-26.64 152 -29.28 152 -32 152 C-32 149.36 -32 146.72 -32 144 C-34.64 144 -37.28 144 -40 144 C-40 133.44 -40 122.88 -40 112 C-37.36 112 -34.72 112 -32 112 C-32 109.36 -32 106.72 -32 104 C-29.36 104 -26.72 104 -24 104 C-24 101.36 -24 98.72 -24 96 C-16.08 96 -8.16 96 0 96 C0 64.32 0 32.64 0 0 Z " fill="#8B6AB8" transform="translate(40,64)"/>
<path d="M0 0 C5.28 0 10.56 0 16 0 C16 2.64 16 5.28 16 8 C18.64 8 21.28 8 24 8 C24 10.64 24 13.28 24 16 C26.64 16 29.28 16 32 16 C32 18.64 32 21.28 32 24 C37.28 24 42.56 24 48 24 C48 21.36 48 18.72 48 16 C55.92 16 63.84 16 72 16 C72 13.36 72 10.72 72 8 C79.92 8 87.84 8 96 8 C96 5.36 96 2.72 96 0 C111.84 0 127.68 0 144 0 C144 2.64 144 5.28 144 8 C136.08 8 128.16 8 120 8 C120 10.64 120 13.28 120 16 C112.08 16 104.16 16 96 16 C96 18.64 96 21.28 96 24 C88.08 24 80.16 24 72 24 C72 26.64 72 29.28 72 32 C64.08 32 56.16 32 48 32 C48 34.64 48 37.28 48 40 C50.64 40 53.28 40 56 40 C56 42.64 56 45.28 56 48 C58.64 48 61.28 48 64 48 C64 50.64 64 53.28 64 56 C66.64 56 69.28 56 72 56 C72 58.64 72 61.28 72 64 C74.64 64 77.28 64 80 64 C80 66.64 80 69.28 80 72 C82.64 72 85.28 72 88 72 C88 74.64 88 77.28 88 80 C90.64 80 93.28 80 96 80 C96 82.64 96 85.28 96 88 C98.64 88 101.28 88 104 88 C104 90.64 104 93.28 104 96 C106.64 96 109.28 96 112 96 C112 98.64 112 101.28 112 104 C114.64 104 117.28 104 120 104 C120 106.64 120 109.28 120 112 C122.64 112 125.28 112 128 112 C128 114.64 128 117.28 128 120 C120.08 120 112.16 120 104 120 C104 117.36 104 114.72 104 112 C101.36 112 98.72 112 96 112 C96 109.36 96 106.72 96 104 C93.36 104 90.72 104 88 104 C88 101.36 88 98.72 88 96 C85.36 96 82.72 96 80 96 C80 93.36 80 90.72 80 88 C77.36 88 74.72 88 72 88 C72 85.36 72 82.72 72 80 C69.36 80 66.72 80 64 80 C64 77.36 64 74.72 64 72 C61.36 72 58.72 72 56 72 C56 69.36 56 66.72 56 64 C53.36 64 50.72 64 48 64 C48 61.36 48 58.72 48 56 C45.36 56 42.72 56 40 56 C40 53.36 40 50.72 40 48 C37.36 48 34.72 48 32 48 C32 45.36 32 42.72 32 40 C29.36 40 26.72 40 24 40 C24 37.36 24 34.72 24 32 C21.36 32 18.72 32 16 32 C16 29.36 16 26.72 16 24 C13.36 24 10.72 24 8 24 C8 21.36 8 18.72 8 16 C5.36 16 2.72 16 0 16 C0 10.72 0 5.44 0 0 Z " fill="#E39B8D" transform="translate(8,16)"/>
<path d="M0 0 C2.64 0 5.28 0 8 0 C8 2.64 8 5.28 8 8 C10.64 8 13.28 8 16 8 C16 10.64 16 13.28 16 16 C18.64 16 21.28 16 24 16 C24 18.64 24 21.28 24 24 C26.64 24 29.28 24 32 24 C32 63.6 32 103.2 32 144 C29.36 144 26.72 144 24 144 C24 120.24 24 96.48 24 72 C21.36 72 18.72 72 16 72 C16 74.64 16 77.28 16 80 C13.36 80 10.72 80 8 80 C8 87.92 8 95.84 8 104 C-2.56 104 -13.12 104 -24 104 C-24 101.36 -24 98.72 -24 96 C-16.08 96 -8.16 96 0 96 C0 64.32 0 32.64 0 0 Z " fill="#664099" transform="translate(40,64)"/>
<path d="M0 0 C2.64 0 5.28 0 8 0 C8 5.28 8 10.56 8 16 C10.64 16 13.28 16 16 16 C16 18.64 16 21.28 16 24 C21.28 24 26.56 24 32 24 C32 21.36 32 18.72 32 16 C34.64 16 37.28 16 40 16 C40 21.28 40 26.56 40 32 C34.72 32 29.44 32 24 32 C24 34.64 24 37.28 24 40 C21.36 40 18.72 40 16 40 C16 42.64 16 45.28 16 48 C23.92 48 31.84 48 40 48 C40 50.64 40 53.28 40 56 C29.44 56 18.88 56 8 56 C8 53.36 8 50.72 8 48 C5.36 48 2.72 48 0 48 C0 45.36 0 42.72 0 40 C-2.64 40 -5.28 40 -8 40 C-8 29.44 -8 18.88 -8 8 C-5.36 8 -2.72 8 0 8 C0 5.36 0 2.72 0 0 Z " fill="#8B6AB8" transform="translate(112,152)"/>
<path d="M0 0 C7.92 0 15.84 0 24 0 C24 55.44 24 110.88 24 168 C21.36 168 18.72 168 16 168 C16 115.2 16 62.4 16 8 C10.72 8 5.44 8 0 8 C0 5.36 0 2.72 0 0 Z " fill="#492B70" transform="translate(152,0)"/>
<path d="M0 0 C7.92 0 15.84 0 24 0 C24 2.64 24 5.28 24 8 C26.64 8 29.28 8 32 8 C32 10.64 32 13.28 32 16 C34.64 16 37.28 16 40 16 C40 21.28 40 26.56 40 32 C34.72 32 29.44 32 24 32 C24 29.36 24 26.72 24 24 C18.72 24 13.44 24 8 24 C8 26.64 8 29.28 8 32 C-2.56 32 -13.12 32 -24 32 C-24 29.36 -24 26.72 -24 24 C-21.36 24 -18.72 24 -16 24 C-16 21.36 -16 18.72 -16 16 C-10.72 16 -5.44 16 0 16 C0 10.72 0 5.44 0 0 Z " fill="#E39B8D" transform="translate(152,168)"/>
<path d="M0 0 C15.84 0 31.68 0 48 0 C48 2.64 48 5.28 48 8 C40.08 8 32.16 8 24 8 C24 10.64 24 13.28 24 16 C16.08 16 8.16 16 0 16 C0 18.64 0 21.28 0 24 C-15.84 24 -31.68 24 -48 24 C-48 21.36 -48 18.72 -48 16 C-40.08 16 -32.16 16 -24 16 C-24 13.36 -24 10.72 -24 8 C-16.08 8 -8.16 8 0 8 C0 5.36 0 2.72 0 0 Z " fill="#FFFFFF" transform="translate(104,16)"/>
<path d="M0 0 C2.64 0 5.28 0 8 0 C8 34.32 8 68.64 8 104 C-2.56 104 -13.12 104 -24 104 C-24 101.36 -24 98.72 -24 96 C-16.08 96 -8.16 96 0 96 C0 64.32 0 32.64 0 0 Z " fill="#492B70" transform="translate(40,64)"/>
<path d="M0 0 C5.28 0 10.56 0 16 0 C16 2.64 16 5.28 16 8 C18.64 8 21.28 8 24 8 C24 10.64 24 13.28 24 16 C26.64 16 29.28 16 32 16 C32 18.64 32 21.28 32 24 C45.2 24 58.4 24 72 24 C72 26.64 72 29.28 72 32 C64.08 32 56.16 32 48 32 C48 34.64 48 37.28 48 40 C45.36 40 42.72 40 40 40 C40 37.36 40 34.72 40 32 C32.08 32 24.16 32 16 32 C16 29.36 16 26.72 16 24 C13.36 24 10.72 24 8 24 C8 21.36 8 18.72 8 16 C5.36 16 2.72 16 0 16 C0 10.72 0 5.44 0 0 Z " fill="#E39B8D" transform="translate(8,16)"/>
<path d="M0 0 C2.64 0 5.28 0 8 0 C8 39.6 8 79.2 8 120 C5.36 120 2.72 120 0 120 C0 80.4 0 40.8 0 0 Z " fill="#492B70" transform="translate(64,88)"/>
<path d="M0 0 C5.28 0 10.56 0 16 0 C16 31.68 16 63.36 16 96 C13.36 96 10.72 96 8 96 C8 66.96 8 37.92 8 8 C5.36 8 2.72 8 0 8 C0 5.36 0 2.72 0 0 Z " fill="#492B70" transform="translate(136,48)"/>
<path d="M0 0 C2.64 0 5.28 0 8 0 C8 10.56 8 21.12 8 32 C-5.2 32 -18.4 32 -32 32 C-32 29.36 -32 26.72 -32 24 C-29.36 24 -26.72 24 -24 24 C-24 21.36 -24 18.72 -24 16 C-18.72 16 -13.44 16 -8 16 C-8 13.36 -8 10.72 -8 8 C-5.36 8 -2.72 8 0 8 C0 5.36 0 2.72 0 0 Z " fill="#DCAAFF" transform="translate(56,184)"/>
<path d="M0 0 C2.64 0 5.28 0 8 0 C8 7.92 8 15.84 8 24 C-2.56 24 -13.12 24 -24 24 C-24 21.36 -24 18.72 -24 16 C-21.36 16 -18.72 16 -16 16 C-16 13.36 -16 10.72 -16 8 C-10.72 8 -5.44 8 0 8 C0 5.36 0 2.72 0 0 Z " fill="#DCAAFF" transform="translate(152,176)"/>
<path d="M0 0 C5.28 0 10.56 0 16 0 C16 2.64 16 5.28 16 8 C18.64 8 21.28 8 24 8 C24 15.92 24 23.84 24 32 C21.36 32 18.72 32 16 32 C16 29.36 16 26.72 16 24 C13.36 24 10.72 24 8 24 C8 21.36 8 18.72 8 16 C5.36 16 2.72 16 0 16 C0 10.72 0 5.44 0 0 Z " fill="#E39B8D" transform="translate(8,16)"/>
<path d="M0 0 C2.64 0 5.28 0 8 0 C8 2.64 8 5.28 8 8 C10.64 8 13.28 8 16 8 C16 13.28 16 18.56 16 24 C13.36 24 10.72 24 8 24 C8 26.64 8 29.28 8 32 C5.36 32 2.72 32 0 32 C0 21.44 0 10.88 0 0 Z " fill="#664099" transform="translate(152,88)"/>
<path d="M0 0 C10.56 0 21.12 0 32 0 C32 2.64 32 5.28 32 8 C21.44 8 10.88 8 0 8 C0 5.36 0 2.72 0 0 Z " fill="#492B70" transform="translate(16,216)"/>
<path d="M0 0 C10.56 0 21.12 0 32 0 C32 2.64 32 5.28 32 8 C21.44 8 10.88 8 0 8 C0 5.36 0 2.72 0 0 Z " fill="#492B70" transform="translate(120,200)"/>
<path d="M0 0 C2.64 0 5.28 0 8 0 C8 10.56 8 21.12 8 32 C5.36 32 2.72 32 0 32 C0 21.44 0 10.88 0 0 Z " fill="#492B70" transform="translate(0,176)"/>
<path d="M0 0 C5.28 0 10.56 0 16 0 C16 5.28 16 10.56 16 16 C10.72 16 5.44 16 0 16 C0 10.72 0 5.44 0 0 Z " fill="#FFFFFF" transform="translate(16,168)"/>
<path d="M0 0 C2.64 0 5.28 0 8 0 C8 10.56 8 21.12 8 32 C5.36 32 2.72 32 0 32 C0 21.44 0 10.88 0 0 Z " fill="#492B70" transform="translate(104,160)"/>
<path d="M0 0 C5.28 0 10.56 0 16 0 C16 5.28 16 10.56 16 16 C10.72 16 5.44 16 0 16 C0 10.72 0 5.44 0 0 Z " fill="#FFFFFF" transform="translate(120,152)"/>
<path d="M0 0 C5.28 0 10.56 0 16 0 C16 5.28 16 10.56 16 16 C10.72 16 5.44 16 0 16 C0 10.72 0 5.44 0 0 Z " fill="#DC534B" transform="translate(120,136)"/>
<path d="M0 0 C2.64 0 5.28 0 8 0 C8 2.64 8 5.28 8 8 C10.64 8 13.28 8 16 8 C16 10.64 16 13.28 16 16 C10.72 16 5.44 16 0 16 C0 10.72 0 5.44 0 0 Z " fill="#E39B8D" transform="translate(168,168)"/>
<path d="M0 0 C2.64 0 5.28 0 8 0 C8 5.28 8 10.56 8 16 C2.72 16 -2.56 16 -8 16 C-8 13.36 -8 10.72 -8 8 C-5.36 8 -2.72 8 0 8 C0 5.36 0 2.72 0 0 Z " fill="#B790EB" transform="translate(32,176)"/>
<path d="M0 0 C2.64 0 5.28 0 8 0 C8 2.64 8 5.28 8 8 C10.64 8 13.28 8 16 8 C16 10.64 16 13.28 16 16 C10.72 16 5.44 16 0 16 C0 10.72 0 5.44 0 0 Z " fill="#E39B8D" transform="translate(152,152)"/>
<path d="M0 0 C2.64 0 5.28 0 8 0 C8 5.28 8 10.56 8 16 C2.72 16 -2.56 16 -8 16 C-8 13.36 -8 10.72 -8 8 C-5.36 8 -2.72 8 0 8 C0 5.36 0 2.72 0 0 Z " fill="#B790EB" transform="translate(136,160)"/>
<path d="M0 0 C5.28 0 10.56 0 16 0 C16 5.28 16 10.56 16 16 C13.36 16 10.72 16 8 16 C8 13.36 8 10.72 8 8 C5.36 8 2.72 8 0 8 C0 5.36 0 2.72 0 0 Z " fill="#E39B8D" transform="translate(136,152)"/>
<path d="M0 0 C2.64 0 5.28 0 8 0 C8 2.64 8 5.28 8 8 C10.64 8 13.28 8 16 8 C16 10.64 16 13.28 16 16 C10.72 16 5.44 16 0 16 C0 10.72 0 5.44 0 0 Z " fill="#E39B8D" transform="translate(136,136)"/>
<path d="M0 0 C2.64 0 5.28 0 8 0 C8 2.64 8 5.28 8 8 C10.64 8 13.28 8 16 8 C16 10.64 16 13.28 16 16 C10.72 16 5.44 16 0 16 C0 10.72 0 5.44 0 0 Z " fill="#E39B8D" transform="translate(120,120)"/>
<path d="M0 0 C5.28 0 10.56 0 16 0 C16 5.28 16 10.56 16 16 C13.36 16 10.72 16 8 16 C8 13.36 8 10.72 8 8 C5.36 8 2.72 8 0 8 C0 5.36 0 2.72 0 0 Z " fill="#E39B8D" transform="translate(104,120)"/>
<path d="M0 0 C2.64 0 5.28 0 8 0 C8 2.64 8 5.28 8 8 C10.64 8 13.28 8 16 8 C16 10.64 16 13.28 16 16 C10.72 16 5.44 16 0 16 C0 10.72 0 5.44 0 0 Z " fill="#E39B8D" transform="translate(104,104)"/>
<path d="M0 0 C5.28 0 10.56 0 16 0 C16 5.28 16 10.56 16 16 C13.36 16 10.72 16 8 16 C8 13.36 8 10.72 8 8 C5.36 8 2.72 8 0 8 C0 5.36 0 2.72 0 0 Z " fill="#E39B8D" transform="translate(88,104)"/>
<path d="M0 0 C2.64 0 5.28 0 8 0 C8 2.64 8 5.28 8 8 C10.64 8 13.28 8 16 8 C16 10.64 16 13.28 16 16 C10.72 16 5.44 16 0 16 C0 10.72 0 5.44 0 0 Z " fill="#E39B8D" transform="translate(88,88)"/>
<path d="M0 0 C5.28 0 10.56 0 16 0 C16 5.28 16 10.56 16 16 C13.36 16 10.72 16 8 16 C8 13.36 8 10.72 8 8 C5.36 8 2.72 8 0 8 C0 5.36 0 2.72 0 0 Z " fill="#E39B8D" transform="translate(72,88)"/>
<path d="M0 0 C2.64 0 5.28 0 8 0 C8 2.64 8 5.28 8 8 C10.64 8 13.28 8 16 8 C16 10.64 16 13.28 16 16 C10.72 16 5.44 16 0 16 C0 10.72 0 5.44 0 0 Z " fill="#E39B8D" transform="translate(72,72)"/>
<path d="M0 0 C5.28 0 10.56 0 16 0 C16 5.28 16 10.56 16 16 C13.36 16 10.72 16 8 16 C8 13.36 8 10.72 8 8 C5.36 8 2.72 8 0 8 C0 5.36 0 2.72 0 0 Z " fill="#E39B8D" transform="translate(56,72)"/>
<path d="M0 0 C7.92 0 15.84 0 24 0 C24 2.64 24 5.28 24 8 C16.08 8 8.16 8 0 8 C0 5.36 0 2.72 0 0 Z " fill="#492B70" transform="translate(88,64)"/>
<path d="M0 0 C2.64 0 5.28 0 8 0 C8 2.64 8 5.28 8 8 C10.64 8 13.28 8 16 8 C16 10.64 16 13.28 16 16 C10.72 16 5.44 16 0 16 C0 10.72 0 5.44 0 0 Z " fill="#E39B8D" transform="translate(56,56)"/>
<path d="M0 0 C7.92 0 15.84 0 24 0 C24 2.64 24 5.28 24 8 C16.08 8 8.16 8 0 8 C0 5.36 0 2.72 0 0 Z " fill="#492B70" transform="translate(112,56)"/>
<path d="M0 0 C7.92 0 15.84 0 24 0 C24 2.64 24 5.28 24 8 C16.08 8 8.16 8 0 8 C0 5.36 0 2.72 0 0 Z " fill="#FFFFFF" transform="translate(56,40)"/>
<path d="M0 0 C7.92 0 15.84 0 24 0 C24 2.64 24 5.28 24 8 C16.08 8 8.16 8 0 8 C0 5.36 0 2.72 0 0 Z " fill="#492B70" transform="translate(56,32)"/>
<path d="M0 0 C5.28 0 10.56 0 16 0 C16 5.28 16 10.56 16 16 C13.36 16 10.72 16 8 16 C8 13.36 8 10.72 8 8 C5.36 8 2.72 8 0 8 C0 5.36 0 2.72 0 0 Z " fill="#E39B8D" transform="translate(16,32)"/>
<path d="M0 0 C7.92 0 15.84 0 24 0 C24 2.64 24 5.28 24 8 C16.08 8 8.16 8 0 8 C0 5.36 0 2.72 0 0 Z " fill="#492B70" transform="translate(80,24)"/>
<path d="M0 0 C7.92 0 15.84 0 24 0 C24 2.64 24 5.28 24 8 C16.08 8 8.16 8 0 8 C0 5.36 0 2.72 0 0 Z " fill="#492B70" transform="translate(104,16)"/>
<path d="M0 0 C7.92 0 15.84 0 24 0 C24 2.64 24 5.28 24 8 C16.08 8 8.16 8 0 8 C0 5.36 0 2.72 0 0 Z " fill="#492B70" transform="translate(128,8)"/>
<path d="M0 0 C5.28 0 10.56 0 16 0 C16 2.64 16 5.28 16 8 C10.72 8 5.44 8 0 8 C0 5.36 0 2.72 0 0 Z " fill="#492B70" transform="translate(48,208)"/>
<path d="M0 0 C2.64 0 5.28 0 8 0 C8 5.28 8 10.56 8 16 C5.36 16 2.72 16 0 16 C0 10.72 0 5.44 0 0 Z " fill="#E39B8D" transform="translate(184,184)"/>
<path d="M0 0 C2.64 0 5.28 0 8 0 C8 5.28 8 10.56 8 16 C5.36 16 2.72 16 0 16 C0 10.72 0 5.44 0 0 Z " fill="#DC534B" transform="translate(176,184)"/>
<path d="M0 0 C5.28 0 10.56 0 16 0 C16 2.64 16 5.28 16 8 C10.72 8 5.44 8 0 8 C0 5.36 0 2.72 0 0 Z " fill="#DC534B" transform="translate(160,184)"/>
<path d="M0 0 C5.28 0 10.56 0 16 0 C16 2.64 16 5.28 16 8 C10.72 8 5.44 8 0 8 C0 5.36 0 2.72 0 0 Z " fill="#E39B8D" transform="translate(120,136)"/>
<path d="M0 0 C2.64 0 5.28 0 8 0 C8 5.28 8 10.56 8 16 C5.36 16 2.72 16 0 16 C0 10.72 0 5.44 0 0 Z " fill="#DC534B" transform="translate(8,16)"/>
<path d="M0 0 C5.28 0 10.56 0 16 0 C16 2.64 16 5.28 16 8 C10.72 8 5.44 8 0 8 C0 5.36 0 2.72 0 0 Z " fill="#FFFFFF" transform="translate(152,8)"/>
<path d="M0 0 C2.64 0 5.28 0 8 0 C8 2.64 8 5.28 8 8 C5.36 8 2.72 8 0 8 C0 5.36 0 2.72 0 0 Z " fill="#492B70" transform="translate(8,208)"/>
<path d="M0 0 C2.64 0 5.28 0 8 0 C8 2.64 8 5.28 8 8 C5.36 8 2.72 8 0 8 C0 5.36 0 2.72 0 0 Z " fill="#492B70" transform="translate(152,192)"/>
<path d="M0 0 C2.64 0 5.28 0 8 0 C8 2.64 8 5.28 8 8 C5.36 8 2.72 8 0 8 C0 5.36 0 2.72 0 0 Z " fill="#492B70" transform="translate(112,192)"/>
<path d="M0 0 C2.64 0 5.28 0 8 0 C8 2.64 8 5.28 8 8 C5.36 8 2.72 8 0 8 C0 5.36 0 2.72 0 0 Z " fill="#FFFFFF" transform="translate(184,184)"/>
<path d="M0 0 C2.64 0 5.28 0 8 0 C8 2.64 8 5.28 8 8 C5.36 8 2.72 8 0 8 C0 5.36 0 2.72 0 0 Z " fill="#E39B8D" transform="translate(176,184)"/>
<path d="M0 0 C2.64 0 5.28 0 8 0 C8 2.64 8 5.28 8 8 C5.36 8 2.72 8 0 8 C0 5.36 0 2.72 0 0 Z " fill="#492B70" transform="translate(160,184)"/>
<path d="M0 0 C2.64 0 5.28 0 8 0 C8 2.64 8 5.28 8 8 C5.36 8 2.72 8 0 8 C0 5.36 0 2.72 0 0 Z " fill="#FFFFFF" transform="translate(176,176)"/>
<path d="M0 0 C2.64 0 5.28 0 8 0 C8 2.64 8 5.28 8 8 C5.36 8 2.72 8 0 8 C0 5.36 0 2.72 0 0 Z " fill="#DC534B" transform="translate(160,176)"/>
<path d="M0 0 C2.64 0 5.28 0 8 0 C8 2.64 8 5.28 8 8 C5.36 8 2.72 8 0 8 C0 5.36 0 2.72 0 0 Z " fill="#FFFFFF" transform="translate(168,168)"/>
<path d="M0 0 C2.64 0 5.28 0 8 0 C8 2.64 8 5.28 8 8 C5.36 8 2.72 8 0 8 C0 5.36 0 2.72 0 0 Z " fill="#DC534B" transform="translate(152,168)"/>
<path d="M0 0 C2.64 0 5.28 0 8 0 C8 2.64 8 5.28 8 8 C5.36 8 2.72 8 0 8 C0 5.36 0 2.72 0 0 Z " fill="#492B70" transform="translate(8,168)"/>
<path d="M0 0 C2.64 0 5.28 0 8 0 C8 2.64 8 5.28 8 8 C5.36 8 2.72 8 0 8 C0 5.36 0 2.72 0 0 Z " fill="#FFFFFF" transform="translate(160,160)"/>
<path d="M0 0 C2.64 0 5.28 0 8 0 C8 2.64 8 5.28 8 8 C5.36 8 2.72 8 0 8 C0 5.36 0 2.72 0 0 Z " fill="#DC534B" transform="translate(144,160)"/>
<path d="M0 0 C2.64 0 5.28 0 8 0 C8 2.64 8 5.28 8 8 C5.36 8 2.72 8 0 8 C0 5.36 0 2.72 0 0 Z " fill="#FFFFFF" transform="translate(152,152)"/>
<path d="M0 0 C2.64 0 5.28 0 8 0 C8 2.64 8 5.28 8 8 C5.36 8 2.72 8 0 8 C0 5.36 0 2.72 0 0 Z " fill="#DC534B" transform="translate(136,152)"/>
<path d="M0 0 C2.64 0 5.28 0 8 0 C8 2.64 8 5.28 8 8 C5.36 8 2.72 8 0 8 C0 5.36 0 2.72 0 0 Z " fill="#492B70" transform="translate(112,152)"/>
<path d="M0 0 C2.64 0 5.28 0 8 0 C8 2.64 8 5.28 8 8 C5.36 8 2.72 8 0 8 C0 5.36 0 2.72 0 0 Z " fill="#FFFFFF" transform="translate(144,144)"/>
<path d="M0 0 C2.64 0 5.28 0 8 0 C8 2.64 8 5.28 8 8 C5.36 8 2.72 8 0 8 C0 5.36 0 2.72 0 0 Z " fill="#492B70" transform="translate(120,144)"/>
<path d="M0 0 C2.64 0 5.28 0 8 0 C8 2.64 8 5.28 8 8 C5.36 8 2.72 8 0 8 C0 5.36 0 2.72 0 0 Z " fill="#FFFFFF" transform="translate(136,136)"/>
<path d="M0 0 C2.64 0 5.28 0 8 0 C8 2.64 8 5.28 8 8 C5.36 8 2.72 8 0 8 C0 5.36 0 2.72 0 0 Z " fill="#DC534B" transform="translate(120,136)"/>
<path d="M0 0 C2.64 0 5.28 0 8 0 C8 2.64 8 5.28 8 8 C5.36 8 2.72 8 0 8 C0 5.36 0 2.72 0 0 Z " fill="#664099" transform="translate(48,136)"/>
<path d="M0 0 C2.64 0 5.28 0 8 0 C8 2.64 8 5.28 8 8 C5.36 8 2.72 8 0 8 C0 5.36 0 2.72 0 0 Z " fill="#FFFFFF" transform="translate(128,128)"/>
<path d="M0 0 C2.64 0 5.28 0 8 0 C8 2.64 8 5.28 8 8 C5.36 8 2.72 8 0 8 C0 5.36 0 2.72 0 0 Z " fill="#DC534B" transform="translate(112,128)"/>
<path d="M0 0 C2.64 0 5.28 0 8 0 C8 2.64 8 5.28 8 8 C5.36 8 2.72 8 0 8 C0 5.36 0 2.72 0 0 Z " fill="#664099" transform="translate(56,128)"/>
<path d="M0 0 C2.64 0 5.28 0 8 0 C8 2.64 8 5.28 8 8 C5.36 8 2.72 8 0 8 C0 5.36 0 2.72 0 0 Z " fill="#8B6AB8" transform="translate(48,128)"/>
<path d="M0 0 C2.64 0 5.28 0 8 0 C8 2.64 8 5.28 8 8 C5.36 8 2.72 8 0 8 C0 5.36 0 2.72 0 0 Z " fill="#FFFFFF" transform="translate(120,120)"/>
<path d="M0 0 C2.64 0 5.28 0 8 0 C8 2.64 8 5.28 8 8 C5.36 8 2.72 8 0 8 C0 5.36 0 2.72 0 0 Z " fill="#DC534B" transform="translate(104,120)"/>
<path d="M0 0 C2.64 0 5.28 0 8 0 C8 2.64 8 5.28 8 8 C5.36 8 2.72 8 0 8 C0 5.36 0 2.72 0 0 Z " fill="#8B6AB8" transform="translate(56,120)"/>
<path d="M0 0 C2.64 0 5.28 0 8 0 C8 2.64 8 5.28 8 8 C5.36 8 2.72 8 0 8 C0 5.36 0 2.72 0 0 Z " fill="#664099" transform="translate(152,112)"/>
<path d="M0 0 C2.64 0 5.28 0 8 0 C8 2.64 8 5.28 8 8 C5.36 8 2.72 8 0 8 C0 5.36 0 2.72 0 0 Z " fill="#FFFFFF" transform="translate(112,112)"/>
<path d="M0 0 C2.64 0 5.28 0 8 0 C8 2.64 8 5.28 8 8 C5.36 8 2.72 8 0 8 C0 5.36 0 2.72 0 0 Z " fill="#DC534B" transform="translate(96,112)"/>
<path d="M0 0 C2.64 0 5.28 0 8 0 C8 2.64 8 5.28 8 8 C5.36 8 2.72 8 0 8 C0 5.36 0 2.72 0 0 Z " fill="#8B6AB8" transform="translate(48,112)"/>
<path d="M0 0 C2.64 0 5.28 0 8 0 C8 2.64 8 5.28 8 8 C5.36 8 2.72 8 0 8 C0 5.36 0 2.72 0 0 Z " fill="#664099" transform="translate(160,104)"/>
<path d="M0 0 C2.64 0 5.28 0 8 0 C8 2.64 8 5.28 8 8 C5.36 8 2.72 8 0 8 C0 5.36 0 2.72 0 0 Z " fill="#8B6AB8" transform="translate(152,104)"/>
<path d="M0 0 C2.64 0 5.28 0 8 0 C8 2.64 8 5.28 8 8 C5.36 8 2.72 8 0 8 C0 5.36 0 2.72 0 0 Z " fill="#FFFFFF" transform="translate(104,104)"/>
<path d="M0 0 C2.64 0 5.28 0 8 0 C8 2.64 8 5.28 8 8 C5.36 8 2.72 8 0 8 C0 5.36 0 2.72 0 0 Z " fill="#DC534B" transform="translate(88,104)"/>
<path d="M0 0 C2.64 0 5.28 0 8 0 C8 2.64 8 5.28 8 8 C5.36 8 2.72 8 0 8 C0 5.36 0 2.72 0 0 Z " fill="#8B6AB8" transform="translate(160,96)"/>
<path d="M0 0 C2.64 0 5.28 0 8 0 C8 2.64 8 5.28 8 8 C5.36 8 2.72 8 0 8 C0 5.36 0 2.72 0 0 Z " fill="#FFFFFF" transform="translate(96,96)"/>
<path d="M0 0 C2.64 0 5.28 0 8 0 C8 2.64 8 5.28 8 8 C5.36 8 2.72 8 0 8 C0 5.36 0 2.72 0 0 Z " fill="#DC534B" transform="translate(80,96)"/>
<path d="M0 0 C2.64 0 5.28 0 8 0 C8 2.64 8 5.28 8 8 C5.36 8 2.72 8 0 8 C0 5.36 0 2.72 0 0 Z " fill="#8B6AB8" transform="translate(152,88)"/>
<path d="M0 0 C2.64 0 5.28 0 8 0 C8 2.64 8 5.28 8 8 C5.36 8 2.72 8 0 8 C0 5.36 0 2.72 0 0 Z " fill="#FFFFFF" transform="translate(88,88)"/>
<path d="M0 0 C2.64 0 5.28 0 8 0 C8 2.64 8 5.28 8 8 C5.36 8 2.72 8 0 8 C0 5.36 0 2.72 0 0 Z " fill="#DC534B" transform="translate(72,88)"/>
<path d="M0 0 C2.64 0 5.28 0 8 0 C8 2.64 8 5.28 8 8 C5.36 8 2.72 8 0 8 C0 5.36 0 2.72 0 0 Z " fill="#FFFFFF" transform="translate(80,80)"/>
<path d="M0 0 C2.64 0 5.28 0 8 0 C8 2.64 8 5.28 8 8 C5.36 8 2.72 8 0 8 C0 5.36 0 2.72 0 0 Z " fill="#DC534B" transform="translate(64,80)"/>
<path d="M0 0 C2.64 0 5.28 0 8 0 C8 2.64 8 5.28 8 8 C5.36 8 2.72 8 0 8 C0 5.36 0 2.72 0 0 Z " fill="#492B70" transform="translate(80,72)"/>
<path d="M0 0 C2.64 0 5.28 0 8 0 C8 2.64 8 5.28 8 8 C5.36 8 2.72 8 0 8 C0 5.36 0 2.72 0 0 Z " fill="#FFFFFF" transform="translate(72,72)"/>
<path d="M0 0 C2.64 0 5.28 0 8 0 C8 2.64 8 5.28 8 8 C5.36 8 2.72 8 0 8 C0 5.36 0 2.72 0 0 Z " fill="#DC534B" transform="translate(56,72)"/>
<path d="M0 0 C2.64 0 5.28 0 8 0 C8 2.64 8 5.28 8 8 C5.36 8 2.72 8 0 8 C0 5.36 0 2.72 0 0 Z " fill="#FFFFFF" transform="translate(64,64)"/>
<path d="M0 0 C2.64 0 5.28 0 8 0 C8 2.64 8 5.28 8 8 C5.36 8 2.72 8 0 8 C0 5.36 0 2.72 0 0 Z " fill="#DC534B" transform="translate(48,64)"/>
<path d="M0 0 C2.64 0 5.28 0 8 0 C8 2.64 8 5.28 8 8 C5.36 8 2.72 8 0 8 C0 5.36 0 2.72 0 0 Z " fill="#FFFFFF" transform="translate(56,56)"/>
<path d="M0 0 C2.64 0 5.28 0 8 0 C8 2.64 8 5.28 8 8 C5.36 8 2.72 8 0 8 C0 5.36 0 2.72 0 0 Z " fill="#E39B8D" transform="translate(48,56)"/>
<path d="M0 0 C2.64 0 5.28 0 8 0 C8 2.64 8 5.28 8 8 C5.36 8 2.72 8 0 8 C0 5.36 0 2.72 0 0 Z " fill="#DC534B" transform="translate(40,56)"/>
<path d="M0 0 C2.64 0 5.28 0 8 0 C8 2.64 8 5.28 8 8 C5.36 8 2.72 8 0 8 C0 5.36 0 2.72 0 0 Z " fill="#FFFFFF" transform="translate(48,48)"/>
<path d="M0 0 C2.64 0 5.28 0 8 0 C8 2.64 8 5.28 8 8 C5.36 8 2.72 8 0 8 C0 5.36 0 2.72 0 0 Z " fill="#DC534B" transform="translate(32,48)"/>
<path d="M0 0 C2.64 0 5.28 0 8 0 C8 2.64 8 5.28 8 8 C5.36 8 2.72 8 0 8 C0 5.36 0 2.72 0 0 Z " fill="#492B70" transform="translate(48,40)"/>
<path d="M0 0 C2.64 0 5.28 0 8 0 C8 2.64 8 5.28 8 8 C5.36 8 2.72 8 0 8 C0 5.36 0 2.72 0 0 Z " fill="#FFFFFF" transform="translate(40,40)"/>
<path d="M0 0 C2.64 0 5.28 0 8 0 C8 2.64 8 5.28 8 8 C5.36 8 2.72 8 0 8 C0 5.36 0 2.72 0 0 Z " fill="#DC534B" transform="translate(24,40)"/>
<path d="M0 0 C2.64 0 5.28 0 8 0 C8 2.64 8 5.28 8 8 C5.36 8 2.72 8 0 8 C0 5.36 0 2.72 0 0 Z " fill="#FFFFFF" transform="translate(32,32)"/>
<path d="M0 0 C2.64 0 5.28 0 8 0 C8 2.64 8 5.28 8 8 C5.36 8 2.72 8 0 8 C0 5.36 0 2.72 0 0 Z " fill="#DC534B" transform="translate(16,32)"/>
<path d="M0 0 C2.64 0 5.28 0 8 0 C8 2.64 8 5.28 8 8 C5.36 8 2.72 8 0 8 C0 5.36 0 2.72 0 0 Z " fill="#FFFFFF" transform="translate(24,24)"/>
<path d="M0 0 C2.64 0 5.28 0 8 0 C8 2.64 8 5.28 8 8 C5.36 8 2.72 8 0 8 C0 5.36 0 2.72 0 0 Z " fill="#FFFFFF" transform="translate(16,16)"/>
<path d="M0 0 C2.64 0 5.28 0 8 0 C8 2.64 8 5.28 8 8 C5.36 8 2.72 8 0 8 C0 5.36 0 2.72 0 0 Z " fill="#E39B8D" transform="translate(8,16)"/>
</svg>
