<?xml version="1.0" encoding="UTF-8"?>
<svg version="1.1" xmlns="http://www.w3.org/2000/svg" width="192" height="224">
<path d="M0 0 C7.92 0 15.84 0 24 0 C24 60.72 24 121.44 24 184 C21.36 184 18.72 184 16 184 C16 186.64 16 189.28 16 192 C13.36 192 10.72 192 8 192 C8 194.64 8 197.28 8 200 C5.36 200 2.72 200 0 200 C0 202.64 0 205.28 0 208 C-10.56 208 -21.12 208 -32 208 C-32 205.36 -32 202.72 -32 200 C-34.64 200 -37.28 200 -40 200 C-40 197.36 -40 194.72 -40 192 C-42.64 192 -45.28 192 -48 192 C-48 181.44 -48 170.88 -48 160 C-45.36 160 -42.72 160 -40 160 C-40 157.36 -40 154.72 -40 152 C-37.36 152 -34.72 152 -32 152 C-32 149.36 -32 146.72 -32 144 C-24.08 144 -16.16 144 -8 144 C-8 114.96 -8 85.92 -8 56 C-10.64 56 -13.28 56 -16 56 C-16 58.64 -16 61.28 -16 64 C-23.92 64 -31.84 64 -40 64 C-40 66.64 -40 69.28 -40 72 C-47.92 72 -55.84 72 -64 72 C-64 74.64 -64 77.28 -64 80 C-69.28 80 -74.56 80 -80 80 C-80 122.24 -80 164.48 -80 208 C-82.64 208 -85.28 208 -88 208 C-88 210.64 -88 213.28 -88 216 C-93.28 216 -98.56 216 -104 216 C-104 218.64 -104 221.28 -104 224 C-114.56 224 -125.12 224 -136 224 C-136 221.36 -136 218.72 -136 216 C-138.64 216 -141.28 216 -144 216 C-144 213.36 -144 210.72 -144 208 C-146.64 208 -149.28 208 -152 208 C-152 197.44 -152 186.88 -152 176 C-149.36 176 -146.72 176 -144 176 C-144 173.36 -144 170.72 -144 168 C-141.36 168 -138.72 168 -136 168 C-136 165.36 -136 162.72 -136 160 C-128.08 160 -120.16 160 -112 160 C-112 120.4 -112 80.8 -112 40 C-106.72 40 -101.44 40 -96 40 C-96 37.36 -96 34.72 -96 32 C-88.08 32 -80.16 32 -72 32 C-72 29.36 -72 26.72 -72 24 C-64.08 24 -56.16 24 -48 24 C-48 21.36 -48 18.72 -48 16 C-40.08 16 -32.16 16 -24 16 C-24 13.36 -24 10.72 -24 8 C-16.08 8 -8.16 8 0 8 C0 5.36 0 2.72 0 0 Z " fill="#664099" transform="translate(152,0)"/>
<path d="M0 0 C2.64 0 5.28 0 8 0 C8 26.4 8 52.8 8 80 C5.36 80 2.72 80 0 80 C0 82.64 0 85.28 0 88 C-2.64 88 -5.28 88 -8 88 C-8 90.64 -8 93.28 -8 96 C-18.56 96 -29.12 96 -40 96 C-40 93.36 -40 90.72 -40 88 C-42.64 88 -45.28 88 -48 88 C-48 85.36 -48 82.72 -48 80 C-50.64 80 -53.28 80 -56 80 C-56 69.44 -56 58.88 -56 48 C-53.36 48 -50.72 48 -48 48 C-48 45.36 -48 42.72 -48 40 C-34.8 40 -21.6 40 -8 40 C-8 29.44 -8 18.88 -8 8 C-5.36 8 -2.72 8 0 8 C0 5.36 0 2.72 0 0 Z " fill="#8B6AB8" transform="translate(160,112)"/>
<path d="M0 0 C2.64 0 5.28 0 8 0 C8 26.4 8 52.8 8 80 C2.72 80 -2.56 80 -8 80 C-8 82.64 -8 85.28 -8 88 C-18.56 88 -29.12 88 -40 88 C-40 85.36 -40 82.72 -40 80 C-42.64 80 -45.28 80 -48 80 C-48 77.36 -48 74.72 -48 72 C-50.64 72 -53.28 72 -56 72 C-56 61.44 -56 50.88 -56 40 C-53.36 40 -50.72 40 -48 40 C-48 37.36 -48 34.72 -48 32 C-34.8 32 -21.6 32 -8 32 C-8 24.08 -8 16.16 -8 8 C-5.36 8 -2.72 8 0 8 C0 5.36 0 2.72 0 0 Z " fill="#8B6AB8" transform="translate(56,136)"/>
<path d="M0 0 C7.92 0 15.84 0 24 0 C24 60.72 24 121.44 24 184 C21.36 184 18.72 184 16 184 C16 125.92 16 67.84 16 8 C10.72 8 5.44 8 0 8 C0 5.36 0 2.72 0 0 Z " fill="#492B70" transform="translate(152,0)"/>
<path d="M0 0 C15.84 0 31.68 0 48 0 C48 2.64 48 5.28 48 8 C40.08 8 32.16 8 24 8 C24 10.64 24 13.28 24 16 C16.08 16 8.16 16 0 16 C0 18.64 0 21.28 0 24 C-7.92 24 -15.84 24 -24 24 C-24 26.64 -24 29.28 -24 32 C-31.92 32 -39.84 32 -48 32 C-48 26.72 -48 21.44 -48 16 C-40.08 16 -32.16 16 -24 16 C-24 13.36 -24 10.72 -24 8 C-16.08 8 -8.16 8 0 8 C0 5.36 0 2.72 0 0 Z " fill="#FFFFFF" transform="translate(104,16)"/>
<path d="M0 0 C5.28 0 10.56 0 16 0 C16 2.64 16 5.28 16 8 C13.36 8 10.72 8 8 8 C8 47.6 8 87.2 8 128 C-2.56 128 -13.12 128 -24 128 C-24 125.36 -24 122.72 -24 120 C-16.08 120 -8.16 120 0 120 C0 80.4 0 40.8 0 0 Z " fill="#492B70" transform="translate(40,40)"/>
<path d="M0 0 C7.92 0 15.84 0 24 0 C24 2.64 24 5.28 24 8 C18.72 8 13.44 8 8 8 C8 50.24 8 92.48 8 136 C5.36 136 2.72 136 0 136 C0 91.12 0 46.24 0 0 Z " fill="#492B70" transform="translate(64,72)"/>
<path d="M0 0 C5.28 0 10.56 0 16 0 C16 34.32 16 68.64 16 104 C5.44 104 -5.12 104 -16 104 C-16 101.36 -16 98.72 -16 96 C-8.08 96 -0.16 96 8 96 C8 66.96 8 37.92 8 8 C5.36 8 2.72 8 0 8 C0 5.36 0 2.72 0 0 Z " fill="#492B70" transform="translate(136,48)"/>
<path d="M0 0 C2.64 0 5.28 0 8 0 C8 10.56 8 21.12 8 32 C-5.2 32 -18.4 32 -32 32 C-32 29.36 -32 26.72 -32 24 C-29.36 24 -26.72 24 -24 24 C-24 21.36 -24 18.72 -24 16 C-18.72 16 -13.44 16 -8 16 C-8 13.36 -8 10.72 -8 8 C-5.36 8 -2.72 8 0 8 C0 5.36 0 2.72 0 0 Z " fill="#DCAAFF" transform="translate(56,184)"/>
<path d="M0 0 C2.64 0 5.28 0 8 0 C8 7.92 8 15.84 8 24 C5.36 24 2.72 24 0 24 C0 26.64 0 29.28 0 32 C-10.56 32 -21.12 32 -32 32 C-32 29.36 -32 26.72 -32 24 C-29.36 24 -26.72 24 -24 24 C-24 21.36 -24 18.72 -24 16 C-18.72 16 -13.44 16 -8 16 C-8 13.36 -8 10.72 -8 8 C-5.36 8 -2.72 8 0 8 C0 5.36 0 2.72 0 0 Z " fill="#DCAAFF" transform="translate(160,168)"/>
<path d="M0 0 C15.84 0 31.68 0 48 0 C48 2.64 48 5.28 48 8 C40.08 8 32.16 8 24 8 C24 10.64 24 13.28 24 16 C16.08 16 8.16 16 0 16 C0 10.72 0 5.44 0 0 Z " fill="#FFFFFF" transform="translate(56,32)"/>
<path d="M0 0 C10.56 0 21.12 0 32 0 C32 2.64 32 5.28 32 8 C21.44 8 10.88 8 0 8 C0 5.36 0 2.72 0 0 Z " fill="#492B70" transform="translate(16,216)"/>
<path d="M0 0 C10.56 0 21.12 0 32 0 C32 2.64 32 5.28 32 8 C21.44 8 10.88 8 0 8 C0 5.36 0 2.72 0 0 Z " fill="#492B70" transform="translate(120,200)"/>
<path d="M0 0 C2.64 0 5.28 0 8 0 C8 10.56 8 21.12 8 32 C5.36 32 2.72 32 0 32 C0 21.44 0 10.88 0 0 Z " fill="#492B70" transform="translate(0,176)"/>
<path d="M0 0 C5.28 0 10.56 0 16 0 C16 5.28 16 10.56 16 16 C10.72 16 5.44 16 0 16 C0 10.72 0 5.44 0 0 Z " fill="#FFFFFF" transform="translate(16,168)"/>
<path d="M0 0 C2.64 0 5.28 0 8 0 C8 10.56 8 21.12 8 32 C5.36 32 2.72 32 0 32 C0 21.44 0 10.88 0 0 Z " fill="#492B70" transform="translate(104,160)"/>
<path d="M0 0 C5.28 0 10.56 0 16 0 C16 5.28 16 10.56 16 16 C10.72 16 5.44 16 0 16 C0 10.72 0 5.44 0 0 Z " fill="#FFFFFF" transform="translate(120,152)"/>
<path d="M0 0 C2.64 0 5.28 0 8 0 C8 5.28 8 10.56 8 16 C2.72 16 -2.56 16 -8 16 C-8 13.36 -8 10.72 -8 8 C-5.36 8 -2.72 8 0 8 C0 5.36 0 2.72 0 0 Z " fill="#B790EB" transform="translate(32,176)"/>
<path d="M0 0 C2.64 0 5.28 0 8 0 C8 5.28 8 10.56 8 16 C2.72 16 -2.56 16 -8 16 C-8 13.36 -8 10.72 -8 8 C-5.36 8 -2.72 8 0 8 C0 5.36 0 2.72 0 0 Z " fill="#B790EB" transform="translate(136,160)"/>
<path d="M0 0 C7.92 0 15.84 0 24 0 C24 2.64 24 5.28 24 8 C16.08 8 8.16 8 0 8 C0 5.36 0 2.72 0 0 Z " fill="#492B70" transform="translate(88,64)"/>
<path d="M0 0 C7.92 0 15.84 0 24 0 C24 2.64 24 5.28 24 8 C16.08 8 8.16 8 0 8 C0 5.36 0 2.72 0 0 Z " fill="#492B70" transform="translate(112,56)"/>
<path d="M0 0 C7.92 0 15.84 0 24 0 C24 2.64 24 5.28 24 8 C16.08 8 8.16 8 0 8 C0 5.36 0 2.72 0 0 Z " fill="#FFFFFF" transform="translate(56,40)"/>
<path d="M0 0 C7.92 0 15.84 0 24 0 C24 2.64 24 5.28 24 8 C16.08 8 8.16 8 0 8 C0 5.36 0 2.72 0 0 Z " fill="#492B70" transform="translate(56,32)"/>
<path d="M0 0 C7.92 0 15.84 0 24 0 C24 2.64 24 5.28 24 8 C16.08 8 8.16 8 0 8 C0 5.36 0 2.72 0 0 Z " fill="#492B70" transform="translate(80,24)"/>
<path d="M0 0 C7.92 0 15.84 0 24 0 C24 2.64 24 5.28 24 8 C16.08 8 8.16 8 0 8 C0 5.36 0 2.72 0 0 Z " fill="#492B70" transform="translate(104,16)"/>
<path d="M0 0 C7.92 0 15.84 0 24 0 C24 2.64 24 5.28 24 8 C16.08 8 8.16 8 0 8 C0 5.36 0 2.72 0 0 Z " fill="#492B70" transform="translate(128,8)"/>
<path d="M0 0 C5.28 0 10.56 0 16 0 C16 2.64 16 5.28 16 8 C10.72 8 5.44 8 0 8 C0 5.36 0 2.72 0 0 Z " fill="#492B70" transform="translate(48,208)"/>
<path d="M0 0 C5.28 0 10.56 0 16 0 C16 2.64 16 5.28 16 8 C10.72 8 5.44 8 0 8 C0 5.36 0 2.72 0 0 Z " fill="#FFFFFF" transform="translate(152,8)"/>
<path d="M0 0 C2.64 0 5.28 0 8 0 C8 2.64 8 5.28 8 8 C5.36 8 2.72 8 0 8 C0 5.36 0 2.72 0 0 Z " fill="#492B70" transform="translate(8,208)"/>
<path d="M0 0 C2.64 0 5.28 0 8 0 C8 2.64 8 5.28 8 8 C5.36 8 2.72 8 0 8 C0 5.36 0 2.72 0 0 Z " fill="#492B70" transform="translate(152,192)"/>
<path d="M0 0 C2.64 0 5.28 0 8 0 C8 2.64 8 5.28 8 8 C5.36 8 2.72 8 0 8 C0 5.36 0 2.72 0 0 Z " fill="#492B70" transform="translate(112,192)"/>
<path d="M0 0 C2.64 0 5.28 0 8 0 C8 2.64 8 5.28 8 8 C5.36 8 2.72 8 0 8 C0 5.36 0 2.72 0 0 Z " fill="#492B70" transform="translate(160,184)"/>
<path d="M0 0 C2.64 0 5.28 0 8 0 C8 2.64 8 5.28 8 8 C5.36 8 2.72 8 0 8 C0 5.36 0 2.72 0 0 Z " fill="#492B70" transform="translate(8,168)"/>
<path d="M0 0 C2.64 0 5.28 0 8 0 C8 2.64 8 5.28 8 8 C5.36 8 2.72 8 0 8 C0 5.36 0 2.72 0 0 Z " fill="#492B70" transform="translate(112,152)"/>
<path d="M0 0 C2.64 0 5.28 0 8 0 C8 2.64 8 5.28 8 8 C5.36 8 2.72 8 0 8 C0 5.36 0 2.72 0 0 Z " fill="#8B6AB8" transform="translate(48,128)"/>
<path d="M0 0 C2.64 0 5.28 0 8 0 C8 2.64 8 5.28 8 8 C5.36 8 2.72 8 0 8 C0 5.36 0 2.72 0 0 Z " fill="#8B6AB8" transform="translate(56,120)"/>
<path d="M0 0 C2.64 0 5.28 0 8 0 C8 2.64 8 5.28 8 8 C5.36 8 2.72 8 0 8 C0 5.36 0 2.72 0 0 Z " fill="#8B6AB8" transform="translate(48,112)"/>
<path d="M0 0 C2.64 0 5.28 0 8 0 C8 2.64 8 5.28 8 8 C5.36 8 2.72 8 0 8 C0 5.36 0 2.72 0 0 Z " fill="#8B6AB8" transform="translate(152,104)"/>
<path d="M0 0 C2.64 0 5.28 0 8 0 C8 2.64 8 5.28 8 8 C5.36 8 2.72 8 0 8 C0 5.36 0 2.72 0 0 Z " fill="#8B6AB8" transform="translate(160,96)"/>
<path d="M0 0 C2.64 0 5.28 0 8 0 C8 2.64 8 5.28 8 8 C5.36 8 2.72 8 0 8 C0 5.36 0 2.72 0 0 Z " fill="#8B6AB8" transform="translate(152,88)"/>
<path d="M0 0 C2.64 0 5.28 0 8 0 C8 2.64 8 5.28 8 8 C5.36 8 2.72 8 0 8 C0 5.36 0 2.72 0 0 Z " fill="#FFFFFF" transform="translate(48,48)"/>
</svg>
