<?xml version="1.0" encoding="UTF-8"?>
<svg version="1.1" xmlns="http://www.w3.org/2000/svg" width="264" height="224">
<path d="M0 0 C31.68 0 63.36 0 96 0 C96 2.64 96 5.28 96 8 C103.92 8 111.84 8 120 8 C120 10.64 120 13.28 120 16 C125.28 16 130.56 16 136 16 C136 18.64 136 21.28 136 24 C138.64 24 141.28 24 144 24 C144 26.64 144 29.28 144 32 C157.2 32 170.4 32 184 32 C184 34.64 184 37.28 184 40 C186.64 40 189.28 40 192 40 C192 42.64 192 45.28 192 48 C194.64 48 197.28 48 200 48 C200 50.64 200 53.28 200 56 C202.64 56 205.28 56 208 56 C208 69.2 208 82.4 208 96 C205.36 96 202.72 96 200 96 C200 101.28 200 106.56 200 112 C197.36 112 194.72 112 192 112 C192 114.64 192 117.28 192 120 C189.36 120 186.72 120 184 120 C184 122.64 184 125.28 184 128 C181.36 128 178.72 128 176 128 C176 130.64 176 133.28 176 136 C173.36 136 170.72 136 168 136 C168 138.64 168 141.28 168 144 C165.36 144 162.72 144 160 144 C160 146.64 160 149.28 160 152 C162.64 152 165.28 152 168 152 C168 154.64 168 157.28 168 160 C165.36 160 162.72 160 160 160 C160 162.64 160 165.28 160 168 C157.36 168 154.72 168 152 168 C152 170.64 152 173.28 152 176 C146.72 176 141.44 176 136 176 C136 173.36 136 170.72 136 168 C133.36 168 130.72 168 128 168 C128 170.64 128 173.28 128 176 C125.36 176 122.72 176 120 176 C120 178.64 120 181.28 120 184 C117.36 184 114.72 184 112 184 C112 186.64 112 189.28 112 192 C106.72 192 101.44 192 96 192 C96 194.64 96 197.28 96 200 C93.36 200 90.72 200 88 200 C88 202.64 88 205.28 88 208 C82.72 208 77.44 208 72 208 C72 210.64 72 213.28 72 216 C56.16 216 40.32 216 24 216 C24 213.36 24 210.72 24 208 C18.72 208 13.44 208 8 208 C8 205.36 8 202.72 8 200 C5.36 200 2.72 200 0 200 C0 197.36 0 194.72 0 192 C-5.28 192 -10.56 192 -16 192 C-16 189.36 -16 186.72 -16 184 C-18.64 184 -21.28 184 -24 184 C-24 181.36 -24 178.72 -24 176 C-26.64 176 -29.28 176 -32 176 C-32 173.36 -32 170.72 -32 168 C-34.64 168 -37.28 168 -40 168 C-40 162.72 -40 157.44 -40 152 C-42.64 152 -45.28 152 -48 152 C-48 144.08 -48 136.16 -48 128 C-50.64 128 -53.28 128 -56 128 C-56 96.32 -56 64.64 -56 32 C-53.36 32 -50.72 32 -48 32 C-48 29.36 -48 26.72 -48 24 C-45.36 24 -42.72 24 -40 24 C-40 21.36 -40 18.72 -40 16 C-34.72 16 -29.44 16 -24 16 C-24 13.36 -24 10.72 -24 8 C-16.08 8 -8.16 8 0 8 C0 5.36 0 2.72 0 0 Z M160 80 C160 82.64 160 85.28 160 88 C157.36 88 154.72 88 152 88 C152 95.92 152 103.84 152 112 C154.64 112 157.28 112 160 112 C160 106.72 160 101.44 160 96 C162.64 96 165.28 96 168 96 C168 90.72 168 85.44 168 80 C165.36 80 162.72 80 160 80 Z " fill="#DAE0EA" transform="translate(56,8)"/>
<path d="M0 0 C31.68 0 63.36 0 96 0 C96 2.64 96 5.28 96 8 C103.92 8 111.84 8 120 8 C120 13.28 120 18.56 120 24 C112.08 24 104.16 24 96 24 C96 26.64 96 29.28 96 32 C103.92 32 111.84 32 120 32 C120 34.64 120 37.28 120 40 C122.64 40 125.28 40 128 40 C128 42.64 128 45.28 128 48 C122.72 48 117.44 48 112 48 C112 50.64 112 53.28 112 56 C101.44 56 90.88 56 80 56 C80 58.64 80 61.28 80 64 C58.88 64 37.76 64 16 64 C16 61.36 16 58.72 16 56 C5.44 56 -5.12 56 -16 56 C-16 53.36 -16 50.72 -16 48 C-21.28 48 -26.56 48 -32 48 C-32 45.36 -32 42.72 -32 40 C-29.36 40 -26.72 40 -24 40 C-24 37.36 -24 34.72 -24 32 C-16.08 32 -8.16 32 0 32 C0 29.36 0 26.72 0 24 C-7.92 24 -15.84 24 -24 24 C-24 18.72 -24 13.44 -24 8 C-16.08 8 -8.16 8 0 8 C0 5.36 0 2.72 0 0 Z " fill="#8B93AF" transform="translate(56,8)"/>
<path d="M0 0 C15.84 0 31.68 0 48 0 C48 2.64 48 5.28 48 8 C50.64 8 53.28 8 56 8 C56 10.64 56 13.28 56 16 C58.64 16 61.28 16 64 16 C64 18.64 64 21.28 64 24 C66.64 24 69.28 24 72 24 C72 37.2 72 50.4 72 64 C69.36 64 66.72 64 64 64 C64 69.28 64 74.56 64 80 C61.36 80 58.72 80 56 80 C56 82.64 56 85.28 56 88 C53.36 88 50.72 88 48 88 C48 90.64 48 93.28 48 96 C45.36 96 42.72 96 40 96 C40 98.64 40 101.28 40 104 C37.36 104 34.72 104 32 104 C32 106.64 32 109.28 32 112 C29.36 112 26.72 112 24 112 C24 114.64 24 117.28 24 120 C26.64 120 29.28 120 32 120 C32 122.64 32 125.28 32 128 C29.36 128 26.72 128 24 128 C24 130.64 24 133.28 24 136 C21.36 136 18.72 136 16 136 C16 138.64 16 141.28 16 144 C10.72 144 5.44 144 0 144 C0 141.36 0 138.72 0 136 C-5.28 136 -10.56 136 -16 136 C-16 130.72 -16 125.44 -16 120 C-13.36 120 -10.72 120 -8 120 C-8 112.08 -8 104.16 -8 96 C-5.36 96 -2.72 96 0 96 C0 64.32 0 32.64 0 0 Z M24 48 C24 50.64 24 53.28 24 56 C21.36 56 18.72 56 16 56 C16 63.92 16 71.84 16 80 C18.64 80 21.28 80 24 80 C24 74.72 24 69.44 24 64 C26.64 64 29.28 64 32 64 C32 58.72 32 53.44 32 48 C29.36 48 26.72 48 24 48 Z " fill="#DAE0EA" transform="translate(192,40)"/>
<path d="M0 0 C5.28 0 10.56 0 16 0 C16 2.64 16 5.28 16 8 C26.56 8 37.12 8 48 8 C48 10.64 48 13.28 48 16 C66.48 16 84.96 16 104 16 C104 21.28 104 26.56 104 32 C96.08 32 88.16 32 80 32 C80 34.64 80 37.28 80 40 C77.36 40 74.72 40 72 40 C72 37.36 72 34.72 72 32 C64.08 32 56.16 32 48 32 C48 34.64 48 37.28 48 40 C45.36 40 42.72 40 40 40 C40 45.28 40 50.56 40 56 C42.64 56 45.28 56 48 56 C48 58.64 48 61.28 48 64 C50.64 64 53.28 64 56 64 C56 66.64 56 69.28 56 72 C58.64 72 61.28 72 64 72 C64 74.64 64 77.28 64 80 C66.64 80 69.28 80 72 80 C72 82.64 72 85.28 72 88 C74.64 88 77.28 88 80 88 C80 85.36 80 82.72 80 80 C82.64 80 85.28 80 88 80 C88 77.36 88 74.72 88 72 C90.64 72 93.28 72 96 72 C96 79.92 96 87.84 96 96 C93.36 96 90.72 96 88 96 C88 98.64 88 101.28 88 104 C85.36 104 82.72 104 80 104 C80 109.28 80 114.56 80 120 C69.44 120 58.88 120 48 120 C48 117.36 48 114.72 48 112 C45.36 112 42.72 112 40 112 C40 109.36 40 106.72 40 104 C37.36 104 34.72 104 32 104 C32 101.36 32 98.72 32 96 C26.72 96 21.44 96 16 96 C16 90.72 16 85.44 16 80 C13.36 80 10.72 80 8 80 C8 72.08 8 64.16 8 56 C5.36 56 2.72 56 0 56 C0 37.52 0 19.04 0 0 Z " fill="#FFFFFF" transform="translate(24,80)"/>
<path d="M0 0 C7.92 0 15.84 0 24 0 C24 21.12 24 42.24 24 64 C21.36 64 18.72 64 16 64 C16 69.28 16 74.56 16 80 C13.36 80 10.72 80 8 80 C8 82.64 8 85.28 8 88 C5.36 88 2.72 88 0 88 C0 90.64 0 93.28 0 96 C-2.64 96 -5.28 96 -8 96 C-8 98.64 -8 101.28 -8 104 C-2.72 104 2.56 104 8 104 C8 109.28 8 114.56 8 120 C5.36 120 2.72 120 0 120 C0 122.64 0 125.28 0 128 C-5.28 128 -10.56 128 -16 128 C-16 130.64 -16 133.28 -16 136 C-31.84 136 -47.68 136 -64 136 C-64 133.36 -64 130.72 -64 128 C-69.28 128 -74.56 128 -80 128 C-80 125.36 -80 122.72 -80 120 C-82.64 120 -85.28 120 -88 120 C-88 114.72 -88 109.44 -88 104 C-82.72 104 -77.44 104 -72 104 C-72 106.64 -72 109.28 -72 112 C-61.44 112 -50.88 112 -40 112 C-40 109.36 -40 106.72 -40 104 C-34.72 104 -29.44 104 -24 104 C-24 101.36 -24 98.72 -24 96 C-21.36 96 -18.72 96 -16 96 C-16 93.36 -16 90.72 -16 88 C-13.36 88 -10.72 88 -8 88 C-8 82.72 -8 77.44 -8 72 C-5.36 72 -2.72 72 0 72 C0 48.24 0 24.48 0 0 Z " fill="#B3B9D1" transform="translate(144,88)"/>
<path d="M0 0 C26.4 0 52.8 0 80 0 C80 2.64 80 5.28 80 8 C87.92 8 95.84 8 104 8 C104 13.28 104 18.56 104 24 C93.44 24 82.88 24 72 24 C72 26.64 72 29.28 72 32 C50.88 32 29.76 32 8 32 C8 29.36 8 26.72 8 24 C-2.56 24 -13.12 24 -24 24 C-24 18.72 -24 13.44 -24 8 C-16.08 8 -8.16 8 0 8 C0 5.36 0 2.72 0 0 Z " fill="#6B61AD" transform="translate(64,40)"/>
<path d="M0 0 C5.28 0 10.56 0 16 0 C16 31.68 16 63.36 16 96 C21.28 96 26.56 96 32 96 C32 103.92 32 111.84 32 120 C34.64 120 37.28 120 40 120 C40 125.28 40 130.56 40 136 C45.28 136 50.56 136 56 136 C56 138.64 56 141.28 56 144 C58.64 144 61.28 144 64 144 C64 146.64 64 149.28 64 152 C61.36 152 58.72 152 56 152 C56 154.64 56 157.28 56 160 C50.72 160 45.44 160 40 160 C40 157.36 40 154.72 40 152 C37.36 152 34.72 152 32 152 C32 149.36 32 146.72 32 144 C29.36 144 26.72 144 24 144 C24 141.36 24 138.72 24 136 C21.36 136 18.72 136 16 136 C16 130.72 16 125.44 16 120 C13.36 120 10.72 120 8 120 C8 112.08 8 104.16 8 96 C5.36 96 2.72 96 0 96 C0 64.32 0 32.64 0 0 Z " fill="#8B93AF" transform="translate(0,40)"/>
<path d="M0 0 C13.2 0 26.4 0 40 0 C40 2.64 40 5.28 40 8 C42.64 8 45.28 8 48 8 C48 10.64 48 13.28 48 16 C50.64 16 53.28 16 56 16 C56 18.64 56 21.28 56 24 C58.64 24 61.28 24 64 24 C64 37.2 64 50.4 64 64 C56.08 64 48.16 64 40 64 C40 53.44 40 42.88 40 32 C37.36 32 34.72 32 32 32 C32 42.56 32 53.12 32 64 C29.36 64 26.72 64 24 64 C24 58.72 24 53.44 24 48 C21.36 48 18.72 48 16 48 C16 45.36 16 42.72 16 40 C10.72 40 5.44 40 0 40 C0 34.72 0 29.44 0 24 C2.64 24 5.28 24 8 24 C8 21.36 8 18.72 8 16 C5.36 16 2.72 16 0 16 C0 10.72 0 5.44 0 0 Z " fill="#8B93AF" transform="translate(200,40)"/>
<path d="M0 0 C7.92 0 15.84 0 24 0 C24 2.64 24 5.28 24 8 C26.64 8 29.28 8 32 8 C32 5.36 32 2.72 32 0 C39.92 0 47.84 0 56 0 C56 2.64 56 5.28 56 8 C58.64 8 61.28 8 64 8 C64 13.28 64 18.56 64 24 C61.36 24 58.72 24 56 24 C56 26.64 56 29.28 56 32 C53.36 32 50.72 32 48 32 C48 34.64 48 37.28 48 40 C45.36 40 42.72 40 40 40 C40 42.64 40 45.28 40 48 C37.36 48 34.72 48 32 48 C32 50.64 32 53.28 32 56 C29.36 56 26.72 56 24 56 C24 53.36 24 50.72 24 48 C21.36 48 18.72 48 16 48 C16 45.36 16 42.72 16 40 C13.36 40 10.72 40 8 40 C8 37.36 8 34.72 8 32 C5.36 32 2.72 32 0 32 C0 29.36 0 26.72 0 24 C-2.64 24 -5.28 24 -8 24 C-8 18.72 -8 13.44 -8 8 C-5.36 8 -2.72 8 0 8 C0 5.36 0 2.72 0 0 Z " fill="#F9C4D2" transform="translate(72,112)"/>
<path d="M0 0 C2.64 0 5.28 0 8 0 C8 21.12 8 42.24 8 64 C5.36 64 2.72 64 0 64 C0 71.92 0 79.84 0 88 C-2.64 88 -5.28 88 -8 88 C-8 93.28 -8 98.56 -8 104 C-5.36 104 -2.72 104 0 104 C0 106.64 0 109.28 0 112 C-2.64 112 -5.28 112 -8 112 C-8 114.64 -8 117.28 -8 120 C-10.64 120 -13.28 120 -16 120 C-16 122.64 -16 125.28 -16 128 C-21.28 128 -26.56 128 -32 128 C-32 125.36 -32 122.72 -32 120 C-37.28 120 -42.56 120 -48 120 C-48 117.36 -48 114.72 -48 112 C-45.36 112 -42.72 112 -40 112 C-40 109.36 -40 106.72 -40 104 C-37.36 104 -34.72 104 -32 104 C-32 101.36 -32 98.72 -32 96 C-29.36 96 -26.72 96 -24 96 C-24 90.72 -24 85.44 -24 80 C-18.72 80 -13.44 80 -8 80 C-8 56.24 -8 32.48 -8 8 C-5.36 8 -2.72 8 0 8 C0 5.36 0 2.72 0 0 Z " fill="#FFFFFF" transform="translate(184,72)"/>
<path d="M0 0 C5.28 0 10.56 0 16 0 C16 2.64 16 5.28 16 8 C37.12 8 58.24 8 80 8 C80 5.36 80 2.72 80 0 C85.28 0 90.56 0 96 0 C96 5.28 96 10.56 96 16 C93.36 16 90.72 16 88 16 C88 18.64 88 21.28 88 24 C82.72 24 77.44 24 72 24 C72 26.64 72 29.28 72 32 C56.16 32 40.32 32 24 32 C24 29.36 24 26.72 24 24 C18.72 24 13.44 24 8 24 C8 21.36 8 18.72 8 16 C5.36 16 2.72 16 0 16 C0 10.72 0 5.44 0 0 Z " fill="#8890AB" transform="translate(56,192)"/>
<path d="M0 0 C2.64 0 5.28 0 8 0 C8 5.28 8 10.56 8 16 C10.64 16 13.28 16 16 16 C16 18.64 16 21.28 16 24 C13.36 24 10.72 24 8 24 C8 29.28 8 34.56 8 40 C13.28 40 18.56 40 24 40 C24 42.64 24 45.28 24 48 C18.72 48 13.44 48 8 48 C8 61.2 8 74.4 8 88 C13.28 88 18.56 88 24 88 C24 90.64 24 93.28 24 96 C18.72 96 13.44 96 8 96 C8 98.64 8 101.28 8 104 C5.36 104 2.72 104 0 104 C0 111.92 0 119.84 0 128 C-2.64 128 -5.28 128 -8 128 C-8 130.64 -8 133.28 -8 136 C-10.64 136 -13.28 136 -16 136 C-16 130.72 -16 125.44 -16 120 C-13.36 120 -10.72 120 -8 120 C-8 112.08 -8 104.16 -8 96 C-5.36 96 -2.72 96 0 96 C0 64.32 0 32.64 0 0 Z " fill="#6D758D" transform="translate(192,40)"/>
<path d="M0 0 C31.68 0 63.36 0 96 0 C96 2.64 96 5.28 96 8 C103.92 8 111.84 8 120 8 C120 10.64 120 13.28 120 16 C122.64 16 125.28 16 128 16 C128 18.64 128 21.28 128 24 C122.72 24 117.44 24 112 24 C112 21.36 112 18.72 112 16 C104.08 16 96.16 16 88 16 C88 13.36 88 10.72 88 8 C61.6 8 35.2 8 8 8 C8 10.64 8 13.28 8 16 C0.08 16 -7.84 16 -16 16 C-16 18.64 -16 21.28 -16 24 C-21.28 24 -26.56 24 -32 24 C-32 21.36 -32 18.72 -32 16 C-29.36 16 -26.72 16 -24 16 C-24 13.36 -24 10.72 -24 8 C-16.08 8 -8.16 8 0 8 C0 5.36 0 2.72 0 0 Z " fill="#B3B9D1" transform="translate(56,32)"/>
<path d="M0 0 C10.56 0 21.12 0 32 0 C32 2.64 32 5.28 32 8 C34.64 8 37.28 8 40 8 C40 21.2 40 34.4 40 48 C37.36 48 34.72 48 32 48 C32 37.44 32 26.88 32 16 C29.36 16 26.72 16 24 16 C24 26.56 24 37.12 24 48 C21.36 48 18.72 48 16 48 C16 42.72 16 37.44 16 32 C13.36 32 10.72 32 8 32 C8 29.36 8 26.72 8 24 C2.72 24 -2.56 24 -8 24 C-8 18.72 -8 13.44 -8 8 C-5.36 8 -2.72 8 0 8 C0 5.36 0 2.72 0 0 Z " fill="#DAE0EA" transform="translate(208,56)"/>
<path d="M0 0 C2.64 0 5.28 0 8 0 C8 7.92 8 15.84 8 24 C10.64 24 13.28 24 16 24 C16 29.28 16 34.56 16 40 C21.28 40 26.56 40 32 40 C32 42.64 32 45.28 32 48 C34.64 48 37.28 48 40 48 C40 50.64 40 53.28 40 56 C37.36 56 34.72 56 32 56 C32 58.64 32 61.28 32 64 C26.72 64 21.44 64 16 64 C16 61.36 16 58.72 16 56 C13.36 56 10.72 56 8 56 C8 53.36 8 50.72 8 48 C5.36 48 2.72 48 0 48 C0 45.36 0 42.72 0 40 C-2.64 40 -5.28 40 -8 40 C-8 34.72 -8 29.44 -8 24 C-5.36 24 -2.72 24 0 24 C0 16.08 0 8.16 0 0 Z " fill="#8B93AF" transform="translate(24,136)"/>
<path d="M0 0 C7.92 0 15.84 0 24 0 C24 2.64 24 5.28 24 8 C31.92 8 39.84 8 48 8 C48 13.28 48 18.56 48 24 C37.44 24 26.88 24 16 24 C16 26.64 16 29.28 16 32 C8.08 32 0.16 32 -8 32 C-8 29.36 -8 26.72 -8 24 C-2.72 24 2.56 24 8 24 C8 21.36 8 18.72 8 16 C10.64 16 13.28 16 16 16 C16 13.36 16 10.72 16 8 C10.72 8 5.44 8 0 8 C0 5.36 0 2.72 0 0 Z " fill="#3D3666" transform="translate(120,40)"/>
<path d="M0 0 C18.48 0 36.96 0 56 0 C56 2.64 56 5.28 56 8 C53.36 8 50.72 8 48 8 C48 10.64 48 13.28 48 16 C42.72 16 37.44 16 32 16 C32 18.64 32 21.28 32 24 C26.72 24 21.44 24 16 24 C16 21.36 16 18.72 16 16 C10.72 16 5.44 16 0 16 C0 10.72 0 5.44 0 0 Z " fill="#6B61AD" transform="translate(80,48)"/>
<path d="M0 0 C2.64 0 5.28 0 8 0 C8 31.68 8 63.36 8 96 C5.36 96 2.72 96 0 96 C0 64.32 0 32.64 0 0 Z " fill="#FFFFFF" transform="translate(0,40)"/>
<path d="M0 0 C31.68 0 63.36 0 96 0 C96 2.64 96 5.28 96 8 C64.32 8 32.64 8 0 8 C0 5.36 0 2.72 0 0 Z " fill="#DAE0EA" transform="translate(56,24)"/>
<path d="M0 0 C31.68 0 63.36 0 96 0 C96 2.64 96 5.28 96 8 C64.32 8 32.64 8 0 8 C0 5.36 0 2.72 0 0 Z " fill="#FFFFFF" transform="translate(56,8)"/>
<path d="M0 0 C2.64 0 5.28 0 8 0 C8 5.28 8 10.56 8 16 C10.64 16 13.28 16 16 16 C16 23.92 16 31.84 16 40 C10.72 40 5.44 40 0 40 C0 37.36 0 34.72 0 32 C-2.64 32 -5.28 32 -8 32 C-8 29.36 -8 26.72 -8 24 C-5.36 24 -2.72 24 0 24 C0 16.08 0 8.16 0 0 Z " fill="#8B93AF" transform="translate(192,144)"/>
<path d="M0 0 C21.12 0 42.24 0 64 0 C64 2.64 64 5.28 64 8 C42.88 8 21.76 8 0 8 C0 5.36 0 2.72 0 0 Z " fill="#FFFFFF" transform="translate(72,72)"/>
<path d="M0 0 C5.28 0 10.56 0 16 0 C16 2.64 16 5.28 16 8 C18.64 8 21.28 8 24 8 C24 10.64 24 13.28 24 16 C8.16 16 -7.68 16 -24 16 C-24 13.36 -24 10.72 -24 8 C-16.08 8 -8.16 8 0 8 C0 5.36 0 2.72 0 0 Z " fill="#8B93AF" transform="translate(176,24)"/>
<path d="M0 0 C5.28 0 10.56 0 16 0 C16 2.64 16 5.28 16 8 C23.92 8 31.84 8 40 8 C40 10.64 40 13.28 40 16 C24.16 16 8.32 16 -8 16 C-8 13.36 -8 10.72 -8 8 C-5.36 8 -2.72 8 0 8 C0 5.36 0 2.72 0 0 Z " fill="#8B93AF" transform="translate(16,24)"/>
<path d="M0 0 C5.28 0 10.56 0 16 0 C16 5.28 16 10.56 16 16 C18.64 16 21.28 16 24 16 C24 18.64 24 21.28 24 24 C21.36 24 18.72 24 16 24 C16 26.64 16 29.28 16 32 C13.36 32 10.72 32 8 32 C8 26.72 8 21.44 8 16 C5.36 16 2.72 16 0 16 C0 10.72 0 5.44 0 0 Z " fill="#8B93AF" transform="translate(200,144)"/>
<path d="M0 0 C5.28 0 10.56 0 16 0 C16 2.64 16 5.28 16 8 C13.36 8 10.72 8 8 8 C8 15.92 8 23.84 8 32 C10.64 32 13.28 32 16 32 C16 34.64 16 37.28 16 40 C10.72 40 5.44 40 0 40 C0 26.8 0 13.6 0 0 Z " fill="#FFFFFF" transform="translate(200,88)"/>
<path d="M0 0 C15.84 0 31.68 0 48 0 C48 2.64 48 5.28 48 8 C32.16 8 16.32 8 0 8 C0 5.36 0 2.72 0 0 Z " fill="#FFFFFF" transform="translate(80,216)"/>
<path d="M0 0 C15.84 0 31.68 0 48 0 C48 2.64 48 5.28 48 8 C32.16 8 16.32 8 0 8 C0 5.36 0 2.72 0 0 Z " fill="#6D758D" transform="translate(80,208)"/>
<path d="M0 0 C13.2 0 26.4 0 40 0 C40 2.64 40 5.28 40 8 C29.44 8 18.88 8 8 8 C8 10.64 8 13.28 8 16 C5.36 16 2.72 16 0 16 C0 10.72 0 5.44 0 0 Z " fill="#FFFFFF" transform="translate(200,40)"/>
<path d="M0 0 C7.92 0 15.84 0 24 0 C24 2.64 24 5.28 24 8 C21.36 8 18.72 8 16 8 C16 10.64 16 13.28 16 16 C10.72 16 5.44 16 0 16 C0 10.72 0 5.44 0 0 Z " fill="#8B93AF" transform="translate(40,184)"/>
<path d="M0 0 C7.92 0 15.84 0 24 0 C24 2.64 24 5.28 24 8 C21.36 8 18.72 8 16 8 C16 10.64 16 13.28 16 16 C10.72 16 5.44 16 0 16 C0 10.72 0 5.44 0 0 Z " fill="#FADADD" transform="translate(64,120)"/>
<path d="M0 0 C2.64 0 5.28 0 8 0 C8 10.56 8 21.12 8 32 C5.36 32 2.72 32 0 32 C0 26.72 0 21.44 0 16 C-2.64 16 -5.28 16 -8 16 C-8 13.36 -8 10.72 -8 8 C-5.36 8 -2.72 8 0 8 C0 5.36 0 2.72 0 0 Z " fill="#FFFFFF" transform="translate(224,72)"/>
<path d="M0 0 C2.64 0 5.28 0 8 0 C8 13.2 8 26.4 8 40 C5.36 40 2.72 40 0 40 C0 26.8 0 13.6 0 0 Z " fill="#FFFFFF" transform="translate(256,64)"/>
<path d="M0 0 C2.64 0 5.28 0 8 0 C8 13.2 8 26.4 8 40 C5.36 40 2.72 40 0 40 C0 26.8 0 13.6 0 0 Z " fill="#8B93AF" transform="translate(248,64)"/>
<path d="M0 0 C2.64 0 5.28 0 8 0 C8 13.2 8 26.4 8 40 C5.36 40 2.72 40 0 40 C0 26.8 0 13.6 0 0 Z " fill="#FFFFFF" transform="translate(240,64)"/>
<path d="M0 0 C7.92 0 15.84 0 24 0 C24 5.28 24 10.56 24 16 C18.72 16 13.44 16 8 16 C8 13.36 8 10.72 8 8 C5.36 8 2.72 8 0 8 C0 5.36 0 2.72 0 0 Z " fill="#3D3666" transform="translate(144,48)"/>
<path d="M0 0 C7.92 0 15.84 0 24 0 C24 2.64 24 5.28 24 8 C21.36 8 18.72 8 16 8 C16 10.64 16 13.28 16 16 C10.72 16 5.44 16 0 16 C0 10.72 0 5.44 0 0 Z " fill="#3D3666" transform="translate(40,48)"/>
<path d="M0 0 C10.56 0 21.12 0 32 0 C32 2.64 32 5.28 32 8 C21.44 8 10.88 8 0 8 C0 5.36 0 2.72 0 0 Z " fill="#DAE0EA" transform="translate(72,192)"/>
<path d="M0 0 C2.64 0 5.28 0 8 0 C8 5.28 8 10.56 8 16 C10.64 16 13.28 16 16 16 C16 18.64 16 21.28 16 24 C10.72 24 5.44 24 0 24 C0 16.08 0 8.16 0 0 Z " fill="#FFFFFF" transform="translate(192,144)"/>
<path d="M0 0 C2.64 0 5.28 0 8 0 C8 10.56 8 21.12 8 32 C5.36 32 2.72 32 0 32 C0 21.44 0 10.88 0 0 Z " fill="#6D758D" transform="translate(232,72)"/>
<path d="M0 0 C5.28 0 10.56 0 16 0 C16 5.28 16 10.56 16 16 C10.72 16 5.44 16 0 16 C0 10.72 0 5.44 0 0 Z " fill="#FFFFFF" transform="translate(200,64)"/>
<path d="M0 0 C10.56 0 21.12 0 32 0 C32 2.64 32 5.28 32 8 C21.44 8 10.88 8 0 8 C0 5.36 0 2.72 0 0 Z " fill="#FFFFFF" transform="translate(136,64)"/>
<path d="M0 0 C10.56 0 21.12 0 32 0 C32 2.64 32 5.28 32 8 C21.44 8 10.88 8 0 8 C0 5.36 0 2.72 0 0 Z " fill="#FFFFFF" transform="translate(40,64)"/>
<path d="M0 0 C10.56 0 21.12 0 32 0 C32 2.64 32 5.28 32 8 C21.44 8 10.88 8 0 8 C0 5.36 0 2.72 0 0 Z " fill="#51498F" transform="translate(88,40)"/>
<path d="M0 0 C2.64 0 5.28 0 8 0 C8 7.92 8 15.84 8 24 C5.36 24 2.72 24 0 24 C0 16.08 0 8.16 0 0 Z " fill="#DAE0EA" transform="translate(24,136)"/>
<path d="M0 0 C2.64 0 5.28 0 8 0 C8 7.92 8 15.84 8 24 C5.36 24 2.72 24 0 24 C0 16.08 0 8.16 0 0 Z " fill="#8B93AF" transform="translate(16,136)"/>
<path d="M0 0 C2.64 0 5.28 0 8 0 C8 7.92 8 15.84 8 24 C5.36 24 2.72 24 0 24 C0 16.08 0 8.16 0 0 Z " fill="#FFFFFF" transform="translate(8,136)"/>
<path d="M0 0 C7.92 0 15.84 0 24 0 C24 2.64 24 5.28 24 8 C16.08 8 8.16 8 0 8 C0 5.36 0 2.72 0 0 Z " fill="#F4A7B9" transform="translate(104,112)"/>
<path d="M0 0 C7.92 0 15.84 0 24 0 C24 2.64 24 5.28 24 8 C16.08 8 8.16 8 0 8 C0 5.36 0 2.72 0 0 Z " fill="#F4A7B9" transform="translate(72,112)"/>
<path d="M0 0 C7.92 0 15.84 0 24 0 C24 2.64 24 5.28 24 8 C16.08 8 8.16 8 0 8 C0 5.36 0 2.72 0 0 Z " fill="#3D3666" transform="translate(112,64)"/>
<path d="M0 0 C7.92 0 15.84 0 24 0 C24 2.64 24 5.28 24 8 C16.08 8 8.16 8 0 8 C0 5.36 0 2.72 0 0 Z " fill="#3D3666" transform="translate(72,64)"/>
<path d="M0 0 C5.28 0 10.56 0 16 0 C16 5.28 16 10.56 16 16 C13.36 16 10.72 16 8 16 C8 13.36 8 10.72 8 8 C5.36 8 2.72 8 0 8 C0 5.36 0 2.72 0 0 Z " fill="#DAE0EA" transform="translate(176,40)"/>
<path d="M0 0 C7.92 0 15.84 0 24 0 C24 2.64 24 5.28 24 8 C16.08 8 8.16 8 0 8 C0 5.36 0 2.72 0 0 Z " fill="#3D3666" transform="translate(120,40)"/>
<path d="M0 0 C7.92 0 15.84 0 24 0 C24 2.64 24 5.28 24 8 C16.08 8 8.16 8 0 8 C0 5.36 0 2.72 0 0 Z " fill="#3D3666" transform="translate(64,40)"/>
<path d="M0 0 C5.28 0 10.56 0 16 0 C16 2.64 16 5.28 16 8 C13.36 8 10.72 8 8 8 C8 10.64 8 13.28 8 16 C5.36 16 2.72 16 0 16 C0 10.72 0 5.44 0 0 Z " fill="#DAE0EA" transform="translate(16,40)"/>
<path d="M0 0 C7.92 0 15.84 0 24 0 C24 2.64 24 5.28 24 8 C16.08 8 8.16 8 0 8 C0 5.36 0 2.72 0 0 Z " fill="#DAE0EA" transform="translate(152,32)"/>
<path d="M0 0 C7.92 0 15.84 0 24 0 C24 2.64 24 5.28 24 8 C16.08 8 8.16 8 0 8 C0 5.36 0 2.72 0 0 Z " fill="#DAE0EA" transform="translate(32,32)"/>
<path d="M0 0 C7.92 0 15.84 0 24 0 C24 2.64 24 5.28 24 8 C16.08 8 8.16 8 0 8 C0 5.36 0 2.72 0 0 Z " fill="#8B93AF" transform="translate(152,24)"/>
<path d="M0 0 C7.92 0 15.84 0 24 0 C24 2.64 24 5.28 24 8 C16.08 8 8.16 8 0 8 C0 5.36 0 2.72 0 0 Z " fill="#8B93AF" transform="translate(32,24)"/>
<path d="M0 0 C7.92 0 15.84 0 24 0 C24 2.64 24 5.28 24 8 C16.08 8 8.16 8 0 8 C0 5.36 0 2.72 0 0 Z " fill="#FFFFFF" transform="translate(152,16)"/>
<path d="M0 0 C7.92 0 15.84 0 24 0 C24 2.64 24 5.28 24 8 C16.08 8 8.16 8 0 8 C0 5.36 0 2.72 0 0 Z " fill="#FFFFFF" transform="translate(32,16)"/>
<path d="M0 0 C5.28 0 10.56 0 16 0 C16 2.64 16 5.28 16 8 C10.72 8 5.44 8 0 8 C0 5.36 0 2.72 0 0 Z " fill="#FFFFFF" transform="translate(128,208)"/>
<path d="M0 0 C5.28 0 10.56 0 16 0 C16 2.64 16 5.28 16 8 C10.72 8 5.44 8 0 8 C0 5.36 0 2.72 0 0 Z " fill="#FFFFFF" transform="translate(64,208)"/>
<path d="M0 0 C5.28 0 10.56 0 16 0 C16 2.64 16 5.28 16 8 C10.72 8 5.44 8 0 8 C0 5.36 0 2.72 0 0 Z " fill="#6D758D" transform="translate(128,200)"/>
<path d="M0 0 C5.28 0 10.56 0 16 0 C16 2.64 16 5.28 16 8 C10.72 8 5.44 8 0 8 C0 5.36 0 2.72 0 0 Z " fill="#FFFFFF" transform="translate(152,192)"/>
<path d="M0 0 C5.28 0 10.56 0 16 0 C16 2.64 16 5.28 16 8 C10.72 8 5.44 8 0 8 C0 5.36 0 2.72 0 0 Z " fill="#FFFFFF" transform="translate(40,192)"/>
<path d="M0 0 C5.28 0 10.56 0 16 0 C16 2.64 16 5.28 16 8 C10.72 8 5.44 8 0 8 C0 5.36 0 2.72 0 0 Z " fill="#6D758D" transform="translate(152,184)"/>
<path d="M0 0 C5.28 0 10.56 0 16 0 C16 2.64 16 5.28 16 8 C10.72 8 5.44 8 0 8 C0 5.36 0 2.72 0 0 Z " fill="#FFFFFF" transform="translate(136,184)"/>
<path d="M0 0 C5.28 0 10.56 0 16 0 C16 2.64 16 5.28 16 8 C10.72 8 5.44 8 0 8 C0 5.36 0 2.72 0 0 Z " fill="#FFFFFF" transform="translate(192,176)"/>
<path d="M0 0 C5.28 0 10.56 0 16 0 C16 2.64 16 5.28 16 8 C10.72 8 5.44 8 0 8 C0 5.36 0 2.72 0 0 Z " fill="#DAE0EA" transform="translate(40,176)"/>
<path d="M0 0 C2.64 0 5.28 0 8 0 C8 5.28 8 10.56 8 16 C5.36 16 2.72 16 0 16 C0 10.72 0 5.44 0 0 Z " fill="#6D758D" transform="translate(176,160)"/>
<path d="M0 0 C2.64 0 5.28 0 8 0 C8 5.28 8 10.56 8 16 C5.36 16 2.72 16 0 16 C0 10.72 0 5.44 0 0 Z " fill="#DAE0EA" transform="translate(32,160)"/>
<path d="M0 0 C2.64 0 5.28 0 8 0 C8 5.28 8 10.56 8 16 C5.36 16 2.72 16 0 16 C0 10.72 0 5.44 0 0 Z " fill="#FFFFFF" transform="translate(16,160)"/>
<path d="M0 0 C2.64 0 5.28 0 8 0 C8 5.28 8 10.56 8 16 C5.36 16 2.72 16 0 16 C0 10.72 0 5.44 0 0 Z " fill="#DAE0EA" transform="translate(160,152)"/>
<path d="M0 0 C5.28 0 10.56 0 16 0 C16 2.64 16 5.28 16 8 C10.72 8 5.44 8 0 8 C0 5.36 0 2.72 0 0 Z " fill="#DAE0EA" transform="translate(200,136)"/>
<path d="M0 0 C2.64 0 5.28 0 8 0 C8 5.28 8 10.56 8 16 C5.36 16 2.72 16 0 16 C0 10.72 0 5.44 0 0 Z " fill="#F4A7B9" transform="translate(128,120)"/>
<path d="M0 0 C2.64 0 5.28 0 8 0 C8 5.28 8 10.56 8 16 C5.36 16 2.72 16 0 16 C0 10.72 0 5.44 0 0 Z " fill="#F4A7B9" transform="translate(64,120)"/>
<path d="M0 0 C2.64 0 5.28 0 8 0 C8 5.28 8 10.56 8 16 C5.36 16 2.72 16 0 16 C0 10.72 0 5.44 0 0 Z " fill="#FFFFFF" transform="translate(248,104)"/>
<path d="M0 0 C2.64 0 5.28 0 8 0 C8 5.28 8 10.56 8 16 C5.36 16 2.72 16 0 16 C0 10.72 0 5.44 0 0 Z " fill="#8B93AF" transform="translate(240,104)"/>
<path d="M0 0 C2.64 0 5.28 0 8 0 C8 5.28 8 10.56 8 16 C5.36 16 2.72 16 0 16 C0 10.72 0 5.44 0 0 Z " fill="#DAE0EA" transform="translate(232,104)"/>
<path d="M0 0 C2.64 0 5.28 0 8 0 C8 5.28 8 10.56 8 16 C5.36 16 2.72 16 0 16 C0 10.72 0 5.44 0 0 Z " fill="#6D758D" transform="translate(224,104)"/>
<path d="M0 0 C2.64 0 5.28 0 8 0 C8 5.28 8 10.56 8 16 C5.36 16 2.72 16 0 16 C0 10.72 0 5.44 0 0 Z " fill="#FFFFFF" transform="translate(216,104)"/>
<path d="M0 0 C5.28 0 10.56 0 16 0 C16 2.64 16 5.28 16 8 C10.72 8 5.44 8 0 8 C0 5.36 0 2.72 0 0 Z " fill="#51498F" transform="translate(96,64)"/>
<path d="M0 0 C5.28 0 10.56 0 16 0 C16 2.64 16 5.28 16 8 C10.72 8 5.44 8 0 8 C0 5.36 0 2.72 0 0 Z " fill="#FFFFFF" transform="translate(168,56)"/>
<path d="M0 0 C5.28 0 10.56 0 16 0 C16 2.64 16 5.28 16 8 C10.72 8 5.44 8 0 8 C0 5.36 0 2.72 0 0 Z " fill="#3D3666" transform="translate(56,56)"/>
<path d="M0 0 C5.28 0 10.56 0 16 0 C16 2.64 16 5.28 16 8 C10.72 8 5.44 8 0 8 C0 5.36 0 2.72 0 0 Z " fill="#FFFFFF" transform="translate(24,56)"/>
<path d="M0 0 C2.64 0 5.28 0 8 0 C8 5.28 8 10.56 8 16 C5.36 16 2.72 16 0 16 C0 10.72 0 5.44 0 0 Z " fill="#262144" transform="translate(160,48)"/>
<path d="M0 0 C2.64 0 5.28 0 8 0 C8 5.28 8 10.56 8 16 C5.36 16 2.72 16 0 16 C0 10.72 0 5.44 0 0 Z " fill="#262144" transform="translate(40,48)"/>
<path d="M0 0 C5.28 0 10.56 0 16 0 C16 2.64 16 5.28 16 8 C10.72 8 5.44 8 0 8 C0 5.36 0 2.72 0 0 Z " fill="#FFFFFF" transform="translate(176,24)"/>
<path d="M0 0 C5.28 0 10.56 0 16 0 C16 2.64 16 5.28 16 8 C10.72 8 5.44 8 0 8 C0 5.36 0 2.72 0 0 Z " fill="#FFFFFF" transform="translate(16,24)"/>
<path d="M0 0 C2.64 0 5.28 0 8 0 C8 2.64 8 5.28 8 8 C5.36 8 2.72 8 0 8 C0 5.36 0 2.72 0 0 Z " fill="#FFFFFF" transform="translate(144,200)"/>
<path d="M0 0 C2.64 0 5.28 0 8 0 C8 2.64 8 5.28 8 8 C5.36 8 2.72 8 0 8 C0 5.36 0 2.72 0 0 Z " fill="#FFFFFF" transform="translate(56,200)"/>
<path d="M0 0 C2.64 0 5.28 0 8 0 C8 2.64 8 5.28 8 8 C5.36 8 2.72 8 0 8 C0 5.36 0 2.72 0 0 Z " fill="#8B93AF" transform="translate(136,192)"/>
<path d="M0 0 C2.64 0 5.28 0 8 0 C8 2.64 8 5.28 8 8 C5.36 8 2.72 8 0 8 C0 5.36 0 2.72 0 0 Z " fill="#DAE0EA" transform="translate(128,192)"/>
<path d="M0 0 C2.64 0 5.28 0 8 0 C8 2.64 8 5.28 8 8 C5.36 8 2.72 8 0 8 C0 5.36 0 2.72 0 0 Z " fill="#FFFFFF" transform="translate(168,184)"/>
<path d="M0 0 C2.64 0 5.28 0 8 0 C8 2.64 8 5.28 8 8 C5.36 8 2.72 8 0 8 C0 5.36 0 2.72 0 0 Z " fill="#DAE0EA" transform="translate(136,184)"/>
<path d="M0 0 C2.64 0 5.28 0 8 0 C8 2.64 8 5.28 8 8 C5.36 8 2.72 8 0 8 C0 5.36 0 2.72 0 0 Z " fill="#B3B9D1" transform="translate(56,184)"/>
<path d="M0 0 C2.64 0 5.28 0 8 0 C8 2.64 8 5.28 8 8 C5.36 8 2.72 8 0 8 C0 5.36 0 2.72 0 0 Z " fill="#FFFFFF" transform="translate(32,184)"/>
<path d="M0 0 C2.64 0 5.28 0 8 0 C8 2.64 8 5.28 8 8 C5.36 8 2.72 8 0 8 C0 5.36 0 2.72 0 0 Z " fill="#FFFFFF" transform="translate(176,176)"/>
<path d="M0 0 C2.64 0 5.28 0 8 0 C8 2.64 8 5.28 8 8 C5.36 8 2.72 8 0 8 C0 5.36 0 2.72 0 0 Z " fill="#6D758D" transform="translate(168,176)"/>
<path d="M0 0 C2.64 0 5.28 0 8 0 C8 2.64 8 5.28 8 8 C5.36 8 2.72 8 0 8 C0 5.36 0 2.72 0 0 Z " fill="#DAE0EA" transform="translate(144,176)"/>
<path d="M0 0 C2.64 0 5.28 0 8 0 C8 2.64 8 5.28 8 8 C5.36 8 2.72 8 0 8 C0 5.36 0 2.72 0 0 Z " fill="#8B93AF" transform="translate(32,176)"/>
<path d="M0 0 C2.64 0 5.28 0 8 0 C8 2.64 8 5.28 8 8 C5.36 8 2.72 8 0 8 C0 5.36 0 2.72 0 0 Z " fill="#FFFFFF" transform="translate(24,176)"/>
<path d="M0 0 C2.64 0 5.28 0 8 0 C8 2.64 8 5.28 8 8 C5.36 8 2.72 8 0 8 C0 5.36 0 2.72 0 0 Z " fill="#FFFFFF" transform="translate(208,168)"/>
<path d="M0 0 C2.64 0 5.28 0 8 0 C8 2.64 8 5.28 8 8 C5.36 8 2.72 8 0 8 C0 5.36 0 2.72 0 0 Z " fill="#FFFFFF" transform="translate(184,168)"/>
<path d="M0 0 C2.64 0 5.28 0 8 0 C8 2.64 8 5.28 8 8 C5.36 8 2.72 8 0 8 C0 5.36 0 2.72 0 0 Z " fill="#DAE0EA" transform="translate(152,168)"/>
<path d="M0 0 C2.64 0 5.28 0 8 0 C8 2.64 8 5.28 8 8 C5.36 8 2.72 8 0 8 C0 5.36 0 2.72 0 0 Z " fill="#FFFFFF" transform="translate(216,160)"/>
<path d="M0 0 C2.64 0 5.28 0 8 0 C8 2.64 8 5.28 8 8 C5.36 8 2.72 8 0 8 C0 5.36 0 2.72 0 0 Z " fill="#8B93AF" transform="translate(208,160)"/>
<path d="M0 0 C2.64 0 5.28 0 8 0 C8 2.64 8 5.28 8 8 C5.36 8 2.72 8 0 8 C0 5.36 0 2.72 0 0 Z " fill="#8B93AF" transform="translate(184,160)"/>
<path d="M0 0 C2.64 0 5.28 0 8 0 C8 2.64 8 5.28 8 8 C5.36 8 2.72 8 0 8 C0 5.36 0 2.72 0 0 Z " fill="#F4A7B9" transform="translate(96,160)"/>
<path d="M0 0 C2.64 0 5.28 0 8 0 C8 2.64 8 5.28 8 8 C5.36 8 2.72 8 0 8 C0 5.36 0 2.72 0 0 Z " fill="#FFFFFF" transform="translate(208,152)"/>
<path d="M0 0 C2.64 0 5.28 0 8 0 C8 2.64 8 5.28 8 8 C5.36 8 2.72 8 0 8 C0 5.36 0 2.72 0 0 Z " fill="#F4A7B9" transform="translate(104,152)"/>
<path d="M0 0 C2.64 0 5.28 0 8 0 C8 2.64 8 5.28 8 8 C5.36 8 2.72 8 0 8 C0 5.36 0 2.72 0 0 Z " fill="#F4A7B9" transform="translate(88,152)"/>
<path d="M0 0 C2.64 0 5.28 0 8 0 C8 2.64 8 5.28 8 8 C5.36 8 2.72 8 0 8 C0 5.36 0 2.72 0 0 Z " fill="#FFFFFF" transform="translate(216,144)"/>
<path d="M0 0 C2.64 0 5.28 0 8 0 C8 2.64 8 5.28 8 8 C5.36 8 2.72 8 0 8 C0 5.36 0 2.72 0 0 Z " fill="#F4A7B9" transform="translate(112,144)"/>
<path d="M0 0 C2.64 0 5.28 0 8 0 C8 2.64 8 5.28 8 8 C5.36 8 2.72 8 0 8 C0 5.36 0 2.72 0 0 Z " fill="#F4A7B9" transform="translate(80,144)"/>
<path d="M0 0 C2.64 0 5.28 0 8 0 C8 2.64 8 5.28 8 8 C5.36 8 2.72 8 0 8 C0 5.36 0 2.72 0 0 Z " fill="#FFFFFF" transform="translate(224,136)"/>
<path d="M0 0 C2.64 0 5.28 0 8 0 C8 2.64 8 5.28 8 8 C5.36 8 2.72 8 0 8 C0 5.36 0 2.72 0 0 Z " fill="#8B93AF" transform="translate(216,136)"/>
<path d="M0 0 C2.64 0 5.28 0 8 0 C8 2.64 8 5.28 8 8 C5.36 8 2.72 8 0 8 C0 5.36 0 2.72 0 0 Z " fill="#8B93AF" transform="translate(192,136)"/>
<path d="M0 0 C2.64 0 5.28 0 8 0 C8 2.64 8 5.28 8 8 C5.36 8 2.72 8 0 8 C0 5.36 0 2.72 0 0 Z " fill="#F4A7B9" transform="translate(120,136)"/>
<path d="M0 0 C2.64 0 5.28 0 8 0 C8 2.64 8 5.28 8 8 C5.36 8 2.72 8 0 8 C0 5.36 0 2.72 0 0 Z " fill="#F4A7B9" transform="translate(72,136)"/>
<path d="M0 0 C2.64 0 5.28 0 8 0 C8 2.64 8 5.28 8 8 C5.36 8 2.72 8 0 8 C0 5.36 0 2.72 0 0 Z " fill="#FFFFFF" transform="translate(232,128)"/>
<path d="M0 0 C2.64 0 5.28 0 8 0 C8 2.64 8 5.28 8 8 C5.36 8 2.72 8 0 8 C0 5.36 0 2.72 0 0 Z " fill="#8B93AF" transform="translate(224,128)"/>
<path d="M0 0 C2.64 0 5.28 0 8 0 C8 2.64 8 5.28 8 8 C5.36 8 2.72 8 0 8 C0 5.36 0 2.72 0 0 Z " fill="#DAE0EA" transform="translate(216,128)"/>
<path d="M0 0 C2.64 0 5.28 0 8 0 C8 2.64 8 5.28 8 8 C5.36 8 2.72 8 0 8 C0 5.36 0 2.72 0 0 Z " fill="#FFFFFF" transform="translate(240,120)"/>
<path d="M0 0 C2.64 0 5.28 0 8 0 C8 2.64 8 5.28 8 8 C5.36 8 2.72 8 0 8 C0 5.36 0 2.72 0 0 Z " fill="#8B93AF" transform="translate(232,120)"/>
<path d="M0 0 C2.64 0 5.28 0 8 0 C8 2.64 8 5.28 8 8 C5.36 8 2.72 8 0 8 C0 5.36 0 2.72 0 0 Z " fill="#6D758D" transform="translate(216,120)"/>
<path d="M0 0 C2.64 0 5.28 0 8 0 C8 2.64 8 5.28 8 8 C5.36 8 2.72 8 0 8 C0 5.36 0 2.72 0 0 Z " fill="#F4A7B9" transform="translate(96,120)"/>
<path d="M0 0 C2.64 0 5.28 0 8 0 C8 2.64 8 5.28 8 8 C5.36 8 2.72 8 0 8 C0 5.36 0 2.72 0 0 Z " fill="#6D758D" transform="translate(216,72)"/>
<path d="M0 0 C2.64 0 5.28 0 8 0 C8 2.64 8 5.28 8 8 C5.36 8 2.72 8 0 8 C0 5.36 0 2.72 0 0 Z " fill="#DAE0EA" transform="translate(232,64)"/>
<path d="M0 0 C2.64 0 5.28 0 8 0 C8 2.64 8 5.28 8 8 C5.36 8 2.72 8 0 8 C0 5.36 0 2.72 0 0 Z " fill="#6D758D" transform="translate(224,64)"/>
<path d="M0 0 C2.64 0 5.28 0 8 0 C8 2.64 8 5.28 8 8 C5.36 8 2.72 8 0 8 C0 5.36 0 2.72 0 0 Z " fill="#B3B9D1" transform="translate(216,64)"/>
<path d="M0 0 C2.64 0 5.28 0 8 0 C8 2.64 8 5.28 8 8 C5.36 8 2.72 8 0 8 C0 5.36 0 2.72 0 0 Z " fill="#262144" transform="translate(128,64)"/>
<path d="M0 0 C2.64 0 5.28 0 8 0 C8 2.64 8 5.28 8 8 C5.36 8 2.72 8 0 8 C0 5.36 0 2.72 0 0 Z " fill="#262144" transform="translate(72,64)"/>
<path d="M0 0 C2.64 0 5.28 0 8 0 C8 2.64 8 5.28 8 8 C5.36 8 2.72 8 0 8 C0 5.36 0 2.72 0 0 Z " fill="#FFFFFF" transform="translate(248,56)"/>
<path d="M0 0 C2.64 0 5.28 0 8 0 C8 2.64 8 5.28 8 8 C5.36 8 2.72 8 0 8 C0 5.36 0 2.72 0 0 Z " fill="#8B93AF" transform="translate(240,56)"/>
<path d="M0 0 C2.64 0 5.28 0 8 0 C8 2.64 8 5.28 8 8 C5.36 8 2.72 8 0 8 C0 5.36 0 2.72 0 0 Z " fill="#FFFFFF" transform="translate(232,56)"/>
<path d="M0 0 C2.64 0 5.28 0 8 0 C8 2.64 8 5.28 8 8 C5.36 8 2.72 8 0 8 C0 5.36 0 2.72 0 0 Z " fill="#8B93AF" transform="translate(200,56)"/>
<path d="M0 0 C2.64 0 5.28 0 8 0 C8 2.64 8 5.28 8 8 C5.36 8 2.72 8 0 8 C0 5.36 0 2.72 0 0 Z " fill="#51498F" transform="translate(144,56)"/>
<path d="M0 0 C2.64 0 5.28 0 8 0 C8 2.64 8 5.28 8 8 C5.36 8 2.72 8 0 8 C0 5.36 0 2.72 0 0 Z " fill="#51498F" transform="translate(128,56)"/>
<path d="M0 0 C2.64 0 5.28 0 8 0 C8 2.64 8 5.28 8 8 C5.36 8 2.72 8 0 8 C0 5.36 0 2.72 0 0 Z " fill="#766EB8" transform="translate(112,56)"/>
<path d="M0 0 C2.64 0 5.28 0 8 0 C8 2.64 8 5.28 8 8 C5.36 8 2.72 8 0 8 C0 5.36 0 2.72 0 0 Z " fill="#766EB8" transform="translate(88,56)"/>
<path d="M0 0 C2.64 0 5.28 0 8 0 C8 2.64 8 5.28 8 8 C5.36 8 2.72 8 0 8 C0 5.36 0 2.72 0 0 Z " fill="#51498F" transform="translate(72,56)"/>
<path d="M0 0 C2.64 0 5.28 0 8 0 C8 2.64 8 5.28 8 8 C5.36 8 2.72 8 0 8 C0 5.36 0 2.72 0 0 Z " fill="#51498F" transform="translate(56,56)"/>
<path d="M0 0 C2.64 0 5.28 0 8 0 C8 2.64 8 5.28 8 8 C5.36 8 2.72 8 0 8 C0 5.36 0 2.72 0 0 Z " fill="#FFFFFF" transform="translate(240,48)"/>
<path d="M0 0 C2.64 0 5.28 0 8 0 C8 2.64 8 5.28 8 8 C5.36 8 2.72 8 0 8 C0 5.36 0 2.72 0 0 Z " fill="#FFFFFF" transform="translate(184,48)"/>
<path d="M0 0 C2.64 0 5.28 0 8 0 C8 2.64 8 5.28 8 8 C5.36 8 2.72 8 0 8 C0 5.36 0 2.72 0 0 Z " fill="#262144" transform="translate(144,48)"/>
<path d="M0 0 C2.64 0 5.28 0 8 0 C8 2.64 8 5.28 8 8 C5.36 8 2.72 8 0 8 C0 5.36 0 2.72 0 0 Z " fill="#51498F" transform="translate(136,48)"/>
<path d="M0 0 C2.64 0 5.28 0 8 0 C8 2.64 8 5.28 8 8 C5.36 8 2.72 8 0 8 C0 5.36 0 2.72 0 0 Z " fill="#766EB8" transform="translate(120,48)"/>
<path d="M0 0 C2.64 0 5.28 0 8 0 C8 2.64 8 5.28 8 8 C5.36 8 2.72 8 0 8 C0 5.36 0 2.72 0 0 Z " fill="#766EB8" transform="translate(80,48)"/>
<path d="M0 0 C2.64 0 5.28 0 8 0 C8 2.64 8 5.28 8 8 C5.36 8 2.72 8 0 8 C0 5.36 0 2.72 0 0 Z " fill="#51498F" transform="translate(64,48)"/>
<path d="M0 0 C2.64 0 5.28 0 8 0 C8 2.64 8 5.28 8 8 C5.36 8 2.72 8 0 8 C0 5.36 0 2.72 0 0 Z " fill="#262144" transform="translate(56,48)"/>
<path d="M0 0 C2.64 0 5.28 0 8 0 C8 2.64 8 5.28 8 8 C5.36 8 2.72 8 0 8 C0 5.36 0 2.72 0 0 Z " fill="#FFFFFF" transform="translate(16,48)"/>
<path d="M0 0 C2.64 0 5.28 0 8 0 C8 2.64 8 5.28 8 8 C5.36 8 2.72 8 0 8 C0 5.36 0 2.72 0 0 Z " fill="#262144" transform="translate(136,40)"/>
<path d="M0 0 C2.64 0 5.28 0 8 0 C8 2.64 8 5.28 8 8 C5.36 8 2.72 8 0 8 C0 5.36 0 2.72 0 0 Z " fill="#262144" transform="translate(64,40)"/>
<path d="M0 0 C2.64 0 5.28 0 8 0 C8 2.64 8 5.28 8 8 C5.36 8 2.72 8 0 8 C0 5.36 0 2.72 0 0 Z " fill="#FFFFFF" transform="translate(192,32)"/>
<path d="M0 0 C2.64 0 5.28 0 8 0 C8 2.64 8 5.28 8 8 C5.36 8 2.72 8 0 8 C0 5.36 0 2.72 0 0 Z " fill="#FFFFFF" transform="translate(8,32)"/>
</svg>
