<?xml version="1.0" encoding="UTF-8"?>
<svg version="1.1" xmlns="http://www.w3.org/2000/svg" width="336" height="280">
<path d="M0 0 C5.28 0 10.56 0 16 0 C16 2.64 16 5.28 16 8 C18.64 8 21.28 8 24 8 C24 10.64 24 13.28 24 16 C26.64 16 29.28 16 32 16 C32 18.64 32 21.28 32 24 C34.64 24 37.28 24 40 24 C40 29.28 40 34.56 40 40 C42.64 40 45.28 40 48 40 C48 47.92 48 55.84 48 64 C50.64 64 53.28 64 56 64 C56 77.2 56 90.4 56 104 C53.36 104 50.72 104 48 104 C48 111.92 48 119.84 48 128 C45.36 128 42.72 128 40 128 C40 133.28 40 138.56 40 144 C37.36 144 34.72 144 32 144 C32 146.64 32 149.28 32 152 C29.36 152 26.72 152 24 152 C24 154.64 24 157.28 24 160 C18.72 160 13.44 160 8 160 C8 167.92 8 175.84 8 184 C5.36 184 2.72 184 0 184 C0 189.28 0 194.56 0 200 C2.64 200 5.28 200 8 200 C8 223.76 8 247.52 8 272 C5.36 272 2.72 272 0 272 C0 274.64 0 277.28 0 280 C-5.28 280 -10.56 280 -16 280 C-16 277.36 -16 274.72 -16 272 C-18.64 272 -21.28 272 -24 272 C-24 264.08 -24 256.16 -24 248 C-26.64 248 -29.28 248 -32 248 C-32 242.72 -32 237.44 -32 232 C-37.28 232 -42.56 232 -48 232 C-48 242.56 -48 253.12 -48 264 C-50.64 264 -53.28 264 -56 264 C-56 269.28 -56 274.56 -56 280 C-66.56 280 -77.12 280 -88 280 C-88 272.08 -88 264.16 -88 256 C-85.36 256 -82.72 256 -80 256 C-80 253.36 -80 250.72 -80 248 C-82.64 248 -85.28 248 -88 248 C-88 245.36 -88 242.72 -88 240 C-93.28 240 -98.56 240 -104 240 C-104 237.36 -104 234.72 -104 232 C-111.92 232 -119.84 232 -128 232 C-128 245.2 -128 258.4 -128 272 C-130.64 272 -133.28 272 -136 272 C-136 274.64 -136 277.28 -136 280 C-143.92 280 -151.84 280 -160 280 C-160 277.36 -160 274.72 -160 272 C-162.64 272 -165.28 272 -168 272 C-168 264.08 -168 256.16 -168 248 C-170.64 248 -173.28 248 -176 248 C-176 245.36 -176 242.72 -176 240 C-178.64 240 -181.28 240 -184 240 C-184 242.64 -184 245.28 -184 248 C-186.64 248 -189.28 248 -192 248 C-192 250.64 -192 253.28 -192 256 C-194.64 256 -197.28 256 -200 256 C-200 261.28 -200 266.56 -200 272 C-202.64 272 -205.28 272 -208 272 C-208 274.64 -208 277.28 -208 280 C-218.56 280 -229.12 280 -240 280 C-240 272.08 -240 264.16 -240 256 C-237.36 256 -234.72 256 -232 256 C-232 245.44 -232 234.88 -232 224 C-234.64 224 -237.28 224 -240 224 C-240 218.72 -240 213.44 -240 208 C-242.64 208 -245.28 208 -248 208 C-248 192.16 -248 176.32 -248 160 C-245.36 160 -242.72 160 -240 160 C-240 157.36 -240 154.72 -240 152 C-242.64 152 -245.28 152 -248 152 C-248 149.36 -248 146.72 -248 144 C-250.64 144 -253.28 144 -256 144 C-256 141.36 -256 138.72 -256 136 C-258.64 136 -261.28 136 -264 136 C-264 133.36 -264 130.72 -264 128 C-269.28 128 -274.56 128 -280 128 C-280 125.36 -280 122.72 -280 120 C-277.36 120 -274.72 120 -272 120 C-272 117.36 -272 114.72 -272 112 C-274.64 112 -277.28 112 -280 112 C-280 109.36 -280 106.72 -280 104 C-277.36 104 -274.72 104 -272 104 C-272 101.36 -272 98.72 -272 96 C-274.64 96 -277.28 96 -280 96 C-280 93.36 -280 90.72 -280 88 C-274.72 88 -269.44 88 -264 88 C-264 82.72 -264 77.44 -264 72 C-266.64 72 -269.28 72 -272 72 C-272 53.52 -272 35.04 -272 16 C-269.36 16 -266.72 16 -264 16 C-264 13.36 -264 10.72 -264 8 C-258.72 8 -253.44 8 -248 8 C-248 10.64 -248 13.28 -248 16 C-245.36 16 -242.72 16 -240 16 C-240 18.64 -240 21.28 -240 24 C-237.36 24 -234.72 24 -232 24 C-232 26.64 -232 29.28 -232 32 C-210.88 32 -189.76 32 -168 32 C-168 34.64 -168 37.28 -168 40 C-165.36 40 -162.72 40 -160 40 C-160 34.72 -160 29.44 -160 24 C-154.72 24 -149.44 24 -144 24 C-144 21.36 -144 18.72 -144 16 C-141.36 16 -138.72 16 -136 16 C-136 13.36 -136 10.72 -136 8 C-130.72 8 -125.44 8 -120 8 C-120 10.64 -120 13.28 -120 16 C-117.36 16 -114.72 16 -112 16 C-112 34.48 -112 52.96 -112 72 C-114.64 72 -117.28 72 -120 72 C-120 77.28 -120 82.56 -120 88 C-117.36 88 -114.72 88 -112 88 C-112 90.64 -112 93.28 -112 96 C-114.64 96 -117.28 96 -120 96 C-120 98.64 -120 101.28 -120 104 C-117.36 104 -114.72 104 -112 104 C-112 106.64 -112 109.28 -112 112 C-88.24 112 -64.48 112 -40 112 C-40 114.64 -40 117.28 -40 120 C-34.72 120 -29.44 120 -24 120 C-24 122.64 -24 125.28 -24 128 C-21.36 128 -18.72 128 -16 128 C-16 130.64 -16 133.28 -16 136 C-10.72 136 -5.44 136 0 136 C0 133.36 0 130.72 0 128 C2.64 128 5.28 128 8 128 C8 98.96 8 69.92 8 40 C5.36 40 2.72 40 0 40 C0 34.72 0 29.44 0 24 C-2.64 24 -5.28 24 -8 24 C-8 18.72 -8 13.44 -8 8 C-5.36 8 -2.72 8 0 8 C0 5.36 0 2.72 0 0 Z M-120 112 C-120 114.64 -120 117.28 -120 120 C-117.36 120 -114.72 120 -112 120 C-112 117.36 -112 114.72 -112 112 C-114.64 112 -117.28 112 -120 112 Z " fill="#6E6870" transform="translate(280,0)"/>
<path d="M0 0 C5.28 0 10.56 0 16 0 C16 2.64 16 5.28 16 8 C18.64 8 21.28 8 24 8 C24 10.64 24 13.28 24 16 C26.64 16 29.28 16 32 16 C32 18.64 32 21.28 32 24 C53.12 24 74.24 24 96 24 C96 26.64 96 29.28 96 32 C98.64 32 101.28 32 104 32 C104 34.64 104 37.28 104 40 C98.72 40 93.44 40 88 40 C88 42.64 88 45.28 88 48 C85.36 48 82.72 48 80 48 C80 42.72 80 37.44 80 32 C77.36 32 74.72 32 72 32 C72 34.64 72 37.28 72 40 C69.36 40 66.72 40 64 40 C64 45.28 64 50.56 64 56 C61.36 56 58.72 56 56 56 C56 58.64 56 61.28 56 64 C53.36 64 50.72 64 48 64 C48 66.64 48 69.28 48 72 C45.36 72 42.72 72 40 72 C40 74.64 40 77.28 40 80 C34.72 80 29.44 80 24 80 C24 82.64 24 85.28 24 88 C18.72 88 13.44 88 8 88 C8 93.28 8 98.56 8 104 C10.64 104 13.28 104 16 104 C16 106.64 16 109.28 16 112 C18.64 112 21.28 112 24 112 C24 114.64 24 117.28 24 120 C26.64 120 29.28 120 32 120 C32 122.64 32 125.28 32 128 C37.28 128 42.56 128 48 128 C48 141.2 48 154.4 48 168 C50.64 168 53.28 168 56 168 C56 178.56 56 189.12 56 200 C58.64 200 61.28 200 64 200 C64 202.64 64 205.28 64 208 C66.64 208 69.28 208 72 208 C72 213.28 72 218.56 72 224 C74.64 224 77.28 224 80 224 C80 229.28 80 234.56 80 240 C77.36 240 74.72 240 72 240 C72 242.64 72 245.28 72 248 C69.36 248 66.72 248 64 248 C64 253.28 64 258.56 64 264 C61.36 264 58.72 264 56 264 C56 266.64 56 269.28 56 272 C45.44 272 34.88 272 24 272 C24 264.08 24 256.16 24 248 C26.64 248 29.28 248 32 248 C32 237.44 32 226.88 32 216 C29.36 216 26.72 216 24 216 C24 210.72 24 205.44 24 200 C21.36 200 18.72 200 16 200 C16 184.16 16 168.32 16 152 C18.64 152 21.28 152 24 152 C24 149.36 24 146.72 24 144 C21.36 144 18.72 144 16 144 C16 141.36 16 138.72 16 136 C13.36 136 10.72 136 8 136 C8 133.36 8 130.72 8 128 C5.36 128 2.72 128 0 128 C0 125.36 0 122.72 0 120 C-5.28 120 -10.56 120 -16 120 C-16 117.36 -16 114.72 -16 112 C-13.36 112 -10.72 112 -8 112 C-8 109.36 -8 106.72 -8 104 C-10.64 104 -13.28 104 -16 104 C-16 101.36 -16 98.72 -16 96 C-13.36 96 -10.72 96 -8 96 C-8 93.36 -8 90.72 -8 88 C-10.64 88 -13.28 88 -16 88 C-16 85.36 -16 82.72 -16 80 C-10.72 80 -5.44 80 0 80 C0 74.72 0 69.44 0 64 C-2.64 64 -5.28 64 -8 64 C-8 45.52 -8 27.04 -8 8 C-5.36 8 -2.72 8 0 8 C0 5.36 0 2.72 0 0 Z " fill="#6E6870" transform="translate(16,8)"/>
<path d="M0 0 C2.64 0 5.28 0 8 0 C8 2.64 8 5.28 8 8 C10.64 8 13.28 8 16 8 C16 10.64 16 13.28 16 16 C18.64 16 21.28 16 24 16 C24 18.64 24 21.28 24 24 C29.28 24 34.56 24 40 24 C40 26.64 40 29.28 40 32 C45.28 32 50.56 32 56 32 C56 37.28 56 42.56 56 48 C53.36 48 50.72 48 48 48 C48 50.64 48 53.28 48 56 C45.36 56 42.72 56 40 56 C40 58.64 40 61.28 40 64 C37.36 64 34.72 64 32 64 C32 66.64 32 69.28 32 72 C29.36 72 26.72 72 24 72 C24 85.2 24 98.4 24 112 C26.64 112 29.28 112 32 112 C32 114.64 32 117.28 32 120 C34.64 120 37.28 120 40 120 C40 130.56 40 141.12 40 152 C37.36 152 34.72 152 32 152 C32 157.28 32 162.56 32 168 C26.72 168 21.44 168 16 168 C16 162.72 16 157.44 16 152 C13.36 152 10.72 152 8 152 C8 149.36 8 146.72 8 144 C5.36 144 2.72 144 0 144 C0 133.44 0 122.88 0 112 C-2.64 112 -5.28 112 -8 112 C-8 98.8 -8 85.6 -8 72 C-13.28 72 -18.56 72 -24 72 C-24 69.36 -24 66.72 -24 64 C-26.64 64 -29.28 64 -32 64 C-32 61.36 -32 58.72 -32 56 C-34.64 56 -37.28 56 -40 56 C-40 53.36 -40 50.72 -40 48 C-42.64 48 -45.28 48 -48 48 C-48 42.72 -48 37.44 -48 32 C-42.72 32 -37.44 32 -32 32 C-32 29.36 -32 26.72 -32 24 C-26.72 24 -21.44 24 -16 24 C-16 21.36 -16 18.72 -16 16 C-13.36 16 -10.72 16 -8 16 C-8 13.36 -8 10.72 -8 8 C-5.36 8 -2.72 8 0 8 C0 5.36 0 2.72 0 0 Z " fill="#FFFFFF" transform="translate(72,64)"/>
<path d="M0 0 C5.28 0 10.56 0 16 0 C16 2.64 16 5.28 16 8 C18.64 8 21.28 8 24 8 C24 10.64 24 13.28 24 16 C26.64 16 29.28 16 32 16 C32 18.64 32 21.28 32 24 C53.12 24 74.24 24 96 24 C96 26.64 96 29.28 96 32 C98.64 32 101.28 32 104 32 C104 34.64 104 37.28 104 40 C98.72 40 93.44 40 88 40 C88 42.64 88 45.28 88 48 C85.36 48 82.72 48 80 48 C80 42.72 80 37.44 80 32 C77.36 32 74.72 32 72 32 C72 34.64 72 37.28 72 40 C69.36 40 66.72 40 64 40 C64 45.28 64 50.56 64 56 C61.36 56 58.72 56 56 56 C56 58.64 56 61.28 56 64 C53.36 64 50.72 64 48 64 C48 66.64 48 69.28 48 72 C45.36 72 42.72 72 40 72 C40 74.64 40 77.28 40 80 C34.72 80 29.44 80 24 80 C24 82.64 24 85.28 24 88 C18.72 88 13.44 88 8 88 C8 93.28 8 98.56 8 104 C0.08 104 -7.84 104 -16 104 C-16 101.36 -16 98.72 -16 96 C-13.36 96 -10.72 96 -8 96 C-8 93.36 -8 90.72 -8 88 C-10.64 88 -13.28 88 -16 88 C-16 85.36 -16 82.72 -16 80 C-10.72 80 -5.44 80 0 80 C0 74.72 0 69.44 0 64 C-2.64 64 -5.28 64 -8 64 C-8 45.52 -8 27.04 -8 8 C-5.36 8 -2.72 8 0 8 C0 5.36 0 2.72 0 0 Z " fill="#6E6870" transform="translate(16,8)"/>
<path d="M0 0 C13.2 0 26.4 0 40 0 C40 2.64 40 5.28 40 8 C42.64 8 45.28 8 48 8 C48 13.28 48 18.56 48 24 C53.28 24 58.56 24 64 24 C64 31.92 64 39.84 64 48 C61.36 48 58.72 48 56 48 C56 53.28 56 58.56 56 64 C50.72 64 45.44 64 40 64 C40 56.08 40 48.16 40 40 C37.36 40 34.72 40 32 40 C32 37.36 32 34.72 32 32 C26.72 32 21.44 32 16 32 C16 26.72 16 21.44 16 16 C10.72 16 5.44 16 0 16 C0 10.72 0 5.44 0 0 Z " fill="#FFFFFF" transform="translate(160,208)"/>
<path d="M0 0 C23.76 0 47.52 0 72 0 C72 2.64 72 5.28 72 8 C64.08 8 56.16 8 48 8 C48 10.64 48 13.28 48 16 C50.64 16 53.28 16 56 16 C56 26.56 56 37.12 56 48 C48.08 48 40.16 48 32 48 C32 45.36 32 42.72 32 40 C34.64 40 37.28 40 40 40 C40 29.44 40 18.88 40 8 C34.72 8 29.44 8 24 8 C24 15.92 24 23.84 24 32 C21.36 32 18.72 32 16 32 C16 37.28 16 42.56 16 48 C10.72 48 5.44 48 0 48 C0 45.36 0 42.72 0 40 C2.64 40 5.28 40 8 40 C8 29.44 8 18.88 8 8 C5.36 8 2.72 8 0 8 C0 5.36 0 2.72 0 0 Z " fill="#464147" transform="translate(168,112)"/>
<path d="M0 0 C5.28 0 10.56 0 16 0 C16 2.64 16 5.28 16 8 C18.64 8 21.28 8 24 8 C24 10.64 24 13.28 24 16 C18.72 16 13.44 16 8 16 C8 21.28 8 26.56 8 32 C10.64 32 13.28 32 16 32 C16 34.64 16 37.28 16 40 C18.64 40 21.28 40 24 40 C24 42.64 24 45.28 24 48 C18.72 48 13.44 48 8 48 C8 53.28 8 58.56 8 64 C10.64 64 13.28 64 16 64 C16 66.64 16 69.28 16 72 C18.64 72 21.28 72 24 72 C24 74.64 24 77.28 24 80 C18.72 80 13.44 80 8 80 C8 87.92 8 95.84 8 104 C-2.56 104 -13.12 104 -24 104 C-24 101.36 -24 98.72 -24 96 C-18.72 96 -13.44 96 -8 96 C-8 93.36 -8 90.72 -8 88 C-5.36 88 -2.72 88 0 88 C0 58.96 0 29.92 0 0 Z " fill="#322E33" transform="translate(288,40)"/>
<path d="M0 0 C7.92 0 15.84 0 24 0 C24 2.64 24 5.28 24 8 C29.28 8 34.56 8 40 8 C40 10.64 40 13.28 40 16 C34.72 16 29.44 16 24 16 C24 26.56 24 37.12 24 48 C21.36 48 18.72 48 16 48 C16 53.28 16 58.56 16 64 C5.44 64 -5.12 64 -16 64 C-16 56.08 -16 48.16 -16 40 C-13.36 40 -10.72 40 -8 40 C-8 45.28 -8 50.56 -8 56 C-2.72 56 2.56 56 8 56 C8 50.72 8 45.44 8 40 C10.64 40 13.28 40 16 40 C16 32.08 16 24.16 16 16 C10.72 16 5.44 16 0 16 C0 10.72 0 5.44 0 0 Z " fill="#322E33" transform="translate(208,216)"/>
<path d="M0 0 C21.12 0 42.24 0 64 0 C64 2.64 64 5.28 64 8 C66.64 8 69.28 8 72 8 C72 10.64 72 13.28 72 16 C66.72 16 61.44 16 56 16 C56 18.64 56 21.28 56 24 C53.36 24 50.72 24 48 24 C48 18.72 48 13.44 48 8 C45.36 8 42.72 8 40 8 C40 10.64 40 13.28 40 16 C37.36 16 34.72 16 32 16 C32 21.28 32 26.56 32 32 C29.36 32 26.72 32 24 32 C24 24.08 24 16.16 24 8 C21.36 8 18.72 8 16 8 C16 13.28 16 18.56 16 24 C13.36 24 10.72 24 8 24 C8 18.72 8 13.44 8 8 C5.36 8 2.72 8 0 8 C0 5.36 0 2.72 0 0 Z " fill="#322E33" transform="translate(48,32)"/>
<path d="M0 0 C5.28 0 10.56 0 16 0 C16 2.64 16 5.28 16 8 C18.64 8 21.28 8 24 8 C24 21.2 24 34.4 24 48 C18.72 48 13.44 48 8 48 C8 45.36 8 42.72 8 40 C5.36 40 2.72 40 0 40 C0 26.8 0 13.6 0 0 Z " fill="#FFFFFF" transform="translate(256,232)"/>
<path d="M0 0 C13.2 0 26.4 0 40 0 C40 2.64 40 5.28 40 8 C42.64 8 45.28 8 48 8 C48 13.28 48 18.56 48 24 C37.44 24 26.88 24 16 24 C16 21.36 16 18.72 16 16 C10.72 16 5.44 16 0 16 C0 10.72 0 5.44 0 0 Z " fill="#FFFFFF" transform="translate(160,208)"/>
<path d="M0 0 C7.92 0 15.84 0 24 0 C24 5.28 24 10.56 24 16 C21.36 16 18.72 16 16 16 C16 18.64 16 21.28 16 24 C21.28 24 26.56 24 32 24 C32 26.64 32 29.28 32 32 C29.36 32 26.72 32 24 32 C24 37.28 24 42.56 24 48 C18.72 48 13.44 48 8 48 C8 37.44 8 26.88 8 16 C5.36 16 2.72 16 0 16 C0 10.72 0 5.44 0 0 Z " fill="#464147" transform="translate(40,208)"/>
<path d="M0 0 C5.28 0 10.56 0 16 0 C16 2.64 16 5.28 16 8 C13.36 8 10.72 8 8 8 C8 10.64 8 13.28 8 16 C5.36 16 2.72 16 0 16 C0 21.28 0 26.56 0 32 C-2.64 32 -5.28 32 -8 32 C-8 34.64 -8 37.28 -8 40 C-18.56 40 -29.12 40 -40 40 C-40 32.08 -40 24.16 -40 16 C-37.36 16 -34.72 16 -32 16 C-32 21.28 -32 26.56 -32 32 C-26.72 32 -21.44 32 -16 32 C-16 29.36 -16 26.72 -16 24 C-13.36 24 -10.72 24 -8 24 C-8 18.72 -8 13.44 -8 8 C-5.36 8 -2.72 8 0 8 C0 5.36 0 2.72 0 0 Z " fill="#322E33" transform="translate(80,240)"/>
<path d="M0 0 C5.28 0 10.56 0 16 0 C16 5.28 16 10.56 16 16 C18.64 16 21.28 16 24 16 C24 21.28 24 26.56 24 32 C21.36 32 18.72 32 16 32 C16 29.36 16 26.72 16 24 C13.36 24 10.72 24 8 24 C8 37.2 8 50.4 8 64 C5.36 64 2.72 64 0 64 C0 48.16 0 32.32 0 16 C2.64 16 5.28 16 8 16 C8 13.36 8 10.72 8 8 C5.36 8 2.72 8 0 8 C0 5.36 0 2.72 0 0 Z " fill="#464147" transform="translate(32,144)"/>
<path d="M0 0 C5.28 0 10.56 0 16 0 C16 2.64 16 5.28 16 8 C18.64 8 21.28 8 24 8 C24 10.64 24 13.28 24 16 C21.36 16 18.72 16 16 16 C16 18.64 16 21.28 16 24 C13.36 24 10.72 24 8 24 C8 29.28 8 34.56 8 40 C5.36 40 2.72 40 0 40 C0 34.72 0 29.44 0 24 C-2.64 24 -5.28 24 -8 24 C-8 18.72 -8 13.44 -8 8 C-5.36 8 -2.72 8 0 8 C0 5.36 0 2.72 0 0 Z " fill="#464147" transform="translate(280,0)"/>
<path d="M0 0 C2.64 0 5.28 0 8 0 C8 10.56 8 21.12 8 32 C0.08 32 -7.84 32 -16 32 C-16 24.08 -16 16.16 -16 8 C-10.72 8 -5.44 8 0 8 C0 5.36 0 2.72 0 0 Z " fill="#FFFFFF" transform="translate(136,248)"/>
<path d="M0 0 C5.28 0 10.56 0 16 0 C16 2.64 16 5.28 16 8 C21.28 8 26.56 8 32 8 C32 13.28 32 18.56 32 24 C37.28 24 42.56 24 48 24 C48 26.64 48 29.28 48 32 C40.08 32 32.16 32 24 32 C24 26.72 24 21.44 24 16 C16.08 16 8.16 16 0 16 C0 10.72 0 5.44 0 0 Z " fill="#322E33" transform="translate(128,200)"/>
<path d="M0 0 C2.64 0 5.28 0 8 0 C8 2.64 8 5.28 8 8 C10.64 8 13.28 8 16 8 C16 18.56 16 29.12 16 40 C8.08 40 0.16 40 -8 40 C-8 37.36 -8 34.72 -8 32 C-5.36 32 -2.72 32 0 32 C0 21.44 0 10.88 0 0 Z " fill="#464147" transform="translate(208,120)"/>
<path d="M0 0 C2.64 0 5.28 0 8 0 C8 13.2 8 26.4 8 40 C0.08 40 -7.84 40 -16 40 C-16 37.36 -16 34.72 -16 32 C-13.36 32 -10.72 32 -8 32 C-8 29.36 -8 26.72 -8 24 C-10.64 24 -13.28 24 -16 24 C-16 21.36 -16 18.72 -16 16 C-10.72 16 -5.44 16 0 16 C0 10.72 0 5.44 0 0 Z " fill="#322E33" transform="translate(16,72)"/>
<path d="M0 0 C2.64 0 5.28 0 8 0 C8 10.56 8 21.12 8 32 C5.36 32 2.72 32 0 32 C0 34.64 0 37.28 0 40 C-2.64 40 -5.28 40 -8 40 C-8 37.36 -8 34.72 -8 32 C-10.64 32 -13.28 32 -16 32 C-16 26.72 -16 21.44 -16 16 C-13.36 16 -10.72 16 -8 16 C-8 13.36 -8 10.72 -8 8 C-5.36 8 -2.72 8 0 8 C0 5.36 0 2.72 0 0 Z " fill="#A095A3" transform="translate(144,32)"/>
<path d="M0 0 C2.64 0 5.28 0 8 0 C8 23.76 8 47.52 8 72 C5.36 72 2.72 72 0 72 C0 48.24 0 24.48 0 0 Z " fill="#322E33" transform="translate(280,200)"/>
<path d="M0 0 C23.76 0 47.52 0 72 0 C72 2.64 72 5.28 72 8 C48.24 8 24.48 8 0 8 C0 5.36 0 2.72 0 0 Z " fill="#322E33" transform="translate(168,112)"/>
<path d="M0 0 C5.28 0 10.56 0 16 0 C16 2.64 16 5.28 16 8 C18.64 8 21.28 8 24 8 C24 21.2 24 34.4 24 48 C21.36 48 18.72 48 16 48 C16 37.44 16 26.88 16 16 C13.36 16 10.72 16 8 16 C8 13.36 8 10.72 8 8 C5.36 8 2.72 8 0 8 C0 5.36 0 2.72 0 0 Z " fill="#322E33" transform="translate(128,224)"/>
<path d="M0 0 C2.64 0 5.28 0 8 0 C8 5.28 8 10.56 8 16 C5.36 16 2.72 16 0 16 C0 18.64 0 21.28 0 24 C-5.28 24 -10.56 24 -16 24 C-16 29.28 -16 34.56 -16 40 C-18.64 40 -21.28 40 -24 40 C-24 32.08 -24 24.16 -24 16 C-18.72 16 -13.44 16 -8 16 C-8 13.36 -8 10.72 -8 8 C-5.36 8 -2.72 8 0 8 C0 5.36 0 2.72 0 0 Z " fill="#464147" transform="translate(224,176)"/>
<path d="M0 0 C5.28 0 10.56 0 16 0 C16 2.64 16 5.28 16 8 C18.64 8 21.28 8 24 8 C24 10.64 24 13.28 24 16 C21.36 16 18.72 16 16 16 C16 18.64 16 21.28 16 24 C13.36 24 10.72 24 8 24 C8 26.64 8 29.28 8 32 C5.36 32 2.72 32 0 32 C0 21.44 0 10.88 0 0 Z " fill="#464147" transform="translate(240,120)"/>
<path d="M0 0 C2.64 0 5.28 0 8 0 C8 18.48 8 36.96 8 56 C5.36 56 2.72 56 0 56 C0 37.52 0 19.04 0 0 Z " fill="#322E33" transform="translate(160,16)"/>
<path d="M0 0 C2.64 0 5.28 0 8 0 C8 18.48 8 36.96 8 56 C5.36 56 2.72 56 0 56 C0 37.52 0 19.04 0 0 Z " fill="#322E33" transform="translate(8,16)"/>
<path d="M0 0 C2.64 0 5.28 0 8 0 C8 5.28 8 10.56 8 16 C10.64 16 13.28 16 16 16 C16 18.64 16 21.28 16 24 C18.64 24 21.28 24 24 24 C24 26.64 24 29.28 24 32 C18.72 32 13.44 32 8 32 C8 29.36 8 26.72 8 24 C5.36 24 2.72 24 0 24 C0 16.08 0 8.16 0 0 Z " fill="#322E33" transform="translate(256,248)"/>
<path d="M0 0 C2.64 0 5.28 0 8 0 C8 5.28 8 10.56 8 16 C5.36 16 2.72 16 0 16 C0 18.64 0 21.28 0 24 C-5.28 24 -10.56 24 -16 24 C-16 18.72 -16 13.44 -16 8 C-10.72 8 -5.44 8 0 8 C0 5.36 0 2.72 0 0 Z " fill="#FFFFFF" transform="translate(64,248)"/>
<path d="M0 0 C5.28 0 10.56 0 16 0 C16 2.64 16 5.28 16 8 C18.64 8 21.28 8 24 8 C24 10.64 24 13.28 24 16 C21.36 16 18.72 16 16 16 C16 21.28 16 26.56 16 32 C13.36 32 10.72 32 8 32 C8 24.08 8 16.16 8 8 C5.36 8 2.72 8 0 8 C0 5.36 0 2.72 0 0 Z " fill="#322E33" transform="translate(104,240)"/>
<path d="M0 0 C2.64 0 5.28 0 8 0 C8 15.84 8 31.68 8 48 C5.36 48 2.72 48 0 48 C0 32.16 0 16.32 0 0 Z " fill="#322E33" transform="translate(32,160)"/>
<path d="M0 0 C10.56 0 21.12 0 32 0 C32 2.64 32 5.28 32 8 C29.36 8 26.72 8 24 8 C24 10.64 24 13.28 24 16 C18.72 16 13.44 16 8 16 C8 13.36 8 10.72 8 8 C5.36 8 2.72 8 0 8 C0 5.36 0 2.72 0 0 Z " fill="#322E33" transform="translate(136,120)"/>
<path d="M0 0 C10.56 0 21.12 0 32 0 C32 2.64 32 5.28 32 8 C29.36 8 26.72 8 24 8 C24 10.64 24 13.28 24 16 C21.36 16 18.72 16 16 16 C16 13.36 16 10.72 16 8 C10.72 8 5.44 8 0 8 C0 5.36 0 2.72 0 0 Z " fill="#322E33" transform="translate(176,232)"/>
<path d="M0 0 C5.28 0 10.56 0 16 0 C16 2.64 16 5.28 16 8 C18.64 8 21.28 8 24 8 C24 10.64 24 13.28 24 16 C16.08 16 8.16 16 0 16 C0 10.72 0 5.44 0 0 Z " fill="#464147" transform="translate(128,200)"/>
<path d="M0 0 C5.28 0 10.56 0 16 0 C16 5.28 16 10.56 16 16 C13.36 16 10.72 16 8 16 C8 18.64 8 21.28 8 24 C5.36 24 2.72 24 0 24 C0 16.08 0 8.16 0 0 Z " fill="#464147" transform="translate(128,136)"/>
<path d="M0 0 C7.92 0 15.84 0 24 0 C24 2.64 24 5.28 24 8 C21.36 8 18.72 8 16 8 C16 13.28 16 18.56 16 24 C13.36 24 10.72 24 8 24 C8 18.72 8 13.44 8 8 C5.36 8 2.72 8 0 8 C0 5.36 0 2.72 0 0 Z " fill="#D77BBA" transform="translate(64,88)"/>
<path d="M0 0 C2.64 0 5.28 0 8 0 C8 7.92 8 15.84 8 24 C0.08 24 -7.84 24 -16 24 C-16 21.36 -16 18.72 -16 16 C-10.72 16 -5.44 16 0 16 C0 10.72 0 5.44 0 0 Z " fill="#322E33" transform="translate(16,72)"/>
<path d="M0 0 C2.64 0 5.28 0 8 0 C8 13.2 8 26.4 8 40 C5.36 40 2.72 40 0 40 C0 26.8 0 13.6 0 0 Z " fill="#322E33" transform="translate(328,64)"/>
<path d="M0 0 C5.28 0 10.56 0 16 0 C16 2.64 16 5.28 16 8 C13.36 8 10.72 8 8 8 C8 13.28 8 18.56 8 24 C5.36 24 2.72 24 0 24 C0 16.08 0 8.16 0 0 Z " fill="#464147" transform="translate(56,232)"/>
<path d="M0 0 C2.64 0 5.28 0 8 0 C8 10.56 8 21.12 8 32 C5.36 32 2.72 32 0 32 C0 21.44 0 10.88 0 0 Z " fill="#322E33" transform="translate(48,224)"/>
<path d="M0 0 C2.64 0 5.28 0 8 0 C8 5.28 8 10.56 8 16 C0.08 16 -7.84 16 -16 16 C-16 13.36 -16 10.72 -16 8 C-10.72 8 -5.44 8 0 8 C0 5.36 0 2.72 0 0 Z " fill="#322E33" transform="translate(280,128)"/>
<path d="M0 0 C7.92 0 15.84 0 24 0 C24 5.28 24 10.56 24 16 C21.36 16 18.72 16 16 16 C16 13.36 16 10.72 16 8 C10.72 8 5.44 8 0 8 C0 5.36 0 2.72 0 0 Z " fill="#322E33" transform="translate(0,120)"/>
<path d="M0 0 C10.56 0 21.12 0 32 0 C32 2.64 32 5.28 32 8 C21.44 8 10.88 8 0 8 C0 5.36 0 2.72 0 0 Z " fill="#322E33" transform="translate(136,104)"/>
<path d="M0 0 C5.28 0 10.56 0 16 0 C16 5.28 16 10.56 16 16 C10.72 16 5.44 16 0 16 C0 10.72 0 5.44 0 0 Z " fill="#EBB1D8" transform="translate(112,96)"/>
<path d="M0 0 C5.28 0 10.56 0 16 0 C16 5.28 16 10.56 16 16 C10.72 16 5.44 16 0 16 C0 10.72 0 5.44 0 0 Z " fill="#EBB1D8" transform="translate(24,96)"/>
<path d="M0 0 C10.56 0 21.12 0 32 0 C32 2.64 32 5.28 32 8 C21.44 8 10.88 8 0 8 C0 5.36 0 2.72 0 0 Z " fill="#322E33" transform="translate(136,88)"/>
<path d="M0 0 C7.92 0 15.84 0 24 0 C24 2.64 24 5.28 24 8 C18.72 8 13.44 8 8 8 C8 10.64 8 13.28 8 16 C5.36 16 2.72 16 0 16 C0 10.72 0 5.44 0 0 Z " fill="#464147" transform="translate(96,40)"/>
<path d="M0 0 C5.28 0 10.56 0 16 0 C16 2.64 16 5.28 16 8 C13.36 8 10.72 8 8 8 C8 13.28 8 18.56 8 24 C5.36 24 2.72 24 0 24 C0 16.08 0 8.16 0 0 Z " fill="#464147" transform="translate(72,40)"/>
<path d="M0 0 C2.64 0 5.28 0 8 0 C8 2.64 8 5.28 8 8 C10.64 8 13.28 8 16 8 C16 10.64 16 13.28 16 16 C13.36 16 10.72 16 8 16 C8 18.64 8 21.28 8 24 C5.36 24 2.72 24 0 24 C0 16.08 0 8.16 0 0 Z " fill="#A095A3" transform="translate(24,40)"/>
<path d="M0 0 C7.92 0 15.84 0 24 0 C24 2.64 24 5.28 24 8 C16.08 8 8.16 8 0 8 C0 5.36 0 2.72 0 0 Z " fill="#322E33" transform="translate(120,272)"/>
<path d="M0 0 C5.28 0 10.56 0 16 0 C16 5.28 16 10.56 16 16 C13.36 16 10.72 16 8 16 C8 13.36 8 10.72 8 8 C5.36 8 2.72 8 0 8 C0 5.36 0 2.72 0 0 Z " fill="#464147" transform="translate(128,224)"/>
<path d="M0 0 C2.64 0 5.28 0 8 0 C8 5.28 8 10.56 8 16 C2.72 16 -2.56 16 -8 16 C-8 13.36 -8 10.72 -8 8 C-5.36 8 -2.72 8 0 8 C0 5.36 0 2.72 0 0 Z " fill="#464147" transform="translate(240,200)"/>
<path d="M0 0 C2.64 0 5.28 0 8 0 C8 7.92 8 15.84 8 24 C5.36 24 2.72 24 0 24 C0 16.08 0 8.16 0 0 Z " fill="#322E33" transform="translate(200,192)"/>
<path d="M0 0 C2.64 0 5.28 0 8 0 C8 7.92 8 15.84 8 24 C5.36 24 2.72 24 0 24 C0 16.08 0 8.16 0 0 Z " fill="#322E33" transform="translate(280,160)"/>
<path d="M0 0 C5.28 0 10.56 0 16 0 C16 5.28 16 10.56 16 16 C13.36 16 10.72 16 8 16 C8 13.36 8 10.72 8 8 C5.36 8 2.72 8 0 8 C0 5.36 0 2.72 0 0 Z " fill="#322E33" transform="translate(32,144)"/>
<path d="M0 0 C2.64 0 5.28 0 8 0 C8 7.92 8 15.84 8 24 C5.36 24 2.72 24 0 24 C0 16.08 0 8.16 0 0 Z " fill="#322E33" transform="translate(320,104)"/>
<path d="M0 0 C2.64 0 5.28 0 8 0 C8 2.64 8 5.28 8 8 C10.64 8 13.28 8 16 8 C16 10.64 16 13.28 16 16 C10.72 16 5.44 16 0 16 C0 10.72 0 5.44 0 0 Z " fill="#464147" transform="translate(296,104)"/>
<path d="M0 0 C2.64 0 5.28 0 8 0 C8 2.64 8 5.28 8 8 C10.64 8 13.28 8 16 8 C16 10.64 16 13.28 16 16 C10.72 16 5.44 16 0 16 C0 10.72 0 5.44 0 0 Z " fill="#464147" transform="translate(296,72)"/>
<path d="M0 0 C2.64 0 5.28 0 8 0 C8 7.92 8 15.84 8 24 C5.36 24 2.72 24 0 24 C0 16.08 0 8.16 0 0 Z " fill="#322E33" transform="translate(320,40)"/>
<path d="M0 0 C2.64 0 5.28 0 8 0 C8 2.64 8 5.28 8 8 C10.64 8 13.28 8 16 8 C16 10.64 16 13.28 16 16 C10.72 16 5.44 16 0 16 C0 10.72 0 5.44 0 0 Z " fill="#464147" transform="translate(296,40)"/>
<path d="M0 0 C5.28 0 10.56 0 16 0 C16 2.64 16 5.28 16 8 C13.36 8 10.72 8 8 8 C8 10.64 8 13.28 8 16 C5.36 16 2.72 16 0 16 C0 10.72 0 5.44 0 0 Z " fill="#322E33" transform="translate(120,24)"/>
<path d="M0 0 C2.64 0 5.28 0 8 0 C8 5.28 8 10.56 8 16 C5.36 16 2.72 16 0 16 C0 10.72 0 5.44 0 0 Z " fill="#322E33" transform="translate(248,232)"/>
<path d="M0 0 C5.28 0 10.56 0 16 0 C16 2.64 16 5.28 16 8 C10.72 8 5.44 8 0 8 C0 5.36 0 2.72 0 0 Z " fill="#464147" transform="translate(216,216)"/>
<path d="M0 0 C2.64 0 5.28 0 8 0 C8 5.28 8 10.56 8 16 C5.36 16 2.72 16 0 16 C0 10.72 0 5.44 0 0 Z " fill="#322E33" transform="translate(40,208)"/>
<path d="M0 0 C2.64 0 5.28 0 8 0 C8 5.28 8 10.56 8 16 C5.36 16 2.72 16 0 16 C0 10.72 0 5.44 0 0 Z " fill="#322E33" transform="translate(272,184)"/>
<path d="M0 0 C2.64 0 5.28 0 8 0 C8 5.28 8 10.56 8 16 C5.36 16 2.72 16 0 16 C0 10.72 0 5.44 0 0 Z " fill="#464147" transform="translate(120,160)"/>
<path d="M0 0 C5.28 0 10.56 0 16 0 C16 2.64 16 5.28 16 8 C10.72 8 5.44 8 0 8 C0 5.36 0 2.72 0 0 Z " fill="#322E33" transform="translate(288,152)"/>
<path d="M0 0 C5.28 0 10.56 0 16 0 C16 2.64 16 5.28 16 8 C10.72 8 5.44 8 0 8 C0 5.36 0 2.72 0 0 Z " fill="#322E33" transform="translate(128,136)"/>
<path d="M0 0 C2.64 0 5.28 0 8 0 C8 5.28 8 10.56 8 16 C5.36 16 2.72 16 0 16 C0 10.72 0 5.44 0 0 Z " fill="#322E33" transform="translate(312,128)"/>
<path d="M0 0 C2.64 0 5.28 0 8 0 C8 5.28 8 10.56 8 16 C5.36 16 2.72 16 0 16 C0 10.72 0 5.44 0 0 Z " fill="#464147" transform="translate(288,128)"/>
<path d="M0 0 C5.28 0 10.56 0 16 0 C16 2.64 16 5.28 16 8 C10.72 8 5.44 8 0 8 C0 5.36 0 2.72 0 0 Z " fill="#322E33" transform="translate(240,120)"/>
<path d="M0 0 C5.28 0 10.56 0 16 0 C16 2.64 16 5.28 16 8 C10.72 8 5.44 8 0 8 C0 5.36 0 2.72 0 0 Z " fill="#322E33" transform="translate(80,112)"/>
<path d="M0 0 C5.28 0 10.56 0 16 0 C16 2.64 16 5.28 16 8 C10.72 8 5.44 8 0 8 C0 5.36 0 2.72 0 0 Z " fill="#322E33" transform="translate(56,112)"/>
<path d="M0 0 C5.28 0 10.56 0 16 0 C16 2.64 16 5.28 16 8 C10.72 8 5.44 8 0 8 C0 5.36 0 2.72 0 0 Z " fill="#6E6870" transform="translate(8,96)"/>
<path d="M0 0 C5.28 0 10.56 0 16 0 C16 2.64 16 5.28 16 8 C10.72 8 5.44 8 0 8 C0 5.36 0 2.72 0 0 Z " fill="#322E33" transform="translate(0,88)"/>
<path d="M0 0 C2.64 0 5.28 0 8 0 C8 5.28 8 10.56 8 16 C5.36 16 2.72 16 0 16 C0 10.72 0 5.44 0 0 Z " fill="#464147" transform="translate(56,40)"/>
<path d="M0 0 C2.64 0 5.28 0 8 0 C8 5.28 8 10.56 8 16 C5.36 16 2.72 16 0 16 C0 10.72 0 5.44 0 0 Z " fill="#322E33" transform="translate(312,24)"/>
<path d="M0 0 C2.64 0 5.28 0 8 0 C8 5.28 8 10.56 8 16 C5.36 16 2.72 16 0 16 C0 10.72 0 5.44 0 0 Z " fill="#322E33" transform="translate(280,24)"/>
<path d="M0 0 C2.64 0 5.28 0 8 0 C8 5.28 8 10.56 8 16 C5.36 16 2.72 16 0 16 C0 10.72 0 5.44 0 0 Z " fill="#322E33" transform="translate(272,8)"/>
<path d="M0 0 C5.28 0 10.56 0 16 0 C16 2.64 16 5.28 16 8 C10.72 8 5.44 8 0 8 C0 5.36 0 2.72 0 0 Z " fill="#322E33" transform="translate(144,8)"/>
<path d="M0 0 C5.28 0 10.56 0 16 0 C16 2.64 16 5.28 16 8 C10.72 8 5.44 8 0 8 C0 5.36 0 2.72 0 0 Z " fill="#322E33" transform="translate(16,8)"/>
<path d="M0 0 C5.28 0 10.56 0 16 0 C16 2.64 16 5.28 16 8 C10.72 8 5.44 8 0 8 C0 5.36 0 2.72 0 0 Z " fill="#322E33" transform="translate(280,0)"/>
<path d="M0 0 C2.64 0 5.28 0 8 0 C8 2.64 8 5.28 8 8 C5.36 8 2.72 8 0 8 C0 5.36 0 2.72 0 0 Z " fill="#322E33" transform="translate(200,248)"/>
<path d="M0 0 C2.64 0 5.28 0 8 0 C8 2.64 8 5.28 8 8 C5.36 8 2.72 8 0 8 C0 5.36 0 2.72 0 0 Z " fill="#6E6870" transform="translate(56,248)"/>
<path d="M0 0 C2.64 0 5.28 0 8 0 C8 2.64 8 5.28 8 8 C5.36 8 2.72 8 0 8 C0 5.36 0 2.72 0 0 Z " fill="#322E33" transform="translate(96,232)"/>
<path d="M0 0 C2.64 0 5.28 0 8 0 C8 2.64 8 5.28 8 8 C5.36 8 2.72 8 0 8 C0 5.36 0 2.72 0 0 Z " fill="#322E33" transform="translate(304,144)"/>
<path d="M0 0 C2.64 0 5.28 0 8 0 C8 2.64 8 5.28 8 8 C5.36 8 2.72 8 0 8 C0 5.36 0 2.72 0 0 Z " fill="#322E33" transform="translate(24,136)"/>
<path d="M0 0 C2.64 0 5.28 0 8 0 C8 2.64 8 5.28 8 8 C5.36 8 2.72 8 0 8 C0 5.36 0 2.72 0 0 Z " fill="#322E33" transform="translate(256,128)"/>
<path d="M0 0 C2.64 0 5.28 0 8 0 C8 2.64 8 5.28 8 8 C5.36 8 2.72 8 0 8 C0 5.36 0 2.72 0 0 Z " fill="#322E33" transform="translate(16,128)"/>
<path d="M0 0 C2.64 0 5.28 0 8 0 C8 2.64 8 5.28 8 8 C5.36 8 2.72 8 0 8 C0 5.36 0 2.72 0 0 Z " fill="#464147" transform="translate(136,120)"/>
<path d="M0 0 C2.64 0 5.28 0 8 0 C8 2.64 8 5.28 8 8 C5.36 8 2.72 8 0 8 C0 5.36 0 2.72 0 0 Z " fill="#464147" transform="translate(16,120)"/>
<path d="M0 0 C2.64 0 5.28 0 8 0 C8 2.64 8 5.28 8 8 C5.36 8 2.72 8 0 8 C0 5.36 0 2.72 0 0 Z " fill="#464147" transform="translate(136,104)"/>
<path d="M0 0 C2.64 0 5.28 0 8 0 C8 2.64 8 5.28 8 8 C5.36 8 2.72 8 0 8 C0 5.36 0 2.72 0 0 Z " fill="#322E33" transform="translate(96,104)"/>
<path d="M0 0 C2.64 0 5.28 0 8 0 C8 2.64 8 5.28 8 8 C5.36 8 2.72 8 0 8 C0 5.36 0 2.72 0 0 Z " fill="#322E33" transform="translate(72,104)"/>
<path d="M0 0 C2.64 0 5.28 0 8 0 C8 2.64 8 5.28 8 8 C5.36 8 2.72 8 0 8 C0 5.36 0 2.72 0 0 Z " fill="#322E33" transform="translate(48,104)"/>
<path d="M0 0 C2.64 0 5.28 0 8 0 C8 2.64 8 5.28 8 8 C5.36 8 2.72 8 0 8 C0 5.36 0 2.72 0 0 Z " fill="#464147" transform="translate(16,104)"/>
<path d="M0 0 C2.64 0 5.28 0 8 0 C8 2.64 8 5.28 8 8 C5.36 8 2.72 8 0 8 C0 5.36 0 2.72 0 0 Z " fill="#464147" transform="translate(136,88)"/>
<path d="M0 0 C2.64 0 5.28 0 8 0 C8 2.64 8 5.28 8 8 C5.36 8 2.72 8 0 8 C0 5.36 0 2.72 0 0 Z " fill="#464147" transform="translate(16,88)"/>
<path d="M0 0 C2.64 0 5.28 0 8 0 C8 2.64 8 5.28 8 8 C5.36 8 2.72 8 0 8 C0 5.36 0 2.72 0 0 Z " fill="#322E33" transform="translate(112,80)"/>
<path d="M0 0 C2.64 0 5.28 0 8 0 C8 2.64 8 5.28 8 8 C5.36 8 2.72 8 0 8 C0 5.36 0 2.72 0 0 Z " fill="#322E33" transform="translate(96,80)"/>
<path d="M0 0 C2.64 0 5.28 0 8 0 C8 2.64 8 5.28 8 8 C5.36 8 2.72 8 0 8 C0 5.36 0 2.72 0 0 Z " fill="#322E33" transform="translate(48,80)"/>
<path d="M0 0 C2.64 0 5.28 0 8 0 C8 2.64 8 5.28 8 8 C5.36 8 2.72 8 0 8 C0 5.36 0 2.72 0 0 Z " fill="#6E6870" transform="translate(40,80)"/>
<path d="M0 0 C2.64 0 5.28 0 8 0 C8 2.64 8 5.28 8 8 C5.36 8 2.72 8 0 8 C0 5.36 0 2.72 0 0 Z " fill="#322E33" transform="translate(32,80)"/>
<path d="M0 0 C2.64 0 5.28 0 8 0 C8 2.64 8 5.28 8 8 C5.36 8 2.72 8 0 8 C0 5.36 0 2.72 0 0 Z " fill="#322E33" transform="translate(152,72)"/>
<path d="M0 0 C2.64 0 5.28 0 8 0 C8 2.64 8 5.28 8 8 C5.36 8 2.72 8 0 8 C0 5.36 0 2.72 0 0 Z " fill="#322E33" transform="translate(104,72)"/>
<path d="M0 0 C2.64 0 5.28 0 8 0 C8 2.64 8 5.28 8 8 C5.36 8 2.72 8 0 8 C0 5.36 0 2.72 0 0 Z " fill="#322E33" transform="translate(40,72)"/>
<path d="M0 0 C2.64 0 5.28 0 8 0 C8 2.64 8 5.28 8 8 C5.36 8 2.72 8 0 8 C0 5.36 0 2.72 0 0 Z " fill="#322E33" transform="translate(112,40)"/>
<path d="M0 0 C2.64 0 5.28 0 8 0 C8 2.64 8 5.28 8 8 C5.36 8 2.72 8 0 8 C0 5.36 0 2.72 0 0 Z " fill="#322E33" transform="translate(40,40)"/>
<path d="M0 0 C2.64 0 5.28 0 8 0 C8 2.64 8 5.28 8 8 C5.36 8 2.72 8 0 8 C0 5.36 0 2.72 0 0 Z " fill="#322E33" transform="translate(40,24)"/>
<path d="M0 0 C2.64 0 5.28 0 8 0 C8 2.64 8 5.28 8 8 C5.36 8 2.72 8 0 8 C0 5.36 0 2.72 0 0 Z " fill="#322E33" transform="translate(304,16)"/>
<path d="M0 0 C2.64 0 5.28 0 8 0 C8 2.64 8 5.28 8 8 C5.36 8 2.72 8 0 8 C0 5.36 0 2.72 0 0 Z " fill="#322E33" transform="translate(136,16)"/>
<path d="M0 0 C2.64 0 5.28 0 8 0 C8 2.64 8 5.28 8 8 C5.36 8 2.72 8 0 8 C0 5.36 0 2.72 0 0 Z " fill="#322E33" transform="translate(32,16)"/>
<path d="M0 0 C2.64 0 5.28 0 8 0 C8 2.64 8 5.28 8 8 C5.36 8 2.72 8 0 8 C0 5.36 0 2.72 0 0 Z " fill="#322E33" transform="translate(296,8)"/>
<path d="M0 0 C2.64 0 5.28 0 8 0 C8 2.64 8 5.28 8 8 C5.36 8 2.72 8 0 8 C0 5.36 0 2.72 0 0 Z " fill="#6E6870" transform="translate(288,8)"/>
</svg>
